%TF.GenerationSoftware,KiCad,Pcbnew,10.0.3*%
%TF.CreationDate,2026-05-31T00:11:12+02:00*%
%TF.ProjectId,wake_up,77616b65-5f75-4702-9e6b-696361645f70,rev?*%
%TF.SameCoordinates,Original*%
%TF.FileFunction,Legend,Top*%
%TF.FilePolarity,Positive*%
%FSLAX46Y46*%
G04 Gerber Fmt 4.6, Leading zero omitted, Abs format (unit mm)*
G04 Created by KiCad (PCBNEW 10.0.3) date 2026-05-31 00:11:12*
%MOMM*%
%LPD*%
G01*
G04 APERTURE LIST*
%ADD10C,0.150000*%
%ADD11C,0.120000*%
G04 APERTURE END LIST*
D10*
X148666666Y-94341379D02*
X148666666Y-95055664D01*
X148666666Y-95055664D02*
X148619047Y-95198521D01*
X148619047Y-95198521D02*
X148523809Y-95293760D01*
X148523809Y-95293760D02*
X148380952Y-95341379D01*
X148380952Y-95341379D02*
X148285714Y-95341379D01*
X149047619Y-94341379D02*
X149714285Y-94341379D01*
X149714285Y-94341379D02*
X149285714Y-95341379D01*
X111283333Y-71034819D02*
X110950000Y-70558628D01*
X110711905Y-71034819D02*
X110711905Y-70034819D01*
X110711905Y-70034819D02*
X111092857Y-70034819D01*
X111092857Y-70034819D02*
X111188095Y-70082438D01*
X111188095Y-70082438D02*
X111235714Y-70130057D01*
X111235714Y-70130057D02*
X111283333Y-70225295D01*
X111283333Y-70225295D02*
X111283333Y-70368152D01*
X111283333Y-70368152D02*
X111235714Y-70463390D01*
X111235714Y-70463390D02*
X111188095Y-70511009D01*
X111188095Y-70511009D02*
X111092857Y-70558628D01*
X111092857Y-70558628D02*
X110711905Y-70558628D01*
X112235714Y-71034819D02*
X111664286Y-71034819D01*
X111950000Y-71034819D02*
X111950000Y-70034819D01*
X111950000Y-70034819D02*
X111854762Y-70177676D01*
X111854762Y-70177676D02*
X111759524Y-70272914D01*
X111759524Y-70272914D02*
X111664286Y-70320533D01*
X148666666Y-107761379D02*
X148666666Y-108475664D01*
X148666666Y-108475664D02*
X148619047Y-108618521D01*
X148619047Y-108618521D02*
X148523809Y-108713760D01*
X148523809Y-108713760D02*
X148380952Y-108761379D01*
X148380952Y-108761379D02*
X148285714Y-108761379D01*
X149285714Y-108189950D02*
X149190476Y-108142331D01*
X149190476Y-108142331D02*
X149142857Y-108094712D01*
X149142857Y-108094712D02*
X149095238Y-107999474D01*
X149095238Y-107999474D02*
X149095238Y-107951855D01*
X149095238Y-107951855D02*
X149142857Y-107856617D01*
X149142857Y-107856617D02*
X149190476Y-107808998D01*
X149190476Y-107808998D02*
X149285714Y-107761379D01*
X149285714Y-107761379D02*
X149476190Y-107761379D01*
X149476190Y-107761379D02*
X149571428Y-107808998D01*
X149571428Y-107808998D02*
X149619047Y-107856617D01*
X149619047Y-107856617D02*
X149666666Y-107951855D01*
X149666666Y-107951855D02*
X149666666Y-107999474D01*
X149666666Y-107999474D02*
X149619047Y-108094712D01*
X149619047Y-108094712D02*
X149571428Y-108142331D01*
X149571428Y-108142331D02*
X149476190Y-108189950D01*
X149476190Y-108189950D02*
X149285714Y-108189950D01*
X149285714Y-108189950D02*
X149190476Y-108237569D01*
X149190476Y-108237569D02*
X149142857Y-108285188D01*
X149142857Y-108285188D02*
X149095238Y-108380426D01*
X149095238Y-108380426D02*
X149095238Y-108570902D01*
X149095238Y-108570902D02*
X149142857Y-108666140D01*
X149142857Y-108666140D02*
X149190476Y-108713760D01*
X149190476Y-108713760D02*
X149285714Y-108761379D01*
X149285714Y-108761379D02*
X149476190Y-108761379D01*
X149476190Y-108761379D02*
X149571428Y-108713760D01*
X149571428Y-108713760D02*
X149619047Y-108666140D01*
X149619047Y-108666140D02*
X149666666Y-108570902D01*
X149666666Y-108570902D02*
X149666666Y-108380426D01*
X149666666Y-108380426D02*
X149619047Y-108285188D01*
X149619047Y-108285188D02*
X149571428Y-108237569D01*
X149571428Y-108237569D02*
X149476190Y-108189950D01*
X99401905Y-81074819D02*
X99401905Y-80074819D01*
X99401905Y-80074819D02*
X99640000Y-80074819D01*
X99640000Y-80074819D02*
X99782857Y-80122438D01*
X99782857Y-80122438D02*
X99878095Y-80217676D01*
X99878095Y-80217676D02*
X99925714Y-80312914D01*
X99925714Y-80312914D02*
X99973333Y-80503390D01*
X99973333Y-80503390D02*
X99973333Y-80646247D01*
X99973333Y-80646247D02*
X99925714Y-80836723D01*
X99925714Y-80836723D02*
X99878095Y-80931961D01*
X99878095Y-80931961D02*
X99782857Y-81027200D01*
X99782857Y-81027200D02*
X99640000Y-81074819D01*
X99640000Y-81074819D02*
X99401905Y-81074819D01*
X100925714Y-81074819D02*
X100354286Y-81074819D01*
X100640000Y-81074819D02*
X100640000Y-80074819D01*
X100640000Y-80074819D02*
X100544762Y-80217676D01*
X100544762Y-80217676D02*
X100449524Y-80312914D01*
X100449524Y-80312914D02*
X100354286Y-80360533D01*
X103688095Y-80754819D02*
X103688095Y-79754819D01*
X104259523Y-80754819D02*
X103830952Y-80183390D01*
X104259523Y-79754819D02*
X103688095Y-80326247D01*
X148666666Y-79841379D02*
X148666666Y-80555664D01*
X148666666Y-80555664D02*
X148619047Y-80698521D01*
X148619047Y-80698521D02*
X148523809Y-80793760D01*
X148523809Y-80793760D02*
X148380952Y-80841379D01*
X148380952Y-80841379D02*
X148285714Y-80841379D01*
X149666666Y-80841379D02*
X149095238Y-80841379D01*
X149380952Y-80841379D02*
X149380952Y-79841379D01*
X149380952Y-79841379D02*
X149285714Y-79984236D01*
X149285714Y-79984236D02*
X149190476Y-80079474D01*
X149190476Y-80079474D02*
X149095238Y-80127093D01*
X130938095Y-78154819D02*
X130938095Y-78964342D01*
X130938095Y-78964342D02*
X130985714Y-79059580D01*
X130985714Y-79059580D02*
X131033333Y-79107200D01*
X131033333Y-79107200D02*
X131128571Y-79154819D01*
X131128571Y-79154819D02*
X131319047Y-79154819D01*
X131319047Y-79154819D02*
X131414285Y-79107200D01*
X131414285Y-79107200D02*
X131461904Y-79059580D01*
X131461904Y-79059580D02*
X131509523Y-78964342D01*
X131509523Y-78964342D02*
X131509523Y-78154819D01*
X131938095Y-78250057D02*
X131985714Y-78202438D01*
X131985714Y-78202438D02*
X132080952Y-78154819D01*
X132080952Y-78154819D02*
X132319047Y-78154819D01*
X132319047Y-78154819D02*
X132414285Y-78202438D01*
X132414285Y-78202438D02*
X132461904Y-78250057D01*
X132461904Y-78250057D02*
X132509523Y-78345295D01*
X132509523Y-78345295D02*
X132509523Y-78440533D01*
X132509523Y-78440533D02*
X132461904Y-78583390D01*
X132461904Y-78583390D02*
X131890476Y-79154819D01*
X131890476Y-79154819D02*
X132509523Y-79154819D01*
X131773866Y-105191904D02*
X131726247Y-105144285D01*
X131726247Y-105144285D02*
X131678628Y-105049047D01*
X131678628Y-105049047D02*
X131773866Y-104858571D01*
X131773866Y-104858571D02*
X131726247Y-104763333D01*
X131726247Y-104763333D02*
X131678628Y-104715714D01*
X121079289Y-126226099D02*
X120603099Y-126226099D01*
X120603099Y-126226099D02*
X120555480Y-126702289D01*
X120555480Y-126702289D02*
X120603099Y-126654670D01*
X120603099Y-126654670D02*
X120698337Y-126607051D01*
X120698337Y-126607051D02*
X120936432Y-126607051D01*
X120936432Y-126607051D02*
X121031670Y-126654670D01*
X121031670Y-126654670D02*
X121079289Y-126702289D01*
X121079289Y-126702289D02*
X121126908Y-126797527D01*
X121126908Y-126797527D02*
X121126908Y-127035622D01*
X121126908Y-127035622D02*
X121079289Y-127130860D01*
X121079289Y-127130860D02*
X121031670Y-127178480D01*
X121031670Y-127178480D02*
X120936432Y-127226099D01*
X120936432Y-127226099D02*
X120698337Y-127226099D01*
X120698337Y-127226099D02*
X120603099Y-127178480D01*
X120603099Y-127178480D02*
X120555480Y-127130860D01*
X121412623Y-126226099D02*
X121745956Y-127226099D01*
X121745956Y-127226099D02*
X122079289Y-126226099D01*
X120511541Y-80254819D02*
X121130588Y-80254819D01*
X121130588Y-80254819D02*
X120797255Y-80635771D01*
X120797255Y-80635771D02*
X120940112Y-80635771D01*
X120940112Y-80635771D02*
X121035350Y-80683390D01*
X121035350Y-80683390D02*
X121082969Y-80731009D01*
X121082969Y-80731009D02*
X121130588Y-80826247D01*
X121130588Y-80826247D02*
X121130588Y-81064342D01*
X121130588Y-81064342D02*
X121082969Y-81159580D01*
X121082969Y-81159580D02*
X121035350Y-81207200D01*
X121035350Y-81207200D02*
X120940112Y-81254819D01*
X120940112Y-81254819D02*
X120654398Y-81254819D01*
X120654398Y-81254819D02*
X120559160Y-81207200D01*
X120559160Y-81207200D02*
X120511541Y-81159580D01*
X121416303Y-80254819D02*
X121749636Y-81254819D01*
X121749636Y-81254819D02*
X122082969Y-80254819D01*
X122321065Y-80254819D02*
X122940112Y-80254819D01*
X122940112Y-80254819D02*
X122606779Y-80635771D01*
X122606779Y-80635771D02*
X122749636Y-80635771D01*
X122749636Y-80635771D02*
X122844874Y-80683390D01*
X122844874Y-80683390D02*
X122892493Y-80731009D01*
X122892493Y-80731009D02*
X122940112Y-80826247D01*
X122940112Y-80826247D02*
X122940112Y-81064342D01*
X122940112Y-81064342D02*
X122892493Y-81159580D01*
X122892493Y-81159580D02*
X122844874Y-81207200D01*
X122844874Y-81207200D02*
X122749636Y-81254819D01*
X122749636Y-81254819D02*
X122463922Y-81254819D01*
X122463922Y-81254819D02*
X122368684Y-81207200D01*
X122368684Y-81207200D02*
X122321065Y-81159580D01*
X120435350Y-85496033D02*
X120668684Y-86196033D01*
X120668684Y-86196033D02*
X120902017Y-85496033D01*
X121135350Y-86196033D02*
X121135350Y-85496033D01*
X121135350Y-85496033D02*
X121402017Y-85496033D01*
X121402017Y-85496033D02*
X121468684Y-85529366D01*
X121468684Y-85529366D02*
X121502017Y-85562700D01*
X121502017Y-85562700D02*
X121535350Y-85629366D01*
X121535350Y-85629366D02*
X121535350Y-85729366D01*
X121535350Y-85729366D02*
X121502017Y-85796033D01*
X121502017Y-85796033D02*
X121468684Y-85829366D01*
X121468684Y-85829366D02*
X121402017Y-85862700D01*
X121402017Y-85862700D02*
X121135350Y-85862700D01*
X122335350Y-85462700D02*
X121735350Y-86362700D01*
X122935350Y-85529366D02*
X122868683Y-85496033D01*
X122868683Y-85496033D02*
X122768683Y-85496033D01*
X122768683Y-85496033D02*
X122668683Y-85529366D01*
X122668683Y-85529366D02*
X122602017Y-85596033D01*
X122602017Y-85596033D02*
X122568683Y-85662700D01*
X122568683Y-85662700D02*
X122535350Y-85796033D01*
X122535350Y-85796033D02*
X122535350Y-85896033D01*
X122535350Y-85896033D02*
X122568683Y-86029366D01*
X122568683Y-86029366D02*
X122602017Y-86096033D01*
X122602017Y-86096033D02*
X122668683Y-86162700D01*
X122668683Y-86162700D02*
X122768683Y-86196033D01*
X122768683Y-86196033D02*
X122835350Y-86196033D01*
X122835350Y-86196033D02*
X122935350Y-86162700D01*
X122935350Y-86162700D02*
X122968683Y-86129366D01*
X122968683Y-86129366D02*
X122968683Y-85896033D01*
X122968683Y-85896033D02*
X122835350Y-85896033D01*
X123268683Y-86196033D02*
X123268683Y-85496033D01*
X123268683Y-85496033D02*
X123535350Y-85496033D01*
X123535350Y-85496033D02*
X123602017Y-85529366D01*
X123602017Y-85529366D02*
X123635350Y-85562700D01*
X123635350Y-85562700D02*
X123668683Y-85629366D01*
X123668683Y-85629366D02*
X123668683Y-85729366D01*
X123668683Y-85729366D02*
X123635350Y-85796033D01*
X123635350Y-85796033D02*
X123602017Y-85829366D01*
X123602017Y-85829366D02*
X123535350Y-85862700D01*
X123535350Y-85862700D02*
X123268683Y-85862700D01*
X123968683Y-86196033D02*
X123968683Y-85496033D01*
X124435350Y-85496033D02*
X124568683Y-85496033D01*
X124568683Y-85496033D02*
X124635350Y-85529366D01*
X124635350Y-85529366D02*
X124702016Y-85596033D01*
X124702016Y-85596033D02*
X124735350Y-85729366D01*
X124735350Y-85729366D02*
X124735350Y-85962700D01*
X124735350Y-85962700D02*
X124702016Y-86096033D01*
X124702016Y-86096033D02*
X124635350Y-86162700D01*
X124635350Y-86162700D02*
X124568683Y-86196033D01*
X124568683Y-86196033D02*
X124435350Y-86196033D01*
X124435350Y-86196033D02*
X124368683Y-86162700D01*
X124368683Y-86162700D02*
X124302016Y-86096033D01*
X124302016Y-86096033D02*
X124268683Y-85962700D01*
X124268683Y-85962700D02*
X124268683Y-85729366D01*
X124268683Y-85729366D02*
X124302016Y-85596033D01*
X124302016Y-85596033D02*
X124368683Y-85529366D01*
X124368683Y-85529366D02*
X124435350Y-85496033D01*
X124968683Y-85496033D02*
X125402016Y-85496033D01*
X125402016Y-85496033D02*
X125168683Y-85762700D01*
X125168683Y-85762700D02*
X125268683Y-85762700D01*
X125268683Y-85762700D02*
X125335349Y-85796033D01*
X125335349Y-85796033D02*
X125368683Y-85829366D01*
X125368683Y-85829366D02*
X125402016Y-85896033D01*
X125402016Y-85896033D02*
X125402016Y-86062700D01*
X125402016Y-86062700D02*
X125368683Y-86129366D01*
X125368683Y-86129366D02*
X125335349Y-86162700D01*
X125335349Y-86162700D02*
X125268683Y-86196033D01*
X125268683Y-86196033D02*
X125068683Y-86196033D01*
X125068683Y-86196033D02*
X125002016Y-86162700D01*
X125002016Y-86162700D02*
X124968683Y-86129366D01*
X126002016Y-85496033D02*
X125868683Y-85496033D01*
X125868683Y-85496033D02*
X125802016Y-85529366D01*
X125802016Y-85529366D02*
X125768683Y-85562700D01*
X125768683Y-85562700D02*
X125702016Y-85662700D01*
X125702016Y-85662700D02*
X125668683Y-85796033D01*
X125668683Y-85796033D02*
X125668683Y-86062700D01*
X125668683Y-86062700D02*
X125702016Y-86129366D01*
X125702016Y-86129366D02*
X125735350Y-86162700D01*
X125735350Y-86162700D02*
X125802016Y-86196033D01*
X125802016Y-86196033D02*
X125935350Y-86196033D01*
X125935350Y-86196033D02*
X126002016Y-86162700D01*
X126002016Y-86162700D02*
X126035350Y-86129366D01*
X126035350Y-86129366D02*
X126068683Y-86062700D01*
X126068683Y-86062700D02*
X126068683Y-85896033D01*
X126068683Y-85896033D02*
X126035350Y-85829366D01*
X126035350Y-85829366D02*
X126002016Y-85796033D01*
X126002016Y-85796033D02*
X125935350Y-85762700D01*
X125935350Y-85762700D02*
X125802016Y-85762700D01*
X125802016Y-85762700D02*
X125735350Y-85796033D01*
X125735350Y-85796033D02*
X125702016Y-85829366D01*
X125702016Y-85829366D02*
X125668683Y-85896033D01*
X120435350Y-88036033D02*
X120668684Y-88736033D01*
X120668684Y-88736033D02*
X120902017Y-88036033D01*
X121135350Y-88736033D02*
X121135350Y-88036033D01*
X121135350Y-88036033D02*
X121535350Y-88736033D01*
X121535350Y-88736033D02*
X121535350Y-88036033D01*
X122368683Y-88002700D02*
X121768683Y-88902700D01*
X122968683Y-88069366D02*
X122902016Y-88036033D01*
X122902016Y-88036033D02*
X122802016Y-88036033D01*
X122802016Y-88036033D02*
X122702016Y-88069366D01*
X122702016Y-88069366D02*
X122635350Y-88136033D01*
X122635350Y-88136033D02*
X122602016Y-88202700D01*
X122602016Y-88202700D02*
X122568683Y-88336033D01*
X122568683Y-88336033D02*
X122568683Y-88436033D01*
X122568683Y-88436033D02*
X122602016Y-88569366D01*
X122602016Y-88569366D02*
X122635350Y-88636033D01*
X122635350Y-88636033D02*
X122702016Y-88702700D01*
X122702016Y-88702700D02*
X122802016Y-88736033D01*
X122802016Y-88736033D02*
X122868683Y-88736033D01*
X122868683Y-88736033D02*
X122968683Y-88702700D01*
X122968683Y-88702700D02*
X123002016Y-88669366D01*
X123002016Y-88669366D02*
X123002016Y-88436033D01*
X123002016Y-88436033D02*
X122868683Y-88436033D01*
X123302016Y-88736033D02*
X123302016Y-88036033D01*
X123302016Y-88036033D02*
X123568683Y-88036033D01*
X123568683Y-88036033D02*
X123635350Y-88069366D01*
X123635350Y-88069366D02*
X123668683Y-88102700D01*
X123668683Y-88102700D02*
X123702016Y-88169366D01*
X123702016Y-88169366D02*
X123702016Y-88269366D01*
X123702016Y-88269366D02*
X123668683Y-88336033D01*
X123668683Y-88336033D02*
X123635350Y-88369366D01*
X123635350Y-88369366D02*
X123568683Y-88402700D01*
X123568683Y-88402700D02*
X123302016Y-88402700D01*
X124002016Y-88736033D02*
X124002016Y-88036033D01*
X124468683Y-88036033D02*
X124602016Y-88036033D01*
X124602016Y-88036033D02*
X124668683Y-88069366D01*
X124668683Y-88069366D02*
X124735349Y-88136033D01*
X124735349Y-88136033D02*
X124768683Y-88269366D01*
X124768683Y-88269366D02*
X124768683Y-88502700D01*
X124768683Y-88502700D02*
X124735349Y-88636033D01*
X124735349Y-88636033D02*
X124668683Y-88702700D01*
X124668683Y-88702700D02*
X124602016Y-88736033D01*
X124602016Y-88736033D02*
X124468683Y-88736033D01*
X124468683Y-88736033D02*
X124402016Y-88702700D01*
X124402016Y-88702700D02*
X124335349Y-88636033D01*
X124335349Y-88636033D02*
X124302016Y-88502700D01*
X124302016Y-88502700D02*
X124302016Y-88269366D01*
X124302016Y-88269366D02*
X124335349Y-88136033D01*
X124335349Y-88136033D02*
X124402016Y-88069366D01*
X124402016Y-88069366D02*
X124468683Y-88036033D01*
X125002016Y-88036033D02*
X125435349Y-88036033D01*
X125435349Y-88036033D02*
X125202016Y-88302700D01*
X125202016Y-88302700D02*
X125302016Y-88302700D01*
X125302016Y-88302700D02*
X125368682Y-88336033D01*
X125368682Y-88336033D02*
X125402016Y-88369366D01*
X125402016Y-88369366D02*
X125435349Y-88436033D01*
X125435349Y-88436033D02*
X125435349Y-88602700D01*
X125435349Y-88602700D02*
X125402016Y-88669366D01*
X125402016Y-88669366D02*
X125368682Y-88702700D01*
X125368682Y-88702700D02*
X125302016Y-88736033D01*
X125302016Y-88736033D02*
X125102016Y-88736033D01*
X125102016Y-88736033D02*
X125035349Y-88702700D01*
X125035349Y-88702700D02*
X125002016Y-88669366D01*
X125768683Y-88736033D02*
X125902016Y-88736033D01*
X125902016Y-88736033D02*
X125968683Y-88702700D01*
X125968683Y-88702700D02*
X126002016Y-88669366D01*
X126002016Y-88669366D02*
X126068683Y-88569366D01*
X126068683Y-88569366D02*
X126102016Y-88436033D01*
X126102016Y-88436033D02*
X126102016Y-88169366D01*
X126102016Y-88169366D02*
X126068683Y-88102700D01*
X126068683Y-88102700D02*
X126035349Y-88069366D01*
X126035349Y-88069366D02*
X125968683Y-88036033D01*
X125968683Y-88036033D02*
X125835349Y-88036033D01*
X125835349Y-88036033D02*
X125768683Y-88069366D01*
X125768683Y-88069366D02*
X125735349Y-88102700D01*
X125735349Y-88102700D02*
X125702016Y-88169366D01*
X125702016Y-88169366D02*
X125702016Y-88336033D01*
X125702016Y-88336033D02*
X125735349Y-88402700D01*
X125735349Y-88402700D02*
X125768683Y-88436033D01*
X125768683Y-88436033D02*
X125835349Y-88469366D01*
X125835349Y-88469366D02*
X125968683Y-88469366D01*
X125968683Y-88469366D02*
X126035349Y-88436033D01*
X126035349Y-88436033D02*
X126068683Y-88402700D01*
X126068683Y-88402700D02*
X126102016Y-88336033D01*
X120902017Y-90609366D02*
X120835350Y-90576033D01*
X120835350Y-90576033D02*
X120735350Y-90576033D01*
X120735350Y-90576033D02*
X120635350Y-90609366D01*
X120635350Y-90609366D02*
X120568684Y-90676033D01*
X120568684Y-90676033D02*
X120535350Y-90742700D01*
X120535350Y-90742700D02*
X120502017Y-90876033D01*
X120502017Y-90876033D02*
X120502017Y-90976033D01*
X120502017Y-90976033D02*
X120535350Y-91109366D01*
X120535350Y-91109366D02*
X120568684Y-91176033D01*
X120568684Y-91176033D02*
X120635350Y-91242700D01*
X120635350Y-91242700D02*
X120735350Y-91276033D01*
X120735350Y-91276033D02*
X120802017Y-91276033D01*
X120802017Y-91276033D02*
X120902017Y-91242700D01*
X120902017Y-91242700D02*
X120935350Y-91209366D01*
X120935350Y-91209366D02*
X120935350Y-90976033D01*
X120935350Y-90976033D02*
X120802017Y-90976033D01*
X121235350Y-91276033D02*
X121235350Y-90576033D01*
X121235350Y-90576033D02*
X121502017Y-90576033D01*
X121502017Y-90576033D02*
X121568684Y-90609366D01*
X121568684Y-90609366D02*
X121602017Y-90642700D01*
X121602017Y-90642700D02*
X121635350Y-90709366D01*
X121635350Y-90709366D02*
X121635350Y-90809366D01*
X121635350Y-90809366D02*
X121602017Y-90876033D01*
X121602017Y-90876033D02*
X121568684Y-90909366D01*
X121568684Y-90909366D02*
X121502017Y-90942700D01*
X121502017Y-90942700D02*
X121235350Y-90942700D01*
X121935350Y-91276033D02*
X121935350Y-90576033D01*
X122402017Y-90576033D02*
X122535350Y-90576033D01*
X122535350Y-90576033D02*
X122602017Y-90609366D01*
X122602017Y-90609366D02*
X122668683Y-90676033D01*
X122668683Y-90676033D02*
X122702017Y-90809366D01*
X122702017Y-90809366D02*
X122702017Y-91042700D01*
X122702017Y-91042700D02*
X122668683Y-91176033D01*
X122668683Y-91176033D02*
X122602017Y-91242700D01*
X122602017Y-91242700D02*
X122535350Y-91276033D01*
X122535350Y-91276033D02*
X122402017Y-91276033D01*
X122402017Y-91276033D02*
X122335350Y-91242700D01*
X122335350Y-91242700D02*
X122268683Y-91176033D01*
X122268683Y-91176033D02*
X122235350Y-91042700D01*
X122235350Y-91042700D02*
X122235350Y-90809366D01*
X122235350Y-90809366D02*
X122268683Y-90676033D01*
X122268683Y-90676033D02*
X122335350Y-90609366D01*
X122335350Y-90609366D02*
X122402017Y-90576033D01*
X122935350Y-90576033D02*
X123368683Y-90576033D01*
X123368683Y-90576033D02*
X123135350Y-90842700D01*
X123135350Y-90842700D02*
X123235350Y-90842700D01*
X123235350Y-90842700D02*
X123302016Y-90876033D01*
X123302016Y-90876033D02*
X123335350Y-90909366D01*
X123335350Y-90909366D02*
X123368683Y-90976033D01*
X123368683Y-90976033D02*
X123368683Y-91142700D01*
X123368683Y-91142700D02*
X123335350Y-91209366D01*
X123335350Y-91209366D02*
X123302016Y-91242700D01*
X123302016Y-91242700D02*
X123235350Y-91276033D01*
X123235350Y-91276033D02*
X123035350Y-91276033D01*
X123035350Y-91276033D02*
X122968683Y-91242700D01*
X122968683Y-91242700D02*
X122935350Y-91209366D01*
X123968683Y-90809366D02*
X123968683Y-91276033D01*
X123802017Y-90542700D02*
X123635350Y-91042700D01*
X123635350Y-91042700D02*
X124068683Y-91042700D01*
X120902017Y-93149366D02*
X120835350Y-93116033D01*
X120835350Y-93116033D02*
X120735350Y-93116033D01*
X120735350Y-93116033D02*
X120635350Y-93149366D01*
X120635350Y-93149366D02*
X120568684Y-93216033D01*
X120568684Y-93216033D02*
X120535350Y-93282700D01*
X120535350Y-93282700D02*
X120502017Y-93416033D01*
X120502017Y-93416033D02*
X120502017Y-93516033D01*
X120502017Y-93516033D02*
X120535350Y-93649366D01*
X120535350Y-93649366D02*
X120568684Y-93716033D01*
X120568684Y-93716033D02*
X120635350Y-93782700D01*
X120635350Y-93782700D02*
X120735350Y-93816033D01*
X120735350Y-93816033D02*
X120802017Y-93816033D01*
X120802017Y-93816033D02*
X120902017Y-93782700D01*
X120902017Y-93782700D02*
X120935350Y-93749366D01*
X120935350Y-93749366D02*
X120935350Y-93516033D01*
X120935350Y-93516033D02*
X120802017Y-93516033D01*
X121235350Y-93816033D02*
X121235350Y-93116033D01*
X121235350Y-93116033D02*
X121502017Y-93116033D01*
X121502017Y-93116033D02*
X121568684Y-93149366D01*
X121568684Y-93149366D02*
X121602017Y-93182700D01*
X121602017Y-93182700D02*
X121635350Y-93249366D01*
X121635350Y-93249366D02*
X121635350Y-93349366D01*
X121635350Y-93349366D02*
X121602017Y-93416033D01*
X121602017Y-93416033D02*
X121568684Y-93449366D01*
X121568684Y-93449366D02*
X121502017Y-93482700D01*
X121502017Y-93482700D02*
X121235350Y-93482700D01*
X121935350Y-93816033D02*
X121935350Y-93116033D01*
X122402017Y-93116033D02*
X122535350Y-93116033D01*
X122535350Y-93116033D02*
X122602017Y-93149366D01*
X122602017Y-93149366D02*
X122668683Y-93216033D01*
X122668683Y-93216033D02*
X122702017Y-93349366D01*
X122702017Y-93349366D02*
X122702017Y-93582700D01*
X122702017Y-93582700D02*
X122668683Y-93716033D01*
X122668683Y-93716033D02*
X122602017Y-93782700D01*
X122602017Y-93782700D02*
X122535350Y-93816033D01*
X122535350Y-93816033D02*
X122402017Y-93816033D01*
X122402017Y-93816033D02*
X122335350Y-93782700D01*
X122335350Y-93782700D02*
X122268683Y-93716033D01*
X122268683Y-93716033D02*
X122235350Y-93582700D01*
X122235350Y-93582700D02*
X122235350Y-93349366D01*
X122235350Y-93349366D02*
X122268683Y-93216033D01*
X122268683Y-93216033D02*
X122335350Y-93149366D01*
X122335350Y-93149366D02*
X122402017Y-93116033D01*
X122935350Y-93116033D02*
X123368683Y-93116033D01*
X123368683Y-93116033D02*
X123135350Y-93382700D01*
X123135350Y-93382700D02*
X123235350Y-93382700D01*
X123235350Y-93382700D02*
X123302016Y-93416033D01*
X123302016Y-93416033D02*
X123335350Y-93449366D01*
X123335350Y-93449366D02*
X123368683Y-93516033D01*
X123368683Y-93516033D02*
X123368683Y-93682700D01*
X123368683Y-93682700D02*
X123335350Y-93749366D01*
X123335350Y-93749366D02*
X123302016Y-93782700D01*
X123302016Y-93782700D02*
X123235350Y-93816033D01*
X123235350Y-93816033D02*
X123035350Y-93816033D01*
X123035350Y-93816033D02*
X122968683Y-93782700D01*
X122968683Y-93782700D02*
X122935350Y-93749366D01*
X124002017Y-93116033D02*
X123668683Y-93116033D01*
X123668683Y-93116033D02*
X123635350Y-93449366D01*
X123635350Y-93449366D02*
X123668683Y-93416033D01*
X123668683Y-93416033D02*
X123735350Y-93382700D01*
X123735350Y-93382700D02*
X123902017Y-93382700D01*
X123902017Y-93382700D02*
X123968683Y-93416033D01*
X123968683Y-93416033D02*
X124002017Y-93449366D01*
X124002017Y-93449366D02*
X124035350Y-93516033D01*
X124035350Y-93516033D02*
X124035350Y-93682700D01*
X124035350Y-93682700D02*
X124002017Y-93749366D01*
X124002017Y-93749366D02*
X123968683Y-93782700D01*
X123968683Y-93782700D02*
X123902017Y-93816033D01*
X123902017Y-93816033D02*
X123735350Y-93816033D01*
X123735350Y-93816033D02*
X123668683Y-93782700D01*
X123668683Y-93782700D02*
X123635350Y-93749366D01*
X120902017Y-95689366D02*
X120835350Y-95656033D01*
X120835350Y-95656033D02*
X120735350Y-95656033D01*
X120735350Y-95656033D02*
X120635350Y-95689366D01*
X120635350Y-95689366D02*
X120568684Y-95756033D01*
X120568684Y-95756033D02*
X120535350Y-95822700D01*
X120535350Y-95822700D02*
X120502017Y-95956033D01*
X120502017Y-95956033D02*
X120502017Y-96056033D01*
X120502017Y-96056033D02*
X120535350Y-96189366D01*
X120535350Y-96189366D02*
X120568684Y-96256033D01*
X120568684Y-96256033D02*
X120635350Y-96322700D01*
X120635350Y-96322700D02*
X120735350Y-96356033D01*
X120735350Y-96356033D02*
X120802017Y-96356033D01*
X120802017Y-96356033D02*
X120902017Y-96322700D01*
X120902017Y-96322700D02*
X120935350Y-96289366D01*
X120935350Y-96289366D02*
X120935350Y-96056033D01*
X120935350Y-96056033D02*
X120802017Y-96056033D01*
X121235350Y-96356033D02*
X121235350Y-95656033D01*
X121235350Y-95656033D02*
X121502017Y-95656033D01*
X121502017Y-95656033D02*
X121568684Y-95689366D01*
X121568684Y-95689366D02*
X121602017Y-95722700D01*
X121602017Y-95722700D02*
X121635350Y-95789366D01*
X121635350Y-95789366D02*
X121635350Y-95889366D01*
X121635350Y-95889366D02*
X121602017Y-95956033D01*
X121602017Y-95956033D02*
X121568684Y-95989366D01*
X121568684Y-95989366D02*
X121502017Y-96022700D01*
X121502017Y-96022700D02*
X121235350Y-96022700D01*
X121935350Y-96356033D02*
X121935350Y-95656033D01*
X122402017Y-95656033D02*
X122535350Y-95656033D01*
X122535350Y-95656033D02*
X122602017Y-95689366D01*
X122602017Y-95689366D02*
X122668683Y-95756033D01*
X122668683Y-95756033D02*
X122702017Y-95889366D01*
X122702017Y-95889366D02*
X122702017Y-96122700D01*
X122702017Y-96122700D02*
X122668683Y-96256033D01*
X122668683Y-96256033D02*
X122602017Y-96322700D01*
X122602017Y-96322700D02*
X122535350Y-96356033D01*
X122535350Y-96356033D02*
X122402017Y-96356033D01*
X122402017Y-96356033D02*
X122335350Y-96322700D01*
X122335350Y-96322700D02*
X122268683Y-96256033D01*
X122268683Y-96256033D02*
X122235350Y-96122700D01*
X122235350Y-96122700D02*
X122235350Y-95889366D01*
X122235350Y-95889366D02*
X122268683Y-95756033D01*
X122268683Y-95756033D02*
X122335350Y-95689366D01*
X122335350Y-95689366D02*
X122402017Y-95656033D01*
X122935350Y-95656033D02*
X123368683Y-95656033D01*
X123368683Y-95656033D02*
X123135350Y-95922700D01*
X123135350Y-95922700D02*
X123235350Y-95922700D01*
X123235350Y-95922700D02*
X123302016Y-95956033D01*
X123302016Y-95956033D02*
X123335350Y-95989366D01*
X123335350Y-95989366D02*
X123368683Y-96056033D01*
X123368683Y-96056033D02*
X123368683Y-96222700D01*
X123368683Y-96222700D02*
X123335350Y-96289366D01*
X123335350Y-96289366D02*
X123302016Y-96322700D01*
X123302016Y-96322700D02*
X123235350Y-96356033D01*
X123235350Y-96356033D02*
X123035350Y-96356033D01*
X123035350Y-96356033D02*
X122968683Y-96322700D01*
X122968683Y-96322700D02*
X122935350Y-96289366D01*
X123635350Y-95722700D02*
X123668683Y-95689366D01*
X123668683Y-95689366D02*
X123735350Y-95656033D01*
X123735350Y-95656033D02*
X123902017Y-95656033D01*
X123902017Y-95656033D02*
X123968683Y-95689366D01*
X123968683Y-95689366D02*
X124002017Y-95722700D01*
X124002017Y-95722700D02*
X124035350Y-95789366D01*
X124035350Y-95789366D02*
X124035350Y-95856033D01*
X124035350Y-95856033D02*
X124002017Y-95956033D01*
X124002017Y-95956033D02*
X123602017Y-96356033D01*
X123602017Y-96356033D02*
X124035350Y-96356033D01*
X120902017Y-98229366D02*
X120835350Y-98196033D01*
X120835350Y-98196033D02*
X120735350Y-98196033D01*
X120735350Y-98196033D02*
X120635350Y-98229366D01*
X120635350Y-98229366D02*
X120568684Y-98296033D01*
X120568684Y-98296033D02*
X120535350Y-98362700D01*
X120535350Y-98362700D02*
X120502017Y-98496033D01*
X120502017Y-98496033D02*
X120502017Y-98596033D01*
X120502017Y-98596033D02*
X120535350Y-98729366D01*
X120535350Y-98729366D02*
X120568684Y-98796033D01*
X120568684Y-98796033D02*
X120635350Y-98862700D01*
X120635350Y-98862700D02*
X120735350Y-98896033D01*
X120735350Y-98896033D02*
X120802017Y-98896033D01*
X120802017Y-98896033D02*
X120902017Y-98862700D01*
X120902017Y-98862700D02*
X120935350Y-98829366D01*
X120935350Y-98829366D02*
X120935350Y-98596033D01*
X120935350Y-98596033D02*
X120802017Y-98596033D01*
X121235350Y-98896033D02*
X121235350Y-98196033D01*
X121235350Y-98196033D02*
X121502017Y-98196033D01*
X121502017Y-98196033D02*
X121568684Y-98229366D01*
X121568684Y-98229366D02*
X121602017Y-98262700D01*
X121602017Y-98262700D02*
X121635350Y-98329366D01*
X121635350Y-98329366D02*
X121635350Y-98429366D01*
X121635350Y-98429366D02*
X121602017Y-98496033D01*
X121602017Y-98496033D02*
X121568684Y-98529366D01*
X121568684Y-98529366D02*
X121502017Y-98562700D01*
X121502017Y-98562700D02*
X121235350Y-98562700D01*
X121935350Y-98896033D02*
X121935350Y-98196033D01*
X122402017Y-98196033D02*
X122535350Y-98196033D01*
X122535350Y-98196033D02*
X122602017Y-98229366D01*
X122602017Y-98229366D02*
X122668683Y-98296033D01*
X122668683Y-98296033D02*
X122702017Y-98429366D01*
X122702017Y-98429366D02*
X122702017Y-98662700D01*
X122702017Y-98662700D02*
X122668683Y-98796033D01*
X122668683Y-98796033D02*
X122602017Y-98862700D01*
X122602017Y-98862700D02*
X122535350Y-98896033D01*
X122535350Y-98896033D02*
X122402017Y-98896033D01*
X122402017Y-98896033D02*
X122335350Y-98862700D01*
X122335350Y-98862700D02*
X122268683Y-98796033D01*
X122268683Y-98796033D02*
X122235350Y-98662700D01*
X122235350Y-98662700D02*
X122235350Y-98429366D01*
X122235350Y-98429366D02*
X122268683Y-98296033D01*
X122268683Y-98296033D02*
X122335350Y-98229366D01*
X122335350Y-98229366D02*
X122402017Y-98196033D01*
X122935350Y-98196033D02*
X123368683Y-98196033D01*
X123368683Y-98196033D02*
X123135350Y-98462700D01*
X123135350Y-98462700D02*
X123235350Y-98462700D01*
X123235350Y-98462700D02*
X123302016Y-98496033D01*
X123302016Y-98496033D02*
X123335350Y-98529366D01*
X123335350Y-98529366D02*
X123368683Y-98596033D01*
X123368683Y-98596033D02*
X123368683Y-98762700D01*
X123368683Y-98762700D02*
X123335350Y-98829366D01*
X123335350Y-98829366D02*
X123302016Y-98862700D01*
X123302016Y-98862700D02*
X123235350Y-98896033D01*
X123235350Y-98896033D02*
X123035350Y-98896033D01*
X123035350Y-98896033D02*
X122968683Y-98862700D01*
X122968683Y-98862700D02*
X122935350Y-98829366D01*
X123602017Y-98196033D02*
X124035350Y-98196033D01*
X124035350Y-98196033D02*
X123802017Y-98462700D01*
X123802017Y-98462700D02*
X123902017Y-98462700D01*
X123902017Y-98462700D02*
X123968683Y-98496033D01*
X123968683Y-98496033D02*
X124002017Y-98529366D01*
X124002017Y-98529366D02*
X124035350Y-98596033D01*
X124035350Y-98596033D02*
X124035350Y-98762700D01*
X124035350Y-98762700D02*
X124002017Y-98829366D01*
X124002017Y-98829366D02*
X123968683Y-98862700D01*
X123968683Y-98862700D02*
X123902017Y-98896033D01*
X123902017Y-98896033D02*
X123702017Y-98896033D01*
X123702017Y-98896033D02*
X123635350Y-98862700D01*
X123635350Y-98862700D02*
X123602017Y-98829366D01*
X120902017Y-100769366D02*
X120835350Y-100736033D01*
X120835350Y-100736033D02*
X120735350Y-100736033D01*
X120735350Y-100736033D02*
X120635350Y-100769366D01*
X120635350Y-100769366D02*
X120568684Y-100836033D01*
X120568684Y-100836033D02*
X120535350Y-100902700D01*
X120535350Y-100902700D02*
X120502017Y-101036033D01*
X120502017Y-101036033D02*
X120502017Y-101136033D01*
X120502017Y-101136033D02*
X120535350Y-101269366D01*
X120535350Y-101269366D02*
X120568684Y-101336033D01*
X120568684Y-101336033D02*
X120635350Y-101402700D01*
X120635350Y-101402700D02*
X120735350Y-101436033D01*
X120735350Y-101436033D02*
X120802017Y-101436033D01*
X120802017Y-101436033D02*
X120902017Y-101402700D01*
X120902017Y-101402700D02*
X120935350Y-101369366D01*
X120935350Y-101369366D02*
X120935350Y-101136033D01*
X120935350Y-101136033D02*
X120802017Y-101136033D01*
X121235350Y-101436033D02*
X121235350Y-100736033D01*
X121235350Y-100736033D02*
X121502017Y-100736033D01*
X121502017Y-100736033D02*
X121568684Y-100769366D01*
X121568684Y-100769366D02*
X121602017Y-100802700D01*
X121602017Y-100802700D02*
X121635350Y-100869366D01*
X121635350Y-100869366D02*
X121635350Y-100969366D01*
X121635350Y-100969366D02*
X121602017Y-101036033D01*
X121602017Y-101036033D02*
X121568684Y-101069366D01*
X121568684Y-101069366D02*
X121502017Y-101102700D01*
X121502017Y-101102700D02*
X121235350Y-101102700D01*
X121935350Y-101436033D02*
X121935350Y-100736033D01*
X122402017Y-100736033D02*
X122535350Y-100736033D01*
X122535350Y-100736033D02*
X122602017Y-100769366D01*
X122602017Y-100769366D02*
X122668683Y-100836033D01*
X122668683Y-100836033D02*
X122702017Y-100969366D01*
X122702017Y-100969366D02*
X122702017Y-101202700D01*
X122702017Y-101202700D02*
X122668683Y-101336033D01*
X122668683Y-101336033D02*
X122602017Y-101402700D01*
X122602017Y-101402700D02*
X122535350Y-101436033D01*
X122535350Y-101436033D02*
X122402017Y-101436033D01*
X122402017Y-101436033D02*
X122335350Y-101402700D01*
X122335350Y-101402700D02*
X122268683Y-101336033D01*
X122268683Y-101336033D02*
X122235350Y-101202700D01*
X122235350Y-101202700D02*
X122235350Y-100969366D01*
X122235350Y-100969366D02*
X122268683Y-100836033D01*
X122268683Y-100836033D02*
X122335350Y-100769366D01*
X122335350Y-100769366D02*
X122402017Y-100736033D01*
X122968683Y-100802700D02*
X123002016Y-100769366D01*
X123002016Y-100769366D02*
X123068683Y-100736033D01*
X123068683Y-100736033D02*
X123235350Y-100736033D01*
X123235350Y-100736033D02*
X123302016Y-100769366D01*
X123302016Y-100769366D02*
X123335350Y-100802700D01*
X123335350Y-100802700D02*
X123368683Y-100869366D01*
X123368683Y-100869366D02*
X123368683Y-100936033D01*
X123368683Y-100936033D02*
X123335350Y-101036033D01*
X123335350Y-101036033D02*
X122935350Y-101436033D01*
X122935350Y-101436033D02*
X123368683Y-101436033D01*
X124002017Y-100736033D02*
X123668683Y-100736033D01*
X123668683Y-100736033D02*
X123635350Y-101069366D01*
X123635350Y-101069366D02*
X123668683Y-101036033D01*
X123668683Y-101036033D02*
X123735350Y-101002700D01*
X123735350Y-101002700D02*
X123902017Y-101002700D01*
X123902017Y-101002700D02*
X123968683Y-101036033D01*
X123968683Y-101036033D02*
X124002017Y-101069366D01*
X124002017Y-101069366D02*
X124035350Y-101136033D01*
X124035350Y-101136033D02*
X124035350Y-101302700D01*
X124035350Y-101302700D02*
X124002017Y-101369366D01*
X124002017Y-101369366D02*
X123968683Y-101402700D01*
X123968683Y-101402700D02*
X123902017Y-101436033D01*
X123902017Y-101436033D02*
X123735350Y-101436033D01*
X123735350Y-101436033D02*
X123668683Y-101402700D01*
X123668683Y-101402700D02*
X123635350Y-101369366D01*
X120902017Y-103309366D02*
X120835350Y-103276033D01*
X120835350Y-103276033D02*
X120735350Y-103276033D01*
X120735350Y-103276033D02*
X120635350Y-103309366D01*
X120635350Y-103309366D02*
X120568684Y-103376033D01*
X120568684Y-103376033D02*
X120535350Y-103442700D01*
X120535350Y-103442700D02*
X120502017Y-103576033D01*
X120502017Y-103576033D02*
X120502017Y-103676033D01*
X120502017Y-103676033D02*
X120535350Y-103809366D01*
X120535350Y-103809366D02*
X120568684Y-103876033D01*
X120568684Y-103876033D02*
X120635350Y-103942700D01*
X120635350Y-103942700D02*
X120735350Y-103976033D01*
X120735350Y-103976033D02*
X120802017Y-103976033D01*
X120802017Y-103976033D02*
X120902017Y-103942700D01*
X120902017Y-103942700D02*
X120935350Y-103909366D01*
X120935350Y-103909366D02*
X120935350Y-103676033D01*
X120935350Y-103676033D02*
X120802017Y-103676033D01*
X121235350Y-103976033D02*
X121235350Y-103276033D01*
X121235350Y-103276033D02*
X121502017Y-103276033D01*
X121502017Y-103276033D02*
X121568684Y-103309366D01*
X121568684Y-103309366D02*
X121602017Y-103342700D01*
X121602017Y-103342700D02*
X121635350Y-103409366D01*
X121635350Y-103409366D02*
X121635350Y-103509366D01*
X121635350Y-103509366D02*
X121602017Y-103576033D01*
X121602017Y-103576033D02*
X121568684Y-103609366D01*
X121568684Y-103609366D02*
X121502017Y-103642700D01*
X121502017Y-103642700D02*
X121235350Y-103642700D01*
X121935350Y-103976033D02*
X121935350Y-103276033D01*
X122402017Y-103276033D02*
X122535350Y-103276033D01*
X122535350Y-103276033D02*
X122602017Y-103309366D01*
X122602017Y-103309366D02*
X122668683Y-103376033D01*
X122668683Y-103376033D02*
X122702017Y-103509366D01*
X122702017Y-103509366D02*
X122702017Y-103742700D01*
X122702017Y-103742700D02*
X122668683Y-103876033D01*
X122668683Y-103876033D02*
X122602017Y-103942700D01*
X122602017Y-103942700D02*
X122535350Y-103976033D01*
X122535350Y-103976033D02*
X122402017Y-103976033D01*
X122402017Y-103976033D02*
X122335350Y-103942700D01*
X122335350Y-103942700D02*
X122268683Y-103876033D01*
X122268683Y-103876033D02*
X122235350Y-103742700D01*
X122235350Y-103742700D02*
X122235350Y-103509366D01*
X122235350Y-103509366D02*
X122268683Y-103376033D01*
X122268683Y-103376033D02*
X122335350Y-103309366D01*
X122335350Y-103309366D02*
X122402017Y-103276033D01*
X122968683Y-103342700D02*
X123002016Y-103309366D01*
X123002016Y-103309366D02*
X123068683Y-103276033D01*
X123068683Y-103276033D02*
X123235350Y-103276033D01*
X123235350Y-103276033D02*
X123302016Y-103309366D01*
X123302016Y-103309366D02*
X123335350Y-103342700D01*
X123335350Y-103342700D02*
X123368683Y-103409366D01*
X123368683Y-103409366D02*
X123368683Y-103476033D01*
X123368683Y-103476033D02*
X123335350Y-103576033D01*
X123335350Y-103576033D02*
X122935350Y-103976033D01*
X122935350Y-103976033D02*
X123368683Y-103976033D01*
X123968683Y-103276033D02*
X123835350Y-103276033D01*
X123835350Y-103276033D02*
X123768683Y-103309366D01*
X123768683Y-103309366D02*
X123735350Y-103342700D01*
X123735350Y-103342700D02*
X123668683Y-103442700D01*
X123668683Y-103442700D02*
X123635350Y-103576033D01*
X123635350Y-103576033D02*
X123635350Y-103842700D01*
X123635350Y-103842700D02*
X123668683Y-103909366D01*
X123668683Y-103909366D02*
X123702017Y-103942700D01*
X123702017Y-103942700D02*
X123768683Y-103976033D01*
X123768683Y-103976033D02*
X123902017Y-103976033D01*
X123902017Y-103976033D02*
X123968683Y-103942700D01*
X123968683Y-103942700D02*
X124002017Y-103909366D01*
X124002017Y-103909366D02*
X124035350Y-103842700D01*
X124035350Y-103842700D02*
X124035350Y-103676033D01*
X124035350Y-103676033D02*
X124002017Y-103609366D01*
X124002017Y-103609366D02*
X123968683Y-103576033D01*
X123968683Y-103576033D02*
X123902017Y-103542700D01*
X123902017Y-103542700D02*
X123768683Y-103542700D01*
X123768683Y-103542700D02*
X123702017Y-103576033D01*
X123702017Y-103576033D02*
X123668683Y-103609366D01*
X123668683Y-103609366D02*
X123635350Y-103676033D01*
X120902017Y-105849366D02*
X120835350Y-105816033D01*
X120835350Y-105816033D02*
X120735350Y-105816033D01*
X120735350Y-105816033D02*
X120635350Y-105849366D01*
X120635350Y-105849366D02*
X120568684Y-105916033D01*
X120568684Y-105916033D02*
X120535350Y-105982700D01*
X120535350Y-105982700D02*
X120502017Y-106116033D01*
X120502017Y-106116033D02*
X120502017Y-106216033D01*
X120502017Y-106216033D02*
X120535350Y-106349366D01*
X120535350Y-106349366D02*
X120568684Y-106416033D01*
X120568684Y-106416033D02*
X120635350Y-106482700D01*
X120635350Y-106482700D02*
X120735350Y-106516033D01*
X120735350Y-106516033D02*
X120802017Y-106516033D01*
X120802017Y-106516033D02*
X120902017Y-106482700D01*
X120902017Y-106482700D02*
X120935350Y-106449366D01*
X120935350Y-106449366D02*
X120935350Y-106216033D01*
X120935350Y-106216033D02*
X120802017Y-106216033D01*
X121235350Y-106516033D02*
X121235350Y-105816033D01*
X121235350Y-105816033D02*
X121502017Y-105816033D01*
X121502017Y-105816033D02*
X121568684Y-105849366D01*
X121568684Y-105849366D02*
X121602017Y-105882700D01*
X121602017Y-105882700D02*
X121635350Y-105949366D01*
X121635350Y-105949366D02*
X121635350Y-106049366D01*
X121635350Y-106049366D02*
X121602017Y-106116033D01*
X121602017Y-106116033D02*
X121568684Y-106149366D01*
X121568684Y-106149366D02*
X121502017Y-106182700D01*
X121502017Y-106182700D02*
X121235350Y-106182700D01*
X121935350Y-106516033D02*
X121935350Y-105816033D01*
X122402017Y-105816033D02*
X122535350Y-105816033D01*
X122535350Y-105816033D02*
X122602017Y-105849366D01*
X122602017Y-105849366D02*
X122668683Y-105916033D01*
X122668683Y-105916033D02*
X122702017Y-106049366D01*
X122702017Y-106049366D02*
X122702017Y-106282700D01*
X122702017Y-106282700D02*
X122668683Y-106416033D01*
X122668683Y-106416033D02*
X122602017Y-106482700D01*
X122602017Y-106482700D02*
X122535350Y-106516033D01*
X122535350Y-106516033D02*
X122402017Y-106516033D01*
X122402017Y-106516033D02*
X122335350Y-106482700D01*
X122335350Y-106482700D02*
X122268683Y-106416033D01*
X122268683Y-106416033D02*
X122235350Y-106282700D01*
X122235350Y-106282700D02*
X122235350Y-106049366D01*
X122235350Y-106049366D02*
X122268683Y-105916033D01*
X122268683Y-105916033D02*
X122335350Y-105849366D01*
X122335350Y-105849366D02*
X122402017Y-105816033D01*
X122968683Y-105882700D02*
X123002016Y-105849366D01*
X123002016Y-105849366D02*
X123068683Y-105816033D01*
X123068683Y-105816033D02*
X123235350Y-105816033D01*
X123235350Y-105816033D02*
X123302016Y-105849366D01*
X123302016Y-105849366D02*
X123335350Y-105882700D01*
X123335350Y-105882700D02*
X123368683Y-105949366D01*
X123368683Y-105949366D02*
X123368683Y-106016033D01*
X123368683Y-106016033D02*
X123335350Y-106116033D01*
X123335350Y-106116033D02*
X122935350Y-106516033D01*
X122935350Y-106516033D02*
X123368683Y-106516033D01*
X123602017Y-105816033D02*
X124068683Y-105816033D01*
X124068683Y-105816033D02*
X123768683Y-106516033D01*
X120902017Y-108389366D02*
X120835350Y-108356033D01*
X120835350Y-108356033D02*
X120735350Y-108356033D01*
X120735350Y-108356033D02*
X120635350Y-108389366D01*
X120635350Y-108389366D02*
X120568684Y-108456033D01*
X120568684Y-108456033D02*
X120535350Y-108522700D01*
X120535350Y-108522700D02*
X120502017Y-108656033D01*
X120502017Y-108656033D02*
X120502017Y-108756033D01*
X120502017Y-108756033D02*
X120535350Y-108889366D01*
X120535350Y-108889366D02*
X120568684Y-108956033D01*
X120568684Y-108956033D02*
X120635350Y-109022700D01*
X120635350Y-109022700D02*
X120735350Y-109056033D01*
X120735350Y-109056033D02*
X120802017Y-109056033D01*
X120802017Y-109056033D02*
X120902017Y-109022700D01*
X120902017Y-109022700D02*
X120935350Y-108989366D01*
X120935350Y-108989366D02*
X120935350Y-108756033D01*
X120935350Y-108756033D02*
X120802017Y-108756033D01*
X121235350Y-109056033D02*
X121235350Y-108356033D01*
X121235350Y-108356033D02*
X121502017Y-108356033D01*
X121502017Y-108356033D02*
X121568684Y-108389366D01*
X121568684Y-108389366D02*
X121602017Y-108422700D01*
X121602017Y-108422700D02*
X121635350Y-108489366D01*
X121635350Y-108489366D02*
X121635350Y-108589366D01*
X121635350Y-108589366D02*
X121602017Y-108656033D01*
X121602017Y-108656033D02*
X121568684Y-108689366D01*
X121568684Y-108689366D02*
X121502017Y-108722700D01*
X121502017Y-108722700D02*
X121235350Y-108722700D01*
X121935350Y-109056033D02*
X121935350Y-108356033D01*
X122402017Y-108356033D02*
X122535350Y-108356033D01*
X122535350Y-108356033D02*
X122602017Y-108389366D01*
X122602017Y-108389366D02*
X122668683Y-108456033D01*
X122668683Y-108456033D02*
X122702017Y-108589366D01*
X122702017Y-108589366D02*
X122702017Y-108822700D01*
X122702017Y-108822700D02*
X122668683Y-108956033D01*
X122668683Y-108956033D02*
X122602017Y-109022700D01*
X122602017Y-109022700D02*
X122535350Y-109056033D01*
X122535350Y-109056033D02*
X122402017Y-109056033D01*
X122402017Y-109056033D02*
X122335350Y-109022700D01*
X122335350Y-109022700D02*
X122268683Y-108956033D01*
X122268683Y-108956033D02*
X122235350Y-108822700D01*
X122235350Y-108822700D02*
X122235350Y-108589366D01*
X122235350Y-108589366D02*
X122268683Y-108456033D01*
X122268683Y-108456033D02*
X122335350Y-108389366D01*
X122335350Y-108389366D02*
X122402017Y-108356033D01*
X123368683Y-109056033D02*
X122968683Y-109056033D01*
X123168683Y-109056033D02*
X123168683Y-108356033D01*
X123168683Y-108356033D02*
X123102016Y-108456033D01*
X123102016Y-108456033D02*
X123035350Y-108522700D01*
X123035350Y-108522700D02*
X122968683Y-108556033D01*
X123968683Y-108589366D02*
X123968683Y-109056033D01*
X123802017Y-108322700D02*
X123635350Y-108822700D01*
X123635350Y-108822700D02*
X124068683Y-108822700D01*
X124835350Y-108322700D02*
X124235350Y-109222700D01*
X125068683Y-109056033D02*
X125068683Y-108356033D01*
X125068683Y-108356033D02*
X125302017Y-108856033D01*
X125302017Y-108856033D02*
X125535350Y-108356033D01*
X125535350Y-108356033D02*
X125535350Y-109056033D01*
X125768683Y-108356033D02*
X126168683Y-108356033D01*
X125968683Y-109056033D02*
X125968683Y-108356033D01*
X126402016Y-109056033D02*
X126402016Y-108356033D01*
X126402016Y-108356033D02*
X126635350Y-108856033D01*
X126635350Y-108856033D02*
X126868683Y-108356033D01*
X126868683Y-108356033D02*
X126868683Y-109056033D01*
X127168683Y-109022700D02*
X127268683Y-109056033D01*
X127268683Y-109056033D02*
X127435350Y-109056033D01*
X127435350Y-109056033D02*
X127502016Y-109022700D01*
X127502016Y-109022700D02*
X127535350Y-108989366D01*
X127535350Y-108989366D02*
X127568683Y-108922700D01*
X127568683Y-108922700D02*
X127568683Y-108856033D01*
X127568683Y-108856033D02*
X127535350Y-108789366D01*
X127535350Y-108789366D02*
X127502016Y-108756033D01*
X127502016Y-108756033D02*
X127435350Y-108722700D01*
X127435350Y-108722700D02*
X127302016Y-108689366D01*
X127302016Y-108689366D02*
X127235350Y-108656033D01*
X127235350Y-108656033D02*
X127202016Y-108622700D01*
X127202016Y-108622700D02*
X127168683Y-108556033D01*
X127168683Y-108556033D02*
X127168683Y-108489366D01*
X127168683Y-108489366D02*
X127202016Y-108422700D01*
X127202016Y-108422700D02*
X127235350Y-108389366D01*
X127235350Y-108389366D02*
X127302016Y-108356033D01*
X127302016Y-108356033D02*
X127468683Y-108356033D01*
X127468683Y-108356033D02*
X127568683Y-108389366D01*
X120902017Y-110929366D02*
X120835350Y-110896033D01*
X120835350Y-110896033D02*
X120735350Y-110896033D01*
X120735350Y-110896033D02*
X120635350Y-110929366D01*
X120635350Y-110929366D02*
X120568684Y-110996033D01*
X120568684Y-110996033D02*
X120535350Y-111062700D01*
X120535350Y-111062700D02*
X120502017Y-111196033D01*
X120502017Y-111196033D02*
X120502017Y-111296033D01*
X120502017Y-111296033D02*
X120535350Y-111429366D01*
X120535350Y-111429366D02*
X120568684Y-111496033D01*
X120568684Y-111496033D02*
X120635350Y-111562700D01*
X120635350Y-111562700D02*
X120735350Y-111596033D01*
X120735350Y-111596033D02*
X120802017Y-111596033D01*
X120802017Y-111596033D02*
X120902017Y-111562700D01*
X120902017Y-111562700D02*
X120935350Y-111529366D01*
X120935350Y-111529366D02*
X120935350Y-111296033D01*
X120935350Y-111296033D02*
X120802017Y-111296033D01*
X121235350Y-111596033D02*
X121235350Y-110896033D01*
X121235350Y-110896033D02*
X121502017Y-110896033D01*
X121502017Y-110896033D02*
X121568684Y-110929366D01*
X121568684Y-110929366D02*
X121602017Y-110962700D01*
X121602017Y-110962700D02*
X121635350Y-111029366D01*
X121635350Y-111029366D02*
X121635350Y-111129366D01*
X121635350Y-111129366D02*
X121602017Y-111196033D01*
X121602017Y-111196033D02*
X121568684Y-111229366D01*
X121568684Y-111229366D02*
X121502017Y-111262700D01*
X121502017Y-111262700D02*
X121235350Y-111262700D01*
X121935350Y-111596033D02*
X121935350Y-110896033D01*
X122402017Y-110896033D02*
X122535350Y-110896033D01*
X122535350Y-110896033D02*
X122602017Y-110929366D01*
X122602017Y-110929366D02*
X122668683Y-110996033D01*
X122668683Y-110996033D02*
X122702017Y-111129366D01*
X122702017Y-111129366D02*
X122702017Y-111362700D01*
X122702017Y-111362700D02*
X122668683Y-111496033D01*
X122668683Y-111496033D02*
X122602017Y-111562700D01*
X122602017Y-111562700D02*
X122535350Y-111596033D01*
X122535350Y-111596033D02*
X122402017Y-111596033D01*
X122402017Y-111596033D02*
X122335350Y-111562700D01*
X122335350Y-111562700D02*
X122268683Y-111496033D01*
X122268683Y-111496033D02*
X122235350Y-111362700D01*
X122235350Y-111362700D02*
X122235350Y-111129366D01*
X122235350Y-111129366D02*
X122268683Y-110996033D01*
X122268683Y-110996033D02*
X122335350Y-110929366D01*
X122335350Y-110929366D02*
X122402017Y-110896033D01*
X123368683Y-111596033D02*
X122968683Y-111596033D01*
X123168683Y-111596033D02*
X123168683Y-110896033D01*
X123168683Y-110896033D02*
X123102016Y-110996033D01*
X123102016Y-110996033D02*
X123035350Y-111062700D01*
X123035350Y-111062700D02*
X122968683Y-111096033D01*
X123635350Y-110962700D02*
X123668683Y-110929366D01*
X123668683Y-110929366D02*
X123735350Y-110896033D01*
X123735350Y-110896033D02*
X123902017Y-110896033D01*
X123902017Y-110896033D02*
X123968683Y-110929366D01*
X123968683Y-110929366D02*
X124002017Y-110962700D01*
X124002017Y-110962700D02*
X124035350Y-111029366D01*
X124035350Y-111029366D02*
X124035350Y-111096033D01*
X124035350Y-111096033D02*
X124002017Y-111196033D01*
X124002017Y-111196033D02*
X123602017Y-111596033D01*
X123602017Y-111596033D02*
X124035350Y-111596033D01*
X124835350Y-110862700D02*
X124235350Y-111762700D01*
X125068683Y-111596033D02*
X125068683Y-110896033D01*
X125068683Y-110896033D02*
X125302017Y-111396033D01*
X125302017Y-111396033D02*
X125535350Y-110896033D01*
X125535350Y-110896033D02*
X125535350Y-111596033D01*
X125768683Y-110896033D02*
X126168683Y-110896033D01*
X125968683Y-111596033D02*
X125968683Y-110896033D01*
X126402016Y-111596033D02*
X126402016Y-110896033D01*
X126402016Y-110896033D02*
X126568683Y-110896033D01*
X126568683Y-110896033D02*
X126668683Y-110929366D01*
X126668683Y-110929366D02*
X126735350Y-110996033D01*
X126735350Y-110996033D02*
X126768683Y-111062700D01*
X126768683Y-111062700D02*
X126802016Y-111196033D01*
X126802016Y-111196033D02*
X126802016Y-111296033D01*
X126802016Y-111296033D02*
X126768683Y-111429366D01*
X126768683Y-111429366D02*
X126735350Y-111496033D01*
X126735350Y-111496033D02*
X126668683Y-111562700D01*
X126668683Y-111562700D02*
X126568683Y-111596033D01*
X126568683Y-111596033D02*
X126402016Y-111596033D01*
X127102016Y-111596033D02*
X127102016Y-110896033D01*
X121130588Y-113322438D02*
X121035350Y-113274819D01*
X121035350Y-113274819D02*
X120892493Y-113274819D01*
X120892493Y-113274819D02*
X120749636Y-113322438D01*
X120749636Y-113322438D02*
X120654398Y-113417676D01*
X120654398Y-113417676D02*
X120606779Y-113512914D01*
X120606779Y-113512914D02*
X120559160Y-113703390D01*
X120559160Y-113703390D02*
X120559160Y-113846247D01*
X120559160Y-113846247D02*
X120606779Y-114036723D01*
X120606779Y-114036723D02*
X120654398Y-114131961D01*
X120654398Y-114131961D02*
X120749636Y-114227200D01*
X120749636Y-114227200D02*
X120892493Y-114274819D01*
X120892493Y-114274819D02*
X120987731Y-114274819D01*
X120987731Y-114274819D02*
X121130588Y-114227200D01*
X121130588Y-114227200D02*
X121178207Y-114179580D01*
X121178207Y-114179580D02*
X121178207Y-113846247D01*
X121178207Y-113846247D02*
X120987731Y-113846247D01*
X121606779Y-114274819D02*
X121606779Y-113274819D01*
X121606779Y-113274819D02*
X122178207Y-114274819D01*
X122178207Y-114274819D02*
X122178207Y-113274819D01*
X122654398Y-114274819D02*
X122654398Y-113274819D01*
X122654398Y-113274819D02*
X122892493Y-113274819D01*
X122892493Y-113274819D02*
X123035350Y-113322438D01*
X123035350Y-113322438D02*
X123130588Y-113417676D01*
X123130588Y-113417676D02*
X123178207Y-113512914D01*
X123178207Y-113512914D02*
X123225826Y-113703390D01*
X123225826Y-113703390D02*
X123225826Y-113846247D01*
X123225826Y-113846247D02*
X123178207Y-114036723D01*
X123178207Y-114036723D02*
X123130588Y-114131961D01*
X123130588Y-114131961D02*
X123035350Y-114227200D01*
X123035350Y-114227200D02*
X122892493Y-114274819D01*
X122892493Y-114274819D02*
X122654398Y-114274819D01*
X120902017Y-116009366D02*
X120835350Y-115976033D01*
X120835350Y-115976033D02*
X120735350Y-115976033D01*
X120735350Y-115976033D02*
X120635350Y-116009366D01*
X120635350Y-116009366D02*
X120568684Y-116076033D01*
X120568684Y-116076033D02*
X120535350Y-116142700D01*
X120535350Y-116142700D02*
X120502017Y-116276033D01*
X120502017Y-116276033D02*
X120502017Y-116376033D01*
X120502017Y-116376033D02*
X120535350Y-116509366D01*
X120535350Y-116509366D02*
X120568684Y-116576033D01*
X120568684Y-116576033D02*
X120635350Y-116642700D01*
X120635350Y-116642700D02*
X120735350Y-116676033D01*
X120735350Y-116676033D02*
X120802017Y-116676033D01*
X120802017Y-116676033D02*
X120902017Y-116642700D01*
X120902017Y-116642700D02*
X120935350Y-116609366D01*
X120935350Y-116609366D02*
X120935350Y-116376033D01*
X120935350Y-116376033D02*
X120802017Y-116376033D01*
X121235350Y-116676033D02*
X121235350Y-115976033D01*
X121235350Y-115976033D02*
X121502017Y-115976033D01*
X121502017Y-115976033D02*
X121568684Y-116009366D01*
X121568684Y-116009366D02*
X121602017Y-116042700D01*
X121602017Y-116042700D02*
X121635350Y-116109366D01*
X121635350Y-116109366D02*
X121635350Y-116209366D01*
X121635350Y-116209366D02*
X121602017Y-116276033D01*
X121602017Y-116276033D02*
X121568684Y-116309366D01*
X121568684Y-116309366D02*
X121502017Y-116342700D01*
X121502017Y-116342700D02*
X121235350Y-116342700D01*
X121935350Y-116676033D02*
X121935350Y-115976033D01*
X122402017Y-115976033D02*
X122535350Y-115976033D01*
X122535350Y-115976033D02*
X122602017Y-116009366D01*
X122602017Y-116009366D02*
X122668683Y-116076033D01*
X122668683Y-116076033D02*
X122702017Y-116209366D01*
X122702017Y-116209366D02*
X122702017Y-116442700D01*
X122702017Y-116442700D02*
X122668683Y-116576033D01*
X122668683Y-116576033D02*
X122602017Y-116642700D01*
X122602017Y-116642700D02*
X122535350Y-116676033D01*
X122535350Y-116676033D02*
X122402017Y-116676033D01*
X122402017Y-116676033D02*
X122335350Y-116642700D01*
X122335350Y-116642700D02*
X122268683Y-116576033D01*
X122268683Y-116576033D02*
X122235350Y-116442700D01*
X122235350Y-116442700D02*
X122235350Y-116209366D01*
X122235350Y-116209366D02*
X122268683Y-116076033D01*
X122268683Y-116076033D02*
X122335350Y-116009366D01*
X122335350Y-116009366D02*
X122402017Y-115976033D01*
X123368683Y-116676033D02*
X122968683Y-116676033D01*
X123168683Y-116676033D02*
X123168683Y-115976033D01*
X123168683Y-115976033D02*
X123102016Y-116076033D01*
X123102016Y-116076033D02*
X123035350Y-116142700D01*
X123035350Y-116142700D02*
X122968683Y-116176033D01*
X123602017Y-115976033D02*
X124035350Y-115976033D01*
X124035350Y-115976033D02*
X123802017Y-116242700D01*
X123802017Y-116242700D02*
X123902017Y-116242700D01*
X123902017Y-116242700D02*
X123968683Y-116276033D01*
X123968683Y-116276033D02*
X124002017Y-116309366D01*
X124002017Y-116309366D02*
X124035350Y-116376033D01*
X124035350Y-116376033D02*
X124035350Y-116542700D01*
X124035350Y-116542700D02*
X124002017Y-116609366D01*
X124002017Y-116609366D02*
X123968683Y-116642700D01*
X123968683Y-116642700D02*
X123902017Y-116676033D01*
X123902017Y-116676033D02*
X123702017Y-116676033D01*
X123702017Y-116676033D02*
X123635350Y-116642700D01*
X123635350Y-116642700D02*
X123602017Y-116609366D01*
X124835350Y-115942700D02*
X124235350Y-116842700D01*
X125068683Y-116676033D02*
X125068683Y-115976033D01*
X125068683Y-115976033D02*
X125302017Y-116476033D01*
X125302017Y-116476033D02*
X125535350Y-115976033D01*
X125535350Y-115976033D02*
X125535350Y-116676033D01*
X125768683Y-115976033D02*
X126168683Y-115976033D01*
X125968683Y-116676033D02*
X125968683Y-115976033D01*
X126802016Y-116609366D02*
X126768683Y-116642700D01*
X126768683Y-116642700D02*
X126668683Y-116676033D01*
X126668683Y-116676033D02*
X126602016Y-116676033D01*
X126602016Y-116676033D02*
X126502016Y-116642700D01*
X126502016Y-116642700D02*
X126435350Y-116576033D01*
X126435350Y-116576033D02*
X126402016Y-116509366D01*
X126402016Y-116509366D02*
X126368683Y-116376033D01*
X126368683Y-116376033D02*
X126368683Y-116276033D01*
X126368683Y-116276033D02*
X126402016Y-116142700D01*
X126402016Y-116142700D02*
X126435350Y-116076033D01*
X126435350Y-116076033D02*
X126502016Y-116009366D01*
X126502016Y-116009366D02*
X126602016Y-115976033D01*
X126602016Y-115976033D02*
X126668683Y-115976033D01*
X126668683Y-115976033D02*
X126768683Y-116009366D01*
X126768683Y-116009366D02*
X126802016Y-116042700D01*
X127102016Y-116676033D02*
X127102016Y-115976033D01*
X127502016Y-116676033D02*
X127202016Y-116276033D01*
X127502016Y-115976033D02*
X127102016Y-116376033D01*
X120535350Y-119216033D02*
X120535350Y-118516033D01*
X120535350Y-118516033D02*
X120702017Y-118516033D01*
X120702017Y-118516033D02*
X120802017Y-118549366D01*
X120802017Y-118549366D02*
X120868684Y-118616033D01*
X120868684Y-118616033D02*
X120902017Y-118682700D01*
X120902017Y-118682700D02*
X120935350Y-118816033D01*
X120935350Y-118816033D02*
X120935350Y-118916033D01*
X120935350Y-118916033D02*
X120902017Y-119049366D01*
X120902017Y-119049366D02*
X120868684Y-119116033D01*
X120868684Y-119116033D02*
X120802017Y-119182700D01*
X120802017Y-119182700D02*
X120702017Y-119216033D01*
X120702017Y-119216033D02*
X120535350Y-119216033D01*
X121202017Y-118582700D02*
X121235350Y-118549366D01*
X121235350Y-118549366D02*
X121302017Y-118516033D01*
X121302017Y-118516033D02*
X121468684Y-118516033D01*
X121468684Y-118516033D02*
X121535350Y-118549366D01*
X121535350Y-118549366D02*
X121568684Y-118582700D01*
X121568684Y-118582700D02*
X121602017Y-118649366D01*
X121602017Y-118649366D02*
X121602017Y-118716033D01*
X121602017Y-118716033D02*
X121568684Y-118816033D01*
X121568684Y-118816033D02*
X121168684Y-119216033D01*
X121168684Y-119216033D02*
X121602017Y-119216033D01*
X120535350Y-121756033D02*
X120535350Y-121056033D01*
X120535350Y-121056033D02*
X120702017Y-121056033D01*
X120702017Y-121056033D02*
X120802017Y-121089366D01*
X120802017Y-121089366D02*
X120868684Y-121156033D01*
X120868684Y-121156033D02*
X120902017Y-121222700D01*
X120902017Y-121222700D02*
X120935350Y-121356033D01*
X120935350Y-121356033D02*
X120935350Y-121456033D01*
X120935350Y-121456033D02*
X120902017Y-121589366D01*
X120902017Y-121589366D02*
X120868684Y-121656033D01*
X120868684Y-121656033D02*
X120802017Y-121722700D01*
X120802017Y-121722700D02*
X120702017Y-121756033D01*
X120702017Y-121756033D02*
X120535350Y-121756033D01*
X121168684Y-121056033D02*
X121602017Y-121056033D01*
X121602017Y-121056033D02*
X121368684Y-121322700D01*
X121368684Y-121322700D02*
X121468684Y-121322700D01*
X121468684Y-121322700D02*
X121535350Y-121356033D01*
X121535350Y-121356033D02*
X121568684Y-121389366D01*
X121568684Y-121389366D02*
X121602017Y-121456033D01*
X121602017Y-121456033D02*
X121602017Y-121622700D01*
X121602017Y-121622700D02*
X121568684Y-121689366D01*
X121568684Y-121689366D02*
X121535350Y-121722700D01*
X121535350Y-121722700D02*
X121468684Y-121756033D01*
X121468684Y-121756033D02*
X121268684Y-121756033D01*
X121268684Y-121756033D02*
X121202017Y-121722700D01*
X121202017Y-121722700D02*
X121168684Y-121689366D01*
X120935350Y-124229366D02*
X120902017Y-124262700D01*
X120902017Y-124262700D02*
X120802017Y-124296033D01*
X120802017Y-124296033D02*
X120735350Y-124296033D01*
X120735350Y-124296033D02*
X120635350Y-124262700D01*
X120635350Y-124262700D02*
X120568684Y-124196033D01*
X120568684Y-124196033D02*
X120535350Y-124129366D01*
X120535350Y-124129366D02*
X120502017Y-123996033D01*
X120502017Y-123996033D02*
X120502017Y-123896033D01*
X120502017Y-123896033D02*
X120535350Y-123762700D01*
X120535350Y-123762700D02*
X120568684Y-123696033D01*
X120568684Y-123696033D02*
X120635350Y-123629366D01*
X120635350Y-123629366D02*
X120735350Y-123596033D01*
X120735350Y-123596033D02*
X120802017Y-123596033D01*
X120802017Y-123596033D02*
X120902017Y-123629366D01*
X120902017Y-123629366D02*
X120935350Y-123662700D01*
X121235350Y-124296033D02*
X121235350Y-123596033D01*
X121235350Y-123596033D02*
X121468684Y-124096033D01*
X121468684Y-124096033D02*
X121702017Y-123596033D01*
X121702017Y-123596033D02*
X121702017Y-124296033D01*
X122035350Y-124296033D02*
X122035350Y-123596033D01*
X122035350Y-123596033D02*
X122202017Y-123596033D01*
X122202017Y-123596033D02*
X122302017Y-123629366D01*
X122302017Y-123629366D02*
X122368684Y-123696033D01*
X122368684Y-123696033D02*
X122402017Y-123762700D01*
X122402017Y-123762700D02*
X122435350Y-123896033D01*
X122435350Y-123896033D02*
X122435350Y-123996033D01*
X122435350Y-123996033D02*
X122402017Y-124129366D01*
X122402017Y-124129366D02*
X122368684Y-124196033D01*
X122368684Y-124196033D02*
X122302017Y-124262700D01*
X122302017Y-124262700D02*
X122202017Y-124296033D01*
X122202017Y-124296033D02*
X122035350Y-124296033D01*
X120501921Y-83268289D02*
X120835254Y-83268289D01*
X120978111Y-83792099D02*
X120501921Y-83792099D01*
X120501921Y-83792099D02*
X120501921Y-82792099D01*
X120501921Y-82792099D02*
X120978111Y-82792099D01*
X121406683Y-83792099D02*
X121406683Y-82792099D01*
X121406683Y-82792099D02*
X121978111Y-83792099D01*
X121978111Y-83792099D02*
X121978111Y-82792099D01*
X123168587Y-82744480D02*
X122311445Y-84030194D01*
X124073349Y-83792099D02*
X123740016Y-83315908D01*
X123501921Y-83792099D02*
X123501921Y-82792099D01*
X123501921Y-82792099D02*
X123882873Y-82792099D01*
X123882873Y-82792099D02*
X123978111Y-82839718D01*
X123978111Y-82839718D02*
X124025730Y-82887337D01*
X124025730Y-82887337D02*
X124073349Y-82982575D01*
X124073349Y-82982575D02*
X124073349Y-83125432D01*
X124073349Y-83125432D02*
X124025730Y-83220670D01*
X124025730Y-83220670D02*
X123978111Y-83268289D01*
X123978111Y-83268289D02*
X123882873Y-83315908D01*
X123882873Y-83315908D02*
X123501921Y-83315908D01*
X124501921Y-83268289D02*
X124835254Y-83268289D01*
X124978111Y-83792099D02*
X124501921Y-83792099D01*
X124501921Y-83792099D02*
X124501921Y-82792099D01*
X124501921Y-82792099D02*
X124978111Y-82792099D01*
X125359064Y-83744480D02*
X125501921Y-83792099D01*
X125501921Y-83792099D02*
X125740016Y-83792099D01*
X125740016Y-83792099D02*
X125835254Y-83744480D01*
X125835254Y-83744480D02*
X125882873Y-83696860D01*
X125882873Y-83696860D02*
X125930492Y-83601622D01*
X125930492Y-83601622D02*
X125930492Y-83506384D01*
X125930492Y-83506384D02*
X125882873Y-83411146D01*
X125882873Y-83411146D02*
X125835254Y-83363527D01*
X125835254Y-83363527D02*
X125740016Y-83315908D01*
X125740016Y-83315908D02*
X125549540Y-83268289D01*
X125549540Y-83268289D02*
X125454302Y-83220670D01*
X125454302Y-83220670D02*
X125406683Y-83173051D01*
X125406683Y-83173051D02*
X125359064Y-83077813D01*
X125359064Y-83077813D02*
X125359064Y-82982575D01*
X125359064Y-82982575D02*
X125406683Y-82887337D01*
X125406683Y-82887337D02*
X125454302Y-82839718D01*
X125454302Y-82839718D02*
X125549540Y-82792099D01*
X125549540Y-82792099D02*
X125787635Y-82792099D01*
X125787635Y-82792099D02*
X125930492Y-82839718D01*
X126359064Y-83268289D02*
X126692397Y-83268289D01*
X126835254Y-83792099D02*
X126359064Y-83792099D01*
X126359064Y-83792099D02*
X126359064Y-82792099D01*
X126359064Y-82792099D02*
X126835254Y-82792099D01*
X127120969Y-82792099D02*
X127692397Y-82792099D01*
X127406683Y-83792099D02*
X127406683Y-82792099D01*
X140745601Y-80302438D02*
X140650363Y-80254819D01*
X140650363Y-80254819D02*
X140507506Y-80254819D01*
X140507506Y-80254819D02*
X140364649Y-80302438D01*
X140364649Y-80302438D02*
X140269411Y-80397676D01*
X140269411Y-80397676D02*
X140221792Y-80492914D01*
X140221792Y-80492914D02*
X140174173Y-80683390D01*
X140174173Y-80683390D02*
X140174173Y-80826247D01*
X140174173Y-80826247D02*
X140221792Y-81016723D01*
X140221792Y-81016723D02*
X140269411Y-81111961D01*
X140269411Y-81111961D02*
X140364649Y-81207200D01*
X140364649Y-81207200D02*
X140507506Y-81254819D01*
X140507506Y-81254819D02*
X140602744Y-81254819D01*
X140602744Y-81254819D02*
X140745601Y-81207200D01*
X140745601Y-81207200D02*
X140793220Y-81159580D01*
X140793220Y-81159580D02*
X140793220Y-80826247D01*
X140793220Y-80826247D02*
X140602744Y-80826247D01*
X141221792Y-81254819D02*
X141221792Y-80254819D01*
X141221792Y-80254819D02*
X141793220Y-81254819D01*
X141793220Y-81254819D02*
X141793220Y-80254819D01*
X142269411Y-81254819D02*
X142269411Y-80254819D01*
X142269411Y-80254819D02*
X142507506Y-80254819D01*
X142507506Y-80254819D02*
X142650363Y-80302438D01*
X142650363Y-80302438D02*
X142745601Y-80397676D01*
X142745601Y-80397676D02*
X142793220Y-80492914D01*
X142793220Y-80492914D02*
X142840839Y-80683390D01*
X142840839Y-80683390D02*
X142840839Y-80826247D01*
X142840839Y-80826247D02*
X142793220Y-81016723D01*
X142793220Y-81016723D02*
X142745601Y-81111961D01*
X142745601Y-81111961D02*
X142650363Y-81207200D01*
X142650363Y-81207200D02*
X142507506Y-81254819D01*
X142507506Y-81254819D02*
X142269411Y-81254819D01*
X139764649Y-82989366D02*
X139697982Y-82956033D01*
X139697982Y-82956033D02*
X139597982Y-82956033D01*
X139597982Y-82956033D02*
X139497982Y-82989366D01*
X139497982Y-82989366D02*
X139431316Y-83056033D01*
X139431316Y-83056033D02*
X139397982Y-83122700D01*
X139397982Y-83122700D02*
X139364649Y-83256033D01*
X139364649Y-83256033D02*
X139364649Y-83356033D01*
X139364649Y-83356033D02*
X139397982Y-83489366D01*
X139397982Y-83489366D02*
X139431316Y-83556033D01*
X139431316Y-83556033D02*
X139497982Y-83622700D01*
X139497982Y-83622700D02*
X139597982Y-83656033D01*
X139597982Y-83656033D02*
X139664649Y-83656033D01*
X139664649Y-83656033D02*
X139764649Y-83622700D01*
X139764649Y-83622700D02*
X139797982Y-83589366D01*
X139797982Y-83589366D02*
X139797982Y-83356033D01*
X139797982Y-83356033D02*
X139664649Y-83356033D01*
X140097982Y-83656033D02*
X140097982Y-82956033D01*
X140097982Y-82956033D02*
X140364649Y-82956033D01*
X140364649Y-82956033D02*
X140431316Y-82989366D01*
X140431316Y-82989366D02*
X140464649Y-83022700D01*
X140464649Y-83022700D02*
X140497982Y-83089366D01*
X140497982Y-83089366D02*
X140497982Y-83189366D01*
X140497982Y-83189366D02*
X140464649Y-83256033D01*
X140464649Y-83256033D02*
X140431316Y-83289366D01*
X140431316Y-83289366D02*
X140364649Y-83322700D01*
X140364649Y-83322700D02*
X140097982Y-83322700D01*
X140797982Y-83656033D02*
X140797982Y-82956033D01*
X141264649Y-82956033D02*
X141397982Y-82956033D01*
X141397982Y-82956033D02*
X141464649Y-82989366D01*
X141464649Y-82989366D02*
X141531315Y-83056033D01*
X141531315Y-83056033D02*
X141564649Y-83189366D01*
X141564649Y-83189366D02*
X141564649Y-83422700D01*
X141564649Y-83422700D02*
X141531315Y-83556033D01*
X141531315Y-83556033D02*
X141464649Y-83622700D01*
X141464649Y-83622700D02*
X141397982Y-83656033D01*
X141397982Y-83656033D02*
X141264649Y-83656033D01*
X141264649Y-83656033D02*
X141197982Y-83622700D01*
X141197982Y-83622700D02*
X141131315Y-83556033D01*
X141131315Y-83556033D02*
X141097982Y-83422700D01*
X141097982Y-83422700D02*
X141097982Y-83189366D01*
X141097982Y-83189366D02*
X141131315Y-83056033D01*
X141131315Y-83056033D02*
X141197982Y-82989366D01*
X141197982Y-82989366D02*
X141264649Y-82956033D01*
X141831315Y-83022700D02*
X141864648Y-82989366D01*
X141864648Y-82989366D02*
X141931315Y-82956033D01*
X141931315Y-82956033D02*
X142097982Y-82956033D01*
X142097982Y-82956033D02*
X142164648Y-82989366D01*
X142164648Y-82989366D02*
X142197982Y-83022700D01*
X142197982Y-83022700D02*
X142231315Y-83089366D01*
X142231315Y-83089366D02*
X142231315Y-83156033D01*
X142231315Y-83156033D02*
X142197982Y-83256033D01*
X142197982Y-83256033D02*
X141797982Y-83656033D01*
X141797982Y-83656033D02*
X142231315Y-83656033D01*
X142464649Y-82956033D02*
X142897982Y-82956033D01*
X142897982Y-82956033D02*
X142664649Y-83222700D01*
X142664649Y-83222700D02*
X142764649Y-83222700D01*
X142764649Y-83222700D02*
X142831315Y-83256033D01*
X142831315Y-83256033D02*
X142864649Y-83289366D01*
X142864649Y-83289366D02*
X142897982Y-83356033D01*
X142897982Y-83356033D02*
X142897982Y-83522700D01*
X142897982Y-83522700D02*
X142864649Y-83589366D01*
X142864649Y-83589366D02*
X142831315Y-83622700D01*
X142831315Y-83622700D02*
X142764649Y-83656033D01*
X142764649Y-83656033D02*
X142564649Y-83656033D01*
X142564649Y-83656033D02*
X142497982Y-83622700D01*
X142497982Y-83622700D02*
X142464649Y-83589366D01*
X139764649Y-85529366D02*
X139697982Y-85496033D01*
X139697982Y-85496033D02*
X139597982Y-85496033D01*
X139597982Y-85496033D02*
X139497982Y-85529366D01*
X139497982Y-85529366D02*
X139431316Y-85596033D01*
X139431316Y-85596033D02*
X139397982Y-85662700D01*
X139397982Y-85662700D02*
X139364649Y-85796033D01*
X139364649Y-85796033D02*
X139364649Y-85896033D01*
X139364649Y-85896033D02*
X139397982Y-86029366D01*
X139397982Y-86029366D02*
X139431316Y-86096033D01*
X139431316Y-86096033D02*
X139497982Y-86162700D01*
X139497982Y-86162700D02*
X139597982Y-86196033D01*
X139597982Y-86196033D02*
X139664649Y-86196033D01*
X139664649Y-86196033D02*
X139764649Y-86162700D01*
X139764649Y-86162700D02*
X139797982Y-86129366D01*
X139797982Y-86129366D02*
X139797982Y-85896033D01*
X139797982Y-85896033D02*
X139664649Y-85896033D01*
X140097982Y-86196033D02*
X140097982Y-85496033D01*
X140097982Y-85496033D02*
X140364649Y-85496033D01*
X140364649Y-85496033D02*
X140431316Y-85529366D01*
X140431316Y-85529366D02*
X140464649Y-85562700D01*
X140464649Y-85562700D02*
X140497982Y-85629366D01*
X140497982Y-85629366D02*
X140497982Y-85729366D01*
X140497982Y-85729366D02*
X140464649Y-85796033D01*
X140464649Y-85796033D02*
X140431316Y-85829366D01*
X140431316Y-85829366D02*
X140364649Y-85862700D01*
X140364649Y-85862700D02*
X140097982Y-85862700D01*
X140797982Y-86196033D02*
X140797982Y-85496033D01*
X141264649Y-85496033D02*
X141397982Y-85496033D01*
X141397982Y-85496033D02*
X141464649Y-85529366D01*
X141464649Y-85529366D02*
X141531315Y-85596033D01*
X141531315Y-85596033D02*
X141564649Y-85729366D01*
X141564649Y-85729366D02*
X141564649Y-85962700D01*
X141564649Y-85962700D02*
X141531315Y-86096033D01*
X141531315Y-86096033D02*
X141464649Y-86162700D01*
X141464649Y-86162700D02*
X141397982Y-86196033D01*
X141397982Y-86196033D02*
X141264649Y-86196033D01*
X141264649Y-86196033D02*
X141197982Y-86162700D01*
X141197982Y-86162700D02*
X141131315Y-86096033D01*
X141131315Y-86096033D02*
X141097982Y-85962700D01*
X141097982Y-85962700D02*
X141097982Y-85729366D01*
X141097982Y-85729366D02*
X141131315Y-85596033D01*
X141131315Y-85596033D02*
X141197982Y-85529366D01*
X141197982Y-85529366D02*
X141264649Y-85496033D01*
X141831315Y-85562700D02*
X141864648Y-85529366D01*
X141864648Y-85529366D02*
X141931315Y-85496033D01*
X141931315Y-85496033D02*
X142097982Y-85496033D01*
X142097982Y-85496033D02*
X142164648Y-85529366D01*
X142164648Y-85529366D02*
X142197982Y-85562700D01*
X142197982Y-85562700D02*
X142231315Y-85629366D01*
X142231315Y-85629366D02*
X142231315Y-85696033D01*
X142231315Y-85696033D02*
X142197982Y-85796033D01*
X142197982Y-85796033D02*
X141797982Y-86196033D01*
X141797982Y-86196033D02*
X142231315Y-86196033D01*
X142497982Y-85562700D02*
X142531315Y-85529366D01*
X142531315Y-85529366D02*
X142597982Y-85496033D01*
X142597982Y-85496033D02*
X142764649Y-85496033D01*
X142764649Y-85496033D02*
X142831315Y-85529366D01*
X142831315Y-85529366D02*
X142864649Y-85562700D01*
X142864649Y-85562700D02*
X142897982Y-85629366D01*
X142897982Y-85629366D02*
X142897982Y-85696033D01*
X142897982Y-85696033D02*
X142864649Y-85796033D01*
X142864649Y-85796033D02*
X142464649Y-86196033D01*
X142464649Y-86196033D02*
X142897982Y-86196033D01*
X136397983Y-88069366D02*
X136331316Y-88036033D01*
X136331316Y-88036033D02*
X136231316Y-88036033D01*
X136231316Y-88036033D02*
X136131316Y-88069366D01*
X136131316Y-88069366D02*
X136064650Y-88136033D01*
X136064650Y-88136033D02*
X136031316Y-88202700D01*
X136031316Y-88202700D02*
X135997983Y-88336033D01*
X135997983Y-88336033D02*
X135997983Y-88436033D01*
X135997983Y-88436033D02*
X136031316Y-88569366D01*
X136031316Y-88569366D02*
X136064650Y-88636033D01*
X136064650Y-88636033D02*
X136131316Y-88702700D01*
X136131316Y-88702700D02*
X136231316Y-88736033D01*
X136231316Y-88736033D02*
X136297983Y-88736033D01*
X136297983Y-88736033D02*
X136397983Y-88702700D01*
X136397983Y-88702700D02*
X136431316Y-88669366D01*
X136431316Y-88669366D02*
X136431316Y-88436033D01*
X136431316Y-88436033D02*
X136297983Y-88436033D01*
X136731316Y-88736033D02*
X136731316Y-88036033D01*
X136731316Y-88036033D02*
X136997983Y-88036033D01*
X136997983Y-88036033D02*
X137064650Y-88069366D01*
X137064650Y-88069366D02*
X137097983Y-88102700D01*
X137097983Y-88102700D02*
X137131316Y-88169366D01*
X137131316Y-88169366D02*
X137131316Y-88269366D01*
X137131316Y-88269366D02*
X137097983Y-88336033D01*
X137097983Y-88336033D02*
X137064650Y-88369366D01*
X137064650Y-88369366D02*
X136997983Y-88402700D01*
X136997983Y-88402700D02*
X136731316Y-88402700D01*
X137431316Y-88736033D02*
X137431316Y-88036033D01*
X137897983Y-88036033D02*
X138031316Y-88036033D01*
X138031316Y-88036033D02*
X138097983Y-88069366D01*
X138097983Y-88069366D02*
X138164649Y-88136033D01*
X138164649Y-88136033D02*
X138197983Y-88269366D01*
X138197983Y-88269366D02*
X138197983Y-88502700D01*
X138197983Y-88502700D02*
X138164649Y-88636033D01*
X138164649Y-88636033D02*
X138097983Y-88702700D01*
X138097983Y-88702700D02*
X138031316Y-88736033D01*
X138031316Y-88736033D02*
X137897983Y-88736033D01*
X137897983Y-88736033D02*
X137831316Y-88702700D01*
X137831316Y-88702700D02*
X137764649Y-88636033D01*
X137764649Y-88636033D02*
X137731316Y-88502700D01*
X137731316Y-88502700D02*
X137731316Y-88269366D01*
X137731316Y-88269366D02*
X137764649Y-88136033D01*
X137764649Y-88136033D02*
X137831316Y-88069366D01*
X137831316Y-88069366D02*
X137897983Y-88036033D01*
X138864649Y-88736033D02*
X138464649Y-88736033D01*
X138664649Y-88736033D02*
X138664649Y-88036033D01*
X138664649Y-88036033D02*
X138597982Y-88136033D01*
X138597982Y-88136033D02*
X138531316Y-88202700D01*
X138531316Y-88202700D02*
X138464649Y-88236033D01*
X139664649Y-88002700D02*
X139064649Y-88902700D01*
X139897982Y-88036033D02*
X139897982Y-88602700D01*
X139897982Y-88602700D02*
X139931316Y-88669366D01*
X139931316Y-88669366D02*
X139964649Y-88702700D01*
X139964649Y-88702700D02*
X140031316Y-88736033D01*
X140031316Y-88736033D02*
X140164649Y-88736033D01*
X140164649Y-88736033D02*
X140231316Y-88702700D01*
X140231316Y-88702700D02*
X140264649Y-88669366D01*
X140264649Y-88669366D02*
X140297982Y-88602700D01*
X140297982Y-88602700D02*
X140297982Y-88036033D01*
X140764649Y-88036033D02*
X140831315Y-88036033D01*
X140831315Y-88036033D02*
X140897982Y-88069366D01*
X140897982Y-88069366D02*
X140931315Y-88102700D01*
X140931315Y-88102700D02*
X140964649Y-88169366D01*
X140964649Y-88169366D02*
X140997982Y-88302700D01*
X140997982Y-88302700D02*
X140997982Y-88469366D01*
X140997982Y-88469366D02*
X140964649Y-88602700D01*
X140964649Y-88602700D02*
X140931315Y-88669366D01*
X140931315Y-88669366D02*
X140897982Y-88702700D01*
X140897982Y-88702700D02*
X140831315Y-88736033D01*
X140831315Y-88736033D02*
X140764649Y-88736033D01*
X140764649Y-88736033D02*
X140697982Y-88702700D01*
X140697982Y-88702700D02*
X140664649Y-88669366D01*
X140664649Y-88669366D02*
X140631315Y-88602700D01*
X140631315Y-88602700D02*
X140597982Y-88469366D01*
X140597982Y-88469366D02*
X140597982Y-88302700D01*
X140597982Y-88302700D02*
X140631315Y-88169366D01*
X140631315Y-88169366D02*
X140664649Y-88102700D01*
X140664649Y-88102700D02*
X140697982Y-88069366D01*
X140697982Y-88069366D02*
X140764649Y-88036033D01*
X141197982Y-88036033D02*
X141597982Y-88036033D01*
X141397982Y-88736033D02*
X141397982Y-88036033D01*
X141764649Y-88036033D02*
X142231315Y-88736033D01*
X142231315Y-88036033D02*
X141764649Y-88736033D01*
X142497982Y-88736033D02*
X142497982Y-88036033D01*
X142497982Y-88036033D02*
X142664649Y-88036033D01*
X142664649Y-88036033D02*
X142764649Y-88069366D01*
X142764649Y-88069366D02*
X142831316Y-88136033D01*
X142831316Y-88136033D02*
X142864649Y-88202700D01*
X142864649Y-88202700D02*
X142897982Y-88336033D01*
X142897982Y-88336033D02*
X142897982Y-88436033D01*
X142897982Y-88436033D02*
X142864649Y-88569366D01*
X142864649Y-88569366D02*
X142831316Y-88636033D01*
X142831316Y-88636033D02*
X142764649Y-88702700D01*
X142764649Y-88702700D02*
X142664649Y-88736033D01*
X142664649Y-88736033D02*
X142497982Y-88736033D01*
X136231316Y-90609366D02*
X136164649Y-90576033D01*
X136164649Y-90576033D02*
X136064649Y-90576033D01*
X136064649Y-90576033D02*
X135964649Y-90609366D01*
X135964649Y-90609366D02*
X135897983Y-90676033D01*
X135897983Y-90676033D02*
X135864649Y-90742700D01*
X135864649Y-90742700D02*
X135831316Y-90876033D01*
X135831316Y-90876033D02*
X135831316Y-90976033D01*
X135831316Y-90976033D02*
X135864649Y-91109366D01*
X135864649Y-91109366D02*
X135897983Y-91176033D01*
X135897983Y-91176033D02*
X135964649Y-91242700D01*
X135964649Y-91242700D02*
X136064649Y-91276033D01*
X136064649Y-91276033D02*
X136131316Y-91276033D01*
X136131316Y-91276033D02*
X136231316Y-91242700D01*
X136231316Y-91242700D02*
X136264649Y-91209366D01*
X136264649Y-91209366D02*
X136264649Y-90976033D01*
X136264649Y-90976033D02*
X136131316Y-90976033D01*
X136564649Y-91276033D02*
X136564649Y-90576033D01*
X136564649Y-90576033D02*
X136831316Y-90576033D01*
X136831316Y-90576033D02*
X136897983Y-90609366D01*
X136897983Y-90609366D02*
X136931316Y-90642700D01*
X136931316Y-90642700D02*
X136964649Y-90709366D01*
X136964649Y-90709366D02*
X136964649Y-90809366D01*
X136964649Y-90809366D02*
X136931316Y-90876033D01*
X136931316Y-90876033D02*
X136897983Y-90909366D01*
X136897983Y-90909366D02*
X136831316Y-90942700D01*
X136831316Y-90942700D02*
X136564649Y-90942700D01*
X137264649Y-91276033D02*
X137264649Y-90576033D01*
X137731316Y-90576033D02*
X137864649Y-90576033D01*
X137864649Y-90576033D02*
X137931316Y-90609366D01*
X137931316Y-90609366D02*
X137997982Y-90676033D01*
X137997982Y-90676033D02*
X138031316Y-90809366D01*
X138031316Y-90809366D02*
X138031316Y-91042700D01*
X138031316Y-91042700D02*
X137997982Y-91176033D01*
X137997982Y-91176033D02*
X137931316Y-91242700D01*
X137931316Y-91242700D02*
X137864649Y-91276033D01*
X137864649Y-91276033D02*
X137731316Y-91276033D01*
X137731316Y-91276033D02*
X137664649Y-91242700D01*
X137664649Y-91242700D02*
X137597982Y-91176033D01*
X137597982Y-91176033D02*
X137564649Y-91042700D01*
X137564649Y-91042700D02*
X137564649Y-90809366D01*
X137564649Y-90809366D02*
X137597982Y-90676033D01*
X137597982Y-90676033D02*
X137664649Y-90609366D01*
X137664649Y-90609366D02*
X137731316Y-90576033D01*
X138264649Y-90576033D02*
X138697982Y-90576033D01*
X138697982Y-90576033D02*
X138464649Y-90842700D01*
X138464649Y-90842700D02*
X138564649Y-90842700D01*
X138564649Y-90842700D02*
X138631315Y-90876033D01*
X138631315Y-90876033D02*
X138664649Y-90909366D01*
X138664649Y-90909366D02*
X138697982Y-90976033D01*
X138697982Y-90976033D02*
X138697982Y-91142700D01*
X138697982Y-91142700D02*
X138664649Y-91209366D01*
X138664649Y-91209366D02*
X138631315Y-91242700D01*
X138631315Y-91242700D02*
X138564649Y-91276033D01*
X138564649Y-91276033D02*
X138364649Y-91276033D01*
X138364649Y-91276033D02*
X138297982Y-91242700D01*
X138297982Y-91242700D02*
X138264649Y-91209366D01*
X139497982Y-90542700D02*
X138897982Y-91442700D01*
X139731315Y-90576033D02*
X139731315Y-91142700D01*
X139731315Y-91142700D02*
X139764649Y-91209366D01*
X139764649Y-91209366D02*
X139797982Y-91242700D01*
X139797982Y-91242700D02*
X139864649Y-91276033D01*
X139864649Y-91276033D02*
X139997982Y-91276033D01*
X139997982Y-91276033D02*
X140064649Y-91242700D01*
X140064649Y-91242700D02*
X140097982Y-91209366D01*
X140097982Y-91209366D02*
X140131315Y-91142700D01*
X140131315Y-91142700D02*
X140131315Y-90576033D01*
X140597982Y-90576033D02*
X140664648Y-90576033D01*
X140664648Y-90576033D02*
X140731315Y-90609366D01*
X140731315Y-90609366D02*
X140764648Y-90642700D01*
X140764648Y-90642700D02*
X140797982Y-90709366D01*
X140797982Y-90709366D02*
X140831315Y-90842700D01*
X140831315Y-90842700D02*
X140831315Y-91009366D01*
X140831315Y-91009366D02*
X140797982Y-91142700D01*
X140797982Y-91142700D02*
X140764648Y-91209366D01*
X140764648Y-91209366D02*
X140731315Y-91242700D01*
X140731315Y-91242700D02*
X140664648Y-91276033D01*
X140664648Y-91276033D02*
X140597982Y-91276033D01*
X140597982Y-91276033D02*
X140531315Y-91242700D01*
X140531315Y-91242700D02*
X140497982Y-91209366D01*
X140497982Y-91209366D02*
X140464648Y-91142700D01*
X140464648Y-91142700D02*
X140431315Y-91009366D01*
X140431315Y-91009366D02*
X140431315Y-90842700D01*
X140431315Y-90842700D02*
X140464648Y-90709366D01*
X140464648Y-90709366D02*
X140497982Y-90642700D01*
X140497982Y-90642700D02*
X140531315Y-90609366D01*
X140531315Y-90609366D02*
X140597982Y-90576033D01*
X141531315Y-91276033D02*
X141297982Y-90942700D01*
X141131315Y-91276033D02*
X141131315Y-90576033D01*
X141131315Y-90576033D02*
X141397982Y-90576033D01*
X141397982Y-90576033D02*
X141464649Y-90609366D01*
X141464649Y-90609366D02*
X141497982Y-90642700D01*
X141497982Y-90642700D02*
X141531315Y-90709366D01*
X141531315Y-90709366D02*
X141531315Y-90809366D01*
X141531315Y-90809366D02*
X141497982Y-90876033D01*
X141497982Y-90876033D02*
X141464649Y-90909366D01*
X141464649Y-90909366D02*
X141397982Y-90942700D01*
X141397982Y-90942700D02*
X141131315Y-90942700D01*
X141764649Y-90576033D02*
X142231315Y-91276033D01*
X142231315Y-90576033D02*
X141764649Y-91276033D01*
X142497982Y-91276033D02*
X142497982Y-90576033D01*
X142497982Y-90576033D02*
X142664649Y-90576033D01*
X142664649Y-90576033D02*
X142764649Y-90609366D01*
X142764649Y-90609366D02*
X142831316Y-90676033D01*
X142831316Y-90676033D02*
X142864649Y-90742700D01*
X142864649Y-90742700D02*
X142897982Y-90876033D01*
X142897982Y-90876033D02*
X142897982Y-90976033D01*
X142897982Y-90976033D02*
X142864649Y-91109366D01*
X142864649Y-91109366D02*
X142831316Y-91176033D01*
X142831316Y-91176033D02*
X142764649Y-91242700D01*
X142764649Y-91242700D02*
X142664649Y-91276033D01*
X142664649Y-91276033D02*
X142497982Y-91276033D01*
X139764649Y-93149366D02*
X139697982Y-93116033D01*
X139697982Y-93116033D02*
X139597982Y-93116033D01*
X139597982Y-93116033D02*
X139497982Y-93149366D01*
X139497982Y-93149366D02*
X139431316Y-93216033D01*
X139431316Y-93216033D02*
X139397982Y-93282700D01*
X139397982Y-93282700D02*
X139364649Y-93416033D01*
X139364649Y-93416033D02*
X139364649Y-93516033D01*
X139364649Y-93516033D02*
X139397982Y-93649366D01*
X139397982Y-93649366D02*
X139431316Y-93716033D01*
X139431316Y-93716033D02*
X139497982Y-93782700D01*
X139497982Y-93782700D02*
X139597982Y-93816033D01*
X139597982Y-93816033D02*
X139664649Y-93816033D01*
X139664649Y-93816033D02*
X139764649Y-93782700D01*
X139764649Y-93782700D02*
X139797982Y-93749366D01*
X139797982Y-93749366D02*
X139797982Y-93516033D01*
X139797982Y-93516033D02*
X139664649Y-93516033D01*
X140097982Y-93816033D02*
X140097982Y-93116033D01*
X140097982Y-93116033D02*
X140364649Y-93116033D01*
X140364649Y-93116033D02*
X140431316Y-93149366D01*
X140431316Y-93149366D02*
X140464649Y-93182700D01*
X140464649Y-93182700D02*
X140497982Y-93249366D01*
X140497982Y-93249366D02*
X140497982Y-93349366D01*
X140497982Y-93349366D02*
X140464649Y-93416033D01*
X140464649Y-93416033D02*
X140431316Y-93449366D01*
X140431316Y-93449366D02*
X140364649Y-93482700D01*
X140364649Y-93482700D02*
X140097982Y-93482700D01*
X140797982Y-93816033D02*
X140797982Y-93116033D01*
X141264649Y-93116033D02*
X141397982Y-93116033D01*
X141397982Y-93116033D02*
X141464649Y-93149366D01*
X141464649Y-93149366D02*
X141531315Y-93216033D01*
X141531315Y-93216033D02*
X141564649Y-93349366D01*
X141564649Y-93349366D02*
X141564649Y-93582700D01*
X141564649Y-93582700D02*
X141531315Y-93716033D01*
X141531315Y-93716033D02*
X141464649Y-93782700D01*
X141464649Y-93782700D02*
X141397982Y-93816033D01*
X141397982Y-93816033D02*
X141264649Y-93816033D01*
X141264649Y-93816033D02*
X141197982Y-93782700D01*
X141197982Y-93782700D02*
X141131315Y-93716033D01*
X141131315Y-93716033D02*
X141097982Y-93582700D01*
X141097982Y-93582700D02*
X141097982Y-93349366D01*
X141097982Y-93349366D02*
X141131315Y-93216033D01*
X141131315Y-93216033D02*
X141197982Y-93149366D01*
X141197982Y-93149366D02*
X141264649Y-93116033D01*
X141831315Y-93182700D02*
X141864648Y-93149366D01*
X141864648Y-93149366D02*
X141931315Y-93116033D01*
X141931315Y-93116033D02*
X142097982Y-93116033D01*
X142097982Y-93116033D02*
X142164648Y-93149366D01*
X142164648Y-93149366D02*
X142197982Y-93182700D01*
X142197982Y-93182700D02*
X142231315Y-93249366D01*
X142231315Y-93249366D02*
X142231315Y-93316033D01*
X142231315Y-93316033D02*
X142197982Y-93416033D01*
X142197982Y-93416033D02*
X141797982Y-93816033D01*
X141797982Y-93816033D02*
X142231315Y-93816033D01*
X142897982Y-93816033D02*
X142497982Y-93816033D01*
X142697982Y-93816033D02*
X142697982Y-93116033D01*
X142697982Y-93116033D02*
X142631315Y-93216033D01*
X142631315Y-93216033D02*
X142564649Y-93282700D01*
X142564649Y-93282700D02*
X142497982Y-93316033D01*
X140745601Y-95542438D02*
X140650363Y-95494819D01*
X140650363Y-95494819D02*
X140507506Y-95494819D01*
X140507506Y-95494819D02*
X140364649Y-95542438D01*
X140364649Y-95542438D02*
X140269411Y-95637676D01*
X140269411Y-95637676D02*
X140221792Y-95732914D01*
X140221792Y-95732914D02*
X140174173Y-95923390D01*
X140174173Y-95923390D02*
X140174173Y-96066247D01*
X140174173Y-96066247D02*
X140221792Y-96256723D01*
X140221792Y-96256723D02*
X140269411Y-96351961D01*
X140269411Y-96351961D02*
X140364649Y-96447200D01*
X140364649Y-96447200D02*
X140507506Y-96494819D01*
X140507506Y-96494819D02*
X140602744Y-96494819D01*
X140602744Y-96494819D02*
X140745601Y-96447200D01*
X140745601Y-96447200D02*
X140793220Y-96399580D01*
X140793220Y-96399580D02*
X140793220Y-96066247D01*
X140793220Y-96066247D02*
X140602744Y-96066247D01*
X141221792Y-96494819D02*
X141221792Y-95494819D01*
X141221792Y-95494819D02*
X141793220Y-96494819D01*
X141793220Y-96494819D02*
X141793220Y-95494819D01*
X142269411Y-96494819D02*
X142269411Y-95494819D01*
X142269411Y-95494819D02*
X142507506Y-95494819D01*
X142507506Y-95494819D02*
X142650363Y-95542438D01*
X142650363Y-95542438D02*
X142745601Y-95637676D01*
X142745601Y-95637676D02*
X142793220Y-95732914D01*
X142793220Y-95732914D02*
X142840839Y-95923390D01*
X142840839Y-95923390D02*
X142840839Y-96066247D01*
X142840839Y-96066247D02*
X142793220Y-96256723D01*
X142793220Y-96256723D02*
X142745601Y-96351961D01*
X142745601Y-96351961D02*
X142650363Y-96447200D01*
X142650363Y-96447200D02*
X142507506Y-96494819D01*
X142507506Y-96494819D02*
X142269411Y-96494819D01*
X139764649Y-98229366D02*
X139697982Y-98196033D01*
X139697982Y-98196033D02*
X139597982Y-98196033D01*
X139597982Y-98196033D02*
X139497982Y-98229366D01*
X139497982Y-98229366D02*
X139431316Y-98296033D01*
X139431316Y-98296033D02*
X139397982Y-98362700D01*
X139397982Y-98362700D02*
X139364649Y-98496033D01*
X139364649Y-98496033D02*
X139364649Y-98596033D01*
X139364649Y-98596033D02*
X139397982Y-98729366D01*
X139397982Y-98729366D02*
X139431316Y-98796033D01*
X139431316Y-98796033D02*
X139497982Y-98862700D01*
X139497982Y-98862700D02*
X139597982Y-98896033D01*
X139597982Y-98896033D02*
X139664649Y-98896033D01*
X139664649Y-98896033D02*
X139764649Y-98862700D01*
X139764649Y-98862700D02*
X139797982Y-98829366D01*
X139797982Y-98829366D02*
X139797982Y-98596033D01*
X139797982Y-98596033D02*
X139664649Y-98596033D01*
X140097982Y-98896033D02*
X140097982Y-98196033D01*
X140097982Y-98196033D02*
X140364649Y-98196033D01*
X140364649Y-98196033D02*
X140431316Y-98229366D01*
X140431316Y-98229366D02*
X140464649Y-98262700D01*
X140464649Y-98262700D02*
X140497982Y-98329366D01*
X140497982Y-98329366D02*
X140497982Y-98429366D01*
X140497982Y-98429366D02*
X140464649Y-98496033D01*
X140464649Y-98496033D02*
X140431316Y-98529366D01*
X140431316Y-98529366D02*
X140364649Y-98562700D01*
X140364649Y-98562700D02*
X140097982Y-98562700D01*
X140797982Y-98896033D02*
X140797982Y-98196033D01*
X141264649Y-98196033D02*
X141397982Y-98196033D01*
X141397982Y-98196033D02*
X141464649Y-98229366D01*
X141464649Y-98229366D02*
X141531315Y-98296033D01*
X141531315Y-98296033D02*
X141564649Y-98429366D01*
X141564649Y-98429366D02*
X141564649Y-98662700D01*
X141564649Y-98662700D02*
X141531315Y-98796033D01*
X141531315Y-98796033D02*
X141464649Y-98862700D01*
X141464649Y-98862700D02*
X141397982Y-98896033D01*
X141397982Y-98896033D02*
X141264649Y-98896033D01*
X141264649Y-98896033D02*
X141197982Y-98862700D01*
X141197982Y-98862700D02*
X141131315Y-98796033D01*
X141131315Y-98796033D02*
X141097982Y-98662700D01*
X141097982Y-98662700D02*
X141097982Y-98429366D01*
X141097982Y-98429366D02*
X141131315Y-98296033D01*
X141131315Y-98296033D02*
X141197982Y-98229366D01*
X141197982Y-98229366D02*
X141264649Y-98196033D01*
X142231315Y-98896033D02*
X141831315Y-98896033D01*
X142031315Y-98896033D02*
X142031315Y-98196033D01*
X142031315Y-98196033D02*
X141964648Y-98296033D01*
X141964648Y-98296033D02*
X141897982Y-98362700D01*
X141897982Y-98362700D02*
X141831315Y-98396033D01*
X142564649Y-98896033D02*
X142697982Y-98896033D01*
X142697982Y-98896033D02*
X142764649Y-98862700D01*
X142764649Y-98862700D02*
X142797982Y-98829366D01*
X142797982Y-98829366D02*
X142864649Y-98729366D01*
X142864649Y-98729366D02*
X142897982Y-98596033D01*
X142897982Y-98596033D02*
X142897982Y-98329366D01*
X142897982Y-98329366D02*
X142864649Y-98262700D01*
X142864649Y-98262700D02*
X142831315Y-98229366D01*
X142831315Y-98229366D02*
X142764649Y-98196033D01*
X142764649Y-98196033D02*
X142631315Y-98196033D01*
X142631315Y-98196033D02*
X142564649Y-98229366D01*
X142564649Y-98229366D02*
X142531315Y-98262700D01*
X142531315Y-98262700D02*
X142497982Y-98329366D01*
X142497982Y-98329366D02*
X142497982Y-98496033D01*
X142497982Y-98496033D02*
X142531315Y-98562700D01*
X142531315Y-98562700D02*
X142564649Y-98596033D01*
X142564649Y-98596033D02*
X142631315Y-98629366D01*
X142631315Y-98629366D02*
X142764649Y-98629366D01*
X142764649Y-98629366D02*
X142831315Y-98596033D01*
X142831315Y-98596033D02*
X142864649Y-98562700D01*
X142864649Y-98562700D02*
X142897982Y-98496033D01*
X139764649Y-100769366D02*
X139697982Y-100736033D01*
X139697982Y-100736033D02*
X139597982Y-100736033D01*
X139597982Y-100736033D02*
X139497982Y-100769366D01*
X139497982Y-100769366D02*
X139431316Y-100836033D01*
X139431316Y-100836033D02*
X139397982Y-100902700D01*
X139397982Y-100902700D02*
X139364649Y-101036033D01*
X139364649Y-101036033D02*
X139364649Y-101136033D01*
X139364649Y-101136033D02*
X139397982Y-101269366D01*
X139397982Y-101269366D02*
X139431316Y-101336033D01*
X139431316Y-101336033D02*
X139497982Y-101402700D01*
X139497982Y-101402700D02*
X139597982Y-101436033D01*
X139597982Y-101436033D02*
X139664649Y-101436033D01*
X139664649Y-101436033D02*
X139764649Y-101402700D01*
X139764649Y-101402700D02*
X139797982Y-101369366D01*
X139797982Y-101369366D02*
X139797982Y-101136033D01*
X139797982Y-101136033D02*
X139664649Y-101136033D01*
X140097982Y-101436033D02*
X140097982Y-100736033D01*
X140097982Y-100736033D02*
X140364649Y-100736033D01*
X140364649Y-100736033D02*
X140431316Y-100769366D01*
X140431316Y-100769366D02*
X140464649Y-100802700D01*
X140464649Y-100802700D02*
X140497982Y-100869366D01*
X140497982Y-100869366D02*
X140497982Y-100969366D01*
X140497982Y-100969366D02*
X140464649Y-101036033D01*
X140464649Y-101036033D02*
X140431316Y-101069366D01*
X140431316Y-101069366D02*
X140364649Y-101102700D01*
X140364649Y-101102700D02*
X140097982Y-101102700D01*
X140797982Y-101436033D02*
X140797982Y-100736033D01*
X141264649Y-100736033D02*
X141397982Y-100736033D01*
X141397982Y-100736033D02*
X141464649Y-100769366D01*
X141464649Y-100769366D02*
X141531315Y-100836033D01*
X141531315Y-100836033D02*
X141564649Y-100969366D01*
X141564649Y-100969366D02*
X141564649Y-101202700D01*
X141564649Y-101202700D02*
X141531315Y-101336033D01*
X141531315Y-101336033D02*
X141464649Y-101402700D01*
X141464649Y-101402700D02*
X141397982Y-101436033D01*
X141397982Y-101436033D02*
X141264649Y-101436033D01*
X141264649Y-101436033D02*
X141197982Y-101402700D01*
X141197982Y-101402700D02*
X141131315Y-101336033D01*
X141131315Y-101336033D02*
X141097982Y-101202700D01*
X141097982Y-101202700D02*
X141097982Y-100969366D01*
X141097982Y-100969366D02*
X141131315Y-100836033D01*
X141131315Y-100836033D02*
X141197982Y-100769366D01*
X141197982Y-100769366D02*
X141264649Y-100736033D01*
X142231315Y-101436033D02*
X141831315Y-101436033D01*
X142031315Y-101436033D02*
X142031315Y-100736033D01*
X142031315Y-100736033D02*
X141964648Y-100836033D01*
X141964648Y-100836033D02*
X141897982Y-100902700D01*
X141897982Y-100902700D02*
X141831315Y-100936033D01*
X142631315Y-101036033D02*
X142564649Y-101002700D01*
X142564649Y-101002700D02*
X142531315Y-100969366D01*
X142531315Y-100969366D02*
X142497982Y-100902700D01*
X142497982Y-100902700D02*
X142497982Y-100869366D01*
X142497982Y-100869366D02*
X142531315Y-100802700D01*
X142531315Y-100802700D02*
X142564649Y-100769366D01*
X142564649Y-100769366D02*
X142631315Y-100736033D01*
X142631315Y-100736033D02*
X142764649Y-100736033D01*
X142764649Y-100736033D02*
X142831315Y-100769366D01*
X142831315Y-100769366D02*
X142864649Y-100802700D01*
X142864649Y-100802700D02*
X142897982Y-100869366D01*
X142897982Y-100869366D02*
X142897982Y-100902700D01*
X142897982Y-100902700D02*
X142864649Y-100969366D01*
X142864649Y-100969366D02*
X142831315Y-101002700D01*
X142831315Y-101002700D02*
X142764649Y-101036033D01*
X142764649Y-101036033D02*
X142631315Y-101036033D01*
X142631315Y-101036033D02*
X142564649Y-101069366D01*
X142564649Y-101069366D02*
X142531315Y-101102700D01*
X142531315Y-101102700D02*
X142497982Y-101169366D01*
X142497982Y-101169366D02*
X142497982Y-101302700D01*
X142497982Y-101302700D02*
X142531315Y-101369366D01*
X142531315Y-101369366D02*
X142564649Y-101402700D01*
X142564649Y-101402700D02*
X142631315Y-101436033D01*
X142631315Y-101436033D02*
X142764649Y-101436033D01*
X142764649Y-101436033D02*
X142831315Y-101402700D01*
X142831315Y-101402700D02*
X142864649Y-101369366D01*
X142864649Y-101369366D02*
X142897982Y-101302700D01*
X142897982Y-101302700D02*
X142897982Y-101169366D01*
X142897982Y-101169366D02*
X142864649Y-101102700D01*
X142864649Y-101102700D02*
X142831315Y-101069366D01*
X142831315Y-101069366D02*
X142764649Y-101036033D01*
X140431316Y-103309366D02*
X140364649Y-103276033D01*
X140364649Y-103276033D02*
X140264649Y-103276033D01*
X140264649Y-103276033D02*
X140164649Y-103309366D01*
X140164649Y-103309366D02*
X140097983Y-103376033D01*
X140097983Y-103376033D02*
X140064649Y-103442700D01*
X140064649Y-103442700D02*
X140031316Y-103576033D01*
X140031316Y-103576033D02*
X140031316Y-103676033D01*
X140031316Y-103676033D02*
X140064649Y-103809366D01*
X140064649Y-103809366D02*
X140097983Y-103876033D01*
X140097983Y-103876033D02*
X140164649Y-103942700D01*
X140164649Y-103942700D02*
X140264649Y-103976033D01*
X140264649Y-103976033D02*
X140331316Y-103976033D01*
X140331316Y-103976033D02*
X140431316Y-103942700D01*
X140431316Y-103942700D02*
X140464649Y-103909366D01*
X140464649Y-103909366D02*
X140464649Y-103676033D01*
X140464649Y-103676033D02*
X140331316Y-103676033D01*
X140764649Y-103976033D02*
X140764649Y-103276033D01*
X140764649Y-103276033D02*
X141031316Y-103276033D01*
X141031316Y-103276033D02*
X141097983Y-103309366D01*
X141097983Y-103309366D02*
X141131316Y-103342700D01*
X141131316Y-103342700D02*
X141164649Y-103409366D01*
X141164649Y-103409366D02*
X141164649Y-103509366D01*
X141164649Y-103509366D02*
X141131316Y-103576033D01*
X141131316Y-103576033D02*
X141097983Y-103609366D01*
X141097983Y-103609366D02*
X141031316Y-103642700D01*
X141031316Y-103642700D02*
X140764649Y-103642700D01*
X141464649Y-103976033D02*
X141464649Y-103276033D01*
X141931316Y-103276033D02*
X142064649Y-103276033D01*
X142064649Y-103276033D02*
X142131316Y-103309366D01*
X142131316Y-103309366D02*
X142197982Y-103376033D01*
X142197982Y-103376033D02*
X142231316Y-103509366D01*
X142231316Y-103509366D02*
X142231316Y-103742700D01*
X142231316Y-103742700D02*
X142197982Y-103876033D01*
X142197982Y-103876033D02*
X142131316Y-103942700D01*
X142131316Y-103942700D02*
X142064649Y-103976033D01*
X142064649Y-103976033D02*
X141931316Y-103976033D01*
X141931316Y-103976033D02*
X141864649Y-103942700D01*
X141864649Y-103942700D02*
X141797982Y-103876033D01*
X141797982Y-103876033D02*
X141764649Y-103742700D01*
X141764649Y-103742700D02*
X141764649Y-103509366D01*
X141764649Y-103509366D02*
X141797982Y-103376033D01*
X141797982Y-103376033D02*
X141864649Y-103309366D01*
X141864649Y-103309366D02*
X141931316Y-103276033D01*
X142864649Y-103276033D02*
X142531315Y-103276033D01*
X142531315Y-103276033D02*
X142497982Y-103609366D01*
X142497982Y-103609366D02*
X142531315Y-103576033D01*
X142531315Y-103576033D02*
X142597982Y-103542700D01*
X142597982Y-103542700D02*
X142764649Y-103542700D01*
X142764649Y-103542700D02*
X142831315Y-103576033D01*
X142831315Y-103576033D02*
X142864649Y-103609366D01*
X142864649Y-103609366D02*
X142897982Y-103676033D01*
X142897982Y-103676033D02*
X142897982Y-103842700D01*
X142897982Y-103842700D02*
X142864649Y-103909366D01*
X142864649Y-103909366D02*
X142831315Y-103942700D01*
X142831315Y-103942700D02*
X142764649Y-103976033D01*
X142764649Y-103976033D02*
X142597982Y-103976033D01*
X142597982Y-103976033D02*
X142531315Y-103942700D01*
X142531315Y-103942700D02*
X142497982Y-103909366D01*
X139764649Y-105849366D02*
X139697982Y-105816033D01*
X139697982Y-105816033D02*
X139597982Y-105816033D01*
X139597982Y-105816033D02*
X139497982Y-105849366D01*
X139497982Y-105849366D02*
X139431316Y-105916033D01*
X139431316Y-105916033D02*
X139397982Y-105982700D01*
X139397982Y-105982700D02*
X139364649Y-106116033D01*
X139364649Y-106116033D02*
X139364649Y-106216033D01*
X139364649Y-106216033D02*
X139397982Y-106349366D01*
X139397982Y-106349366D02*
X139431316Y-106416033D01*
X139431316Y-106416033D02*
X139497982Y-106482700D01*
X139497982Y-106482700D02*
X139597982Y-106516033D01*
X139597982Y-106516033D02*
X139664649Y-106516033D01*
X139664649Y-106516033D02*
X139764649Y-106482700D01*
X139764649Y-106482700D02*
X139797982Y-106449366D01*
X139797982Y-106449366D02*
X139797982Y-106216033D01*
X139797982Y-106216033D02*
X139664649Y-106216033D01*
X140097982Y-106516033D02*
X140097982Y-105816033D01*
X140097982Y-105816033D02*
X140364649Y-105816033D01*
X140364649Y-105816033D02*
X140431316Y-105849366D01*
X140431316Y-105849366D02*
X140464649Y-105882700D01*
X140464649Y-105882700D02*
X140497982Y-105949366D01*
X140497982Y-105949366D02*
X140497982Y-106049366D01*
X140497982Y-106049366D02*
X140464649Y-106116033D01*
X140464649Y-106116033D02*
X140431316Y-106149366D01*
X140431316Y-106149366D02*
X140364649Y-106182700D01*
X140364649Y-106182700D02*
X140097982Y-106182700D01*
X140797982Y-106516033D02*
X140797982Y-105816033D01*
X141264649Y-105816033D02*
X141397982Y-105816033D01*
X141397982Y-105816033D02*
X141464649Y-105849366D01*
X141464649Y-105849366D02*
X141531315Y-105916033D01*
X141531315Y-105916033D02*
X141564649Y-106049366D01*
X141564649Y-106049366D02*
X141564649Y-106282700D01*
X141564649Y-106282700D02*
X141531315Y-106416033D01*
X141531315Y-106416033D02*
X141464649Y-106482700D01*
X141464649Y-106482700D02*
X141397982Y-106516033D01*
X141397982Y-106516033D02*
X141264649Y-106516033D01*
X141264649Y-106516033D02*
X141197982Y-106482700D01*
X141197982Y-106482700D02*
X141131315Y-106416033D01*
X141131315Y-106416033D02*
X141097982Y-106282700D01*
X141097982Y-106282700D02*
X141097982Y-106049366D01*
X141097982Y-106049366D02*
X141131315Y-105916033D01*
X141131315Y-105916033D02*
X141197982Y-105849366D01*
X141197982Y-105849366D02*
X141264649Y-105816033D01*
X142231315Y-106516033D02*
X141831315Y-106516033D01*
X142031315Y-106516033D02*
X142031315Y-105816033D01*
X142031315Y-105816033D02*
X141964648Y-105916033D01*
X141964648Y-105916033D02*
X141897982Y-105982700D01*
X141897982Y-105982700D02*
X141831315Y-106016033D01*
X142464649Y-105816033D02*
X142931315Y-105816033D01*
X142931315Y-105816033D02*
X142631315Y-106516033D01*
X139764649Y-108389366D02*
X139697982Y-108356033D01*
X139697982Y-108356033D02*
X139597982Y-108356033D01*
X139597982Y-108356033D02*
X139497982Y-108389366D01*
X139497982Y-108389366D02*
X139431316Y-108456033D01*
X139431316Y-108456033D02*
X139397982Y-108522700D01*
X139397982Y-108522700D02*
X139364649Y-108656033D01*
X139364649Y-108656033D02*
X139364649Y-108756033D01*
X139364649Y-108756033D02*
X139397982Y-108889366D01*
X139397982Y-108889366D02*
X139431316Y-108956033D01*
X139431316Y-108956033D02*
X139497982Y-109022700D01*
X139497982Y-109022700D02*
X139597982Y-109056033D01*
X139597982Y-109056033D02*
X139664649Y-109056033D01*
X139664649Y-109056033D02*
X139764649Y-109022700D01*
X139764649Y-109022700D02*
X139797982Y-108989366D01*
X139797982Y-108989366D02*
X139797982Y-108756033D01*
X139797982Y-108756033D02*
X139664649Y-108756033D01*
X140097982Y-109056033D02*
X140097982Y-108356033D01*
X140097982Y-108356033D02*
X140364649Y-108356033D01*
X140364649Y-108356033D02*
X140431316Y-108389366D01*
X140431316Y-108389366D02*
X140464649Y-108422700D01*
X140464649Y-108422700D02*
X140497982Y-108489366D01*
X140497982Y-108489366D02*
X140497982Y-108589366D01*
X140497982Y-108589366D02*
X140464649Y-108656033D01*
X140464649Y-108656033D02*
X140431316Y-108689366D01*
X140431316Y-108689366D02*
X140364649Y-108722700D01*
X140364649Y-108722700D02*
X140097982Y-108722700D01*
X140797982Y-109056033D02*
X140797982Y-108356033D01*
X141264649Y-108356033D02*
X141397982Y-108356033D01*
X141397982Y-108356033D02*
X141464649Y-108389366D01*
X141464649Y-108389366D02*
X141531315Y-108456033D01*
X141531315Y-108456033D02*
X141564649Y-108589366D01*
X141564649Y-108589366D02*
X141564649Y-108822700D01*
X141564649Y-108822700D02*
X141531315Y-108956033D01*
X141531315Y-108956033D02*
X141464649Y-109022700D01*
X141464649Y-109022700D02*
X141397982Y-109056033D01*
X141397982Y-109056033D02*
X141264649Y-109056033D01*
X141264649Y-109056033D02*
X141197982Y-109022700D01*
X141197982Y-109022700D02*
X141131315Y-108956033D01*
X141131315Y-108956033D02*
X141097982Y-108822700D01*
X141097982Y-108822700D02*
X141097982Y-108589366D01*
X141097982Y-108589366D02*
X141131315Y-108456033D01*
X141131315Y-108456033D02*
X141197982Y-108389366D01*
X141197982Y-108389366D02*
X141264649Y-108356033D01*
X142231315Y-109056033D02*
X141831315Y-109056033D01*
X142031315Y-109056033D02*
X142031315Y-108356033D01*
X142031315Y-108356033D02*
X141964648Y-108456033D01*
X141964648Y-108456033D02*
X141897982Y-108522700D01*
X141897982Y-108522700D02*
X141831315Y-108556033D01*
X142831315Y-108356033D02*
X142697982Y-108356033D01*
X142697982Y-108356033D02*
X142631315Y-108389366D01*
X142631315Y-108389366D02*
X142597982Y-108422700D01*
X142597982Y-108422700D02*
X142531315Y-108522700D01*
X142531315Y-108522700D02*
X142497982Y-108656033D01*
X142497982Y-108656033D02*
X142497982Y-108922700D01*
X142497982Y-108922700D02*
X142531315Y-108989366D01*
X142531315Y-108989366D02*
X142564649Y-109022700D01*
X142564649Y-109022700D02*
X142631315Y-109056033D01*
X142631315Y-109056033D02*
X142764649Y-109056033D01*
X142764649Y-109056033D02*
X142831315Y-109022700D01*
X142831315Y-109022700D02*
X142864649Y-108989366D01*
X142864649Y-108989366D02*
X142897982Y-108922700D01*
X142897982Y-108922700D02*
X142897982Y-108756033D01*
X142897982Y-108756033D02*
X142864649Y-108689366D01*
X142864649Y-108689366D02*
X142831315Y-108656033D01*
X142831315Y-108656033D02*
X142764649Y-108622700D01*
X142764649Y-108622700D02*
X142631315Y-108622700D01*
X142631315Y-108622700D02*
X142564649Y-108656033D01*
X142564649Y-108656033D02*
X142531315Y-108689366D01*
X142531315Y-108689366D02*
X142497982Y-108756033D01*
X140431316Y-110929366D02*
X140364649Y-110896033D01*
X140364649Y-110896033D02*
X140264649Y-110896033D01*
X140264649Y-110896033D02*
X140164649Y-110929366D01*
X140164649Y-110929366D02*
X140097983Y-110996033D01*
X140097983Y-110996033D02*
X140064649Y-111062700D01*
X140064649Y-111062700D02*
X140031316Y-111196033D01*
X140031316Y-111196033D02*
X140031316Y-111296033D01*
X140031316Y-111296033D02*
X140064649Y-111429366D01*
X140064649Y-111429366D02*
X140097983Y-111496033D01*
X140097983Y-111496033D02*
X140164649Y-111562700D01*
X140164649Y-111562700D02*
X140264649Y-111596033D01*
X140264649Y-111596033D02*
X140331316Y-111596033D01*
X140331316Y-111596033D02*
X140431316Y-111562700D01*
X140431316Y-111562700D02*
X140464649Y-111529366D01*
X140464649Y-111529366D02*
X140464649Y-111296033D01*
X140464649Y-111296033D02*
X140331316Y-111296033D01*
X140764649Y-111596033D02*
X140764649Y-110896033D01*
X140764649Y-110896033D02*
X141031316Y-110896033D01*
X141031316Y-110896033D02*
X141097983Y-110929366D01*
X141097983Y-110929366D02*
X141131316Y-110962700D01*
X141131316Y-110962700D02*
X141164649Y-111029366D01*
X141164649Y-111029366D02*
X141164649Y-111129366D01*
X141164649Y-111129366D02*
X141131316Y-111196033D01*
X141131316Y-111196033D02*
X141097983Y-111229366D01*
X141097983Y-111229366D02*
X141031316Y-111262700D01*
X141031316Y-111262700D02*
X140764649Y-111262700D01*
X141464649Y-111596033D02*
X141464649Y-110896033D01*
X141931316Y-110896033D02*
X142064649Y-110896033D01*
X142064649Y-110896033D02*
X142131316Y-110929366D01*
X142131316Y-110929366D02*
X142197982Y-110996033D01*
X142197982Y-110996033D02*
X142231316Y-111129366D01*
X142231316Y-111129366D02*
X142231316Y-111362700D01*
X142231316Y-111362700D02*
X142197982Y-111496033D01*
X142197982Y-111496033D02*
X142131316Y-111562700D01*
X142131316Y-111562700D02*
X142064649Y-111596033D01*
X142064649Y-111596033D02*
X141931316Y-111596033D01*
X141931316Y-111596033D02*
X141864649Y-111562700D01*
X141864649Y-111562700D02*
X141797982Y-111496033D01*
X141797982Y-111496033D02*
X141764649Y-111362700D01*
X141764649Y-111362700D02*
X141764649Y-111129366D01*
X141764649Y-111129366D02*
X141797982Y-110996033D01*
X141797982Y-110996033D02*
X141864649Y-110929366D01*
X141864649Y-110929366D02*
X141931316Y-110896033D01*
X142831315Y-111129366D02*
X142831315Y-111596033D01*
X142664649Y-110862700D02*
X142497982Y-111362700D01*
X142497982Y-111362700D02*
X142931315Y-111362700D01*
X140431316Y-113469366D02*
X140364649Y-113436033D01*
X140364649Y-113436033D02*
X140264649Y-113436033D01*
X140264649Y-113436033D02*
X140164649Y-113469366D01*
X140164649Y-113469366D02*
X140097983Y-113536033D01*
X140097983Y-113536033D02*
X140064649Y-113602700D01*
X140064649Y-113602700D02*
X140031316Y-113736033D01*
X140031316Y-113736033D02*
X140031316Y-113836033D01*
X140031316Y-113836033D02*
X140064649Y-113969366D01*
X140064649Y-113969366D02*
X140097983Y-114036033D01*
X140097983Y-114036033D02*
X140164649Y-114102700D01*
X140164649Y-114102700D02*
X140264649Y-114136033D01*
X140264649Y-114136033D02*
X140331316Y-114136033D01*
X140331316Y-114136033D02*
X140431316Y-114102700D01*
X140431316Y-114102700D02*
X140464649Y-114069366D01*
X140464649Y-114069366D02*
X140464649Y-113836033D01*
X140464649Y-113836033D02*
X140331316Y-113836033D01*
X140764649Y-114136033D02*
X140764649Y-113436033D01*
X140764649Y-113436033D02*
X141031316Y-113436033D01*
X141031316Y-113436033D02*
X141097983Y-113469366D01*
X141097983Y-113469366D02*
X141131316Y-113502700D01*
X141131316Y-113502700D02*
X141164649Y-113569366D01*
X141164649Y-113569366D02*
X141164649Y-113669366D01*
X141164649Y-113669366D02*
X141131316Y-113736033D01*
X141131316Y-113736033D02*
X141097983Y-113769366D01*
X141097983Y-113769366D02*
X141031316Y-113802700D01*
X141031316Y-113802700D02*
X140764649Y-113802700D01*
X141464649Y-114136033D02*
X141464649Y-113436033D01*
X141931316Y-113436033D02*
X142064649Y-113436033D01*
X142064649Y-113436033D02*
X142131316Y-113469366D01*
X142131316Y-113469366D02*
X142197982Y-113536033D01*
X142197982Y-113536033D02*
X142231316Y-113669366D01*
X142231316Y-113669366D02*
X142231316Y-113902700D01*
X142231316Y-113902700D02*
X142197982Y-114036033D01*
X142197982Y-114036033D02*
X142131316Y-114102700D01*
X142131316Y-114102700D02*
X142064649Y-114136033D01*
X142064649Y-114136033D02*
X141931316Y-114136033D01*
X141931316Y-114136033D02*
X141864649Y-114102700D01*
X141864649Y-114102700D02*
X141797982Y-114036033D01*
X141797982Y-114036033D02*
X141764649Y-113902700D01*
X141764649Y-113902700D02*
X141764649Y-113669366D01*
X141764649Y-113669366D02*
X141797982Y-113536033D01*
X141797982Y-113536033D02*
X141864649Y-113469366D01*
X141864649Y-113469366D02*
X141931316Y-113436033D01*
X142664649Y-113436033D02*
X142731315Y-113436033D01*
X142731315Y-113436033D02*
X142797982Y-113469366D01*
X142797982Y-113469366D02*
X142831315Y-113502700D01*
X142831315Y-113502700D02*
X142864649Y-113569366D01*
X142864649Y-113569366D02*
X142897982Y-113702700D01*
X142897982Y-113702700D02*
X142897982Y-113869366D01*
X142897982Y-113869366D02*
X142864649Y-114002700D01*
X142864649Y-114002700D02*
X142831315Y-114069366D01*
X142831315Y-114069366D02*
X142797982Y-114102700D01*
X142797982Y-114102700D02*
X142731315Y-114136033D01*
X142731315Y-114136033D02*
X142664649Y-114136033D01*
X142664649Y-114136033D02*
X142597982Y-114102700D01*
X142597982Y-114102700D02*
X142564649Y-114069366D01*
X142564649Y-114069366D02*
X142531315Y-114002700D01*
X142531315Y-114002700D02*
X142497982Y-113869366D01*
X142497982Y-113869366D02*
X142497982Y-113702700D01*
X142497982Y-113702700D02*
X142531315Y-113569366D01*
X142531315Y-113569366D02*
X142564649Y-113502700D01*
X142564649Y-113502700D02*
X142597982Y-113469366D01*
X142597982Y-113469366D02*
X142664649Y-113436033D01*
X140431316Y-116009366D02*
X140364649Y-115976033D01*
X140364649Y-115976033D02*
X140264649Y-115976033D01*
X140264649Y-115976033D02*
X140164649Y-116009366D01*
X140164649Y-116009366D02*
X140097983Y-116076033D01*
X140097983Y-116076033D02*
X140064649Y-116142700D01*
X140064649Y-116142700D02*
X140031316Y-116276033D01*
X140031316Y-116276033D02*
X140031316Y-116376033D01*
X140031316Y-116376033D02*
X140064649Y-116509366D01*
X140064649Y-116509366D02*
X140097983Y-116576033D01*
X140097983Y-116576033D02*
X140164649Y-116642700D01*
X140164649Y-116642700D02*
X140264649Y-116676033D01*
X140264649Y-116676033D02*
X140331316Y-116676033D01*
X140331316Y-116676033D02*
X140431316Y-116642700D01*
X140431316Y-116642700D02*
X140464649Y-116609366D01*
X140464649Y-116609366D02*
X140464649Y-116376033D01*
X140464649Y-116376033D02*
X140331316Y-116376033D01*
X140764649Y-116676033D02*
X140764649Y-115976033D01*
X140764649Y-115976033D02*
X141031316Y-115976033D01*
X141031316Y-115976033D02*
X141097983Y-116009366D01*
X141097983Y-116009366D02*
X141131316Y-116042700D01*
X141131316Y-116042700D02*
X141164649Y-116109366D01*
X141164649Y-116109366D02*
X141164649Y-116209366D01*
X141164649Y-116209366D02*
X141131316Y-116276033D01*
X141131316Y-116276033D02*
X141097983Y-116309366D01*
X141097983Y-116309366D02*
X141031316Y-116342700D01*
X141031316Y-116342700D02*
X140764649Y-116342700D01*
X141464649Y-116676033D02*
X141464649Y-115976033D01*
X141931316Y-115976033D02*
X142064649Y-115976033D01*
X142064649Y-115976033D02*
X142131316Y-116009366D01*
X142131316Y-116009366D02*
X142197982Y-116076033D01*
X142197982Y-116076033D02*
X142231316Y-116209366D01*
X142231316Y-116209366D02*
X142231316Y-116442700D01*
X142231316Y-116442700D02*
X142197982Y-116576033D01*
X142197982Y-116576033D02*
X142131316Y-116642700D01*
X142131316Y-116642700D02*
X142064649Y-116676033D01*
X142064649Y-116676033D02*
X141931316Y-116676033D01*
X141931316Y-116676033D02*
X141864649Y-116642700D01*
X141864649Y-116642700D02*
X141797982Y-116576033D01*
X141797982Y-116576033D02*
X141764649Y-116442700D01*
X141764649Y-116442700D02*
X141764649Y-116209366D01*
X141764649Y-116209366D02*
X141797982Y-116076033D01*
X141797982Y-116076033D02*
X141864649Y-116009366D01*
X141864649Y-116009366D02*
X141931316Y-115976033D01*
X142497982Y-116042700D02*
X142531315Y-116009366D01*
X142531315Y-116009366D02*
X142597982Y-115976033D01*
X142597982Y-115976033D02*
X142764649Y-115976033D01*
X142764649Y-115976033D02*
X142831315Y-116009366D01*
X142831315Y-116009366D02*
X142864649Y-116042700D01*
X142864649Y-116042700D02*
X142897982Y-116109366D01*
X142897982Y-116109366D02*
X142897982Y-116176033D01*
X142897982Y-116176033D02*
X142864649Y-116276033D01*
X142864649Y-116276033D02*
X142464649Y-116676033D01*
X142464649Y-116676033D02*
X142897982Y-116676033D01*
X136264650Y-118549366D02*
X136197983Y-118516033D01*
X136197983Y-118516033D02*
X136097983Y-118516033D01*
X136097983Y-118516033D02*
X135997983Y-118549366D01*
X135997983Y-118549366D02*
X135931317Y-118616033D01*
X135931317Y-118616033D02*
X135897983Y-118682700D01*
X135897983Y-118682700D02*
X135864650Y-118816033D01*
X135864650Y-118816033D02*
X135864650Y-118916033D01*
X135864650Y-118916033D02*
X135897983Y-119049366D01*
X135897983Y-119049366D02*
X135931317Y-119116033D01*
X135931317Y-119116033D02*
X135997983Y-119182700D01*
X135997983Y-119182700D02*
X136097983Y-119216033D01*
X136097983Y-119216033D02*
X136164650Y-119216033D01*
X136164650Y-119216033D02*
X136264650Y-119182700D01*
X136264650Y-119182700D02*
X136297983Y-119149366D01*
X136297983Y-119149366D02*
X136297983Y-118916033D01*
X136297983Y-118916033D02*
X136164650Y-118916033D01*
X136597983Y-119216033D02*
X136597983Y-118516033D01*
X136597983Y-118516033D02*
X136864650Y-118516033D01*
X136864650Y-118516033D02*
X136931317Y-118549366D01*
X136931317Y-118549366D02*
X136964650Y-118582700D01*
X136964650Y-118582700D02*
X136997983Y-118649366D01*
X136997983Y-118649366D02*
X136997983Y-118749366D01*
X136997983Y-118749366D02*
X136964650Y-118816033D01*
X136964650Y-118816033D02*
X136931317Y-118849366D01*
X136931317Y-118849366D02*
X136864650Y-118882700D01*
X136864650Y-118882700D02*
X136597983Y-118882700D01*
X137297983Y-119216033D02*
X137297983Y-118516033D01*
X137764650Y-118516033D02*
X137897983Y-118516033D01*
X137897983Y-118516033D02*
X137964650Y-118549366D01*
X137964650Y-118549366D02*
X138031316Y-118616033D01*
X138031316Y-118616033D02*
X138064650Y-118749366D01*
X138064650Y-118749366D02*
X138064650Y-118982700D01*
X138064650Y-118982700D02*
X138031316Y-119116033D01*
X138031316Y-119116033D02*
X137964650Y-119182700D01*
X137964650Y-119182700D02*
X137897983Y-119216033D01*
X137897983Y-119216033D02*
X137764650Y-119216033D01*
X137764650Y-119216033D02*
X137697983Y-119182700D01*
X137697983Y-119182700D02*
X137631316Y-119116033D01*
X137631316Y-119116033D02*
X137597983Y-118982700D01*
X137597983Y-118982700D02*
X137597983Y-118749366D01*
X137597983Y-118749366D02*
X137631316Y-118616033D01*
X137631316Y-118616033D02*
X137697983Y-118549366D01*
X137697983Y-118549366D02*
X137764650Y-118516033D01*
X138731316Y-119216033D02*
X138331316Y-119216033D01*
X138531316Y-119216033D02*
X138531316Y-118516033D01*
X138531316Y-118516033D02*
X138464649Y-118616033D01*
X138464649Y-118616033D02*
X138397983Y-118682700D01*
X138397983Y-118682700D02*
X138331316Y-118716033D01*
X139364650Y-118516033D02*
X139031316Y-118516033D01*
X139031316Y-118516033D02*
X138997983Y-118849366D01*
X138997983Y-118849366D02*
X139031316Y-118816033D01*
X139031316Y-118816033D02*
X139097983Y-118782700D01*
X139097983Y-118782700D02*
X139264650Y-118782700D01*
X139264650Y-118782700D02*
X139331316Y-118816033D01*
X139331316Y-118816033D02*
X139364650Y-118849366D01*
X139364650Y-118849366D02*
X139397983Y-118916033D01*
X139397983Y-118916033D02*
X139397983Y-119082700D01*
X139397983Y-119082700D02*
X139364650Y-119149366D01*
X139364650Y-119149366D02*
X139331316Y-119182700D01*
X139331316Y-119182700D02*
X139264650Y-119216033D01*
X139264650Y-119216033D02*
X139097983Y-119216033D01*
X139097983Y-119216033D02*
X139031316Y-119182700D01*
X139031316Y-119182700D02*
X138997983Y-119149366D01*
X140197983Y-118482700D02*
X139597983Y-119382700D01*
X140431316Y-119216033D02*
X140431316Y-118516033D01*
X140431316Y-118516033D02*
X140664650Y-119016033D01*
X140664650Y-119016033D02*
X140897983Y-118516033D01*
X140897983Y-118516033D02*
X140897983Y-119216033D01*
X141131316Y-118516033D02*
X141531316Y-118516033D01*
X141331316Y-119216033D02*
X141331316Y-118516033D01*
X141764649Y-119216033D02*
X141764649Y-118516033D01*
X141764649Y-118516033D02*
X141931316Y-118516033D01*
X141931316Y-118516033D02*
X142031316Y-118549366D01*
X142031316Y-118549366D02*
X142097983Y-118616033D01*
X142097983Y-118616033D02*
X142131316Y-118682700D01*
X142131316Y-118682700D02*
X142164649Y-118816033D01*
X142164649Y-118816033D02*
X142164649Y-118916033D01*
X142164649Y-118916033D02*
X142131316Y-119049366D01*
X142131316Y-119049366D02*
X142097983Y-119116033D01*
X142097983Y-119116033D02*
X142031316Y-119182700D01*
X142031316Y-119182700D02*
X141931316Y-119216033D01*
X141931316Y-119216033D02*
X141764649Y-119216033D01*
X142597983Y-118516033D02*
X142731316Y-118516033D01*
X142731316Y-118516033D02*
X142797983Y-118549366D01*
X142797983Y-118549366D02*
X142864649Y-118616033D01*
X142864649Y-118616033D02*
X142897983Y-118749366D01*
X142897983Y-118749366D02*
X142897983Y-118982700D01*
X142897983Y-118982700D02*
X142864649Y-119116033D01*
X142864649Y-119116033D02*
X142797983Y-119182700D01*
X142797983Y-119182700D02*
X142731316Y-119216033D01*
X142731316Y-119216033D02*
X142597983Y-119216033D01*
X142597983Y-119216033D02*
X142531316Y-119182700D01*
X142531316Y-119182700D02*
X142464649Y-119116033D01*
X142464649Y-119116033D02*
X142431316Y-118982700D01*
X142431316Y-118982700D02*
X142431316Y-118749366D01*
X142431316Y-118749366D02*
X142464649Y-118616033D01*
X142464649Y-118616033D02*
X142531316Y-118549366D01*
X142531316Y-118549366D02*
X142597983Y-118516033D01*
X141831315Y-121756033D02*
X141831315Y-121056033D01*
X141831315Y-121056033D02*
X141997982Y-121056033D01*
X141997982Y-121056033D02*
X142097982Y-121089366D01*
X142097982Y-121089366D02*
X142164649Y-121156033D01*
X142164649Y-121156033D02*
X142197982Y-121222700D01*
X142197982Y-121222700D02*
X142231315Y-121356033D01*
X142231315Y-121356033D02*
X142231315Y-121456033D01*
X142231315Y-121456033D02*
X142197982Y-121589366D01*
X142197982Y-121589366D02*
X142164649Y-121656033D01*
X142164649Y-121656033D02*
X142097982Y-121722700D01*
X142097982Y-121722700D02*
X141997982Y-121756033D01*
X141997982Y-121756033D02*
X141831315Y-121756033D01*
X142897982Y-121756033D02*
X142497982Y-121756033D01*
X142697982Y-121756033D02*
X142697982Y-121056033D01*
X142697982Y-121056033D02*
X142631315Y-121156033D01*
X142631315Y-121156033D02*
X142564649Y-121222700D01*
X142564649Y-121222700D02*
X142497982Y-121256033D01*
X141831315Y-124296033D02*
X141831315Y-123596033D01*
X141831315Y-123596033D02*
X141997982Y-123596033D01*
X141997982Y-123596033D02*
X142097982Y-123629366D01*
X142097982Y-123629366D02*
X142164649Y-123696033D01*
X142164649Y-123696033D02*
X142197982Y-123762700D01*
X142197982Y-123762700D02*
X142231315Y-123896033D01*
X142231315Y-123896033D02*
X142231315Y-123996033D01*
X142231315Y-123996033D02*
X142197982Y-124129366D01*
X142197982Y-124129366D02*
X142164649Y-124196033D01*
X142164649Y-124196033D02*
X142097982Y-124262700D01*
X142097982Y-124262700D02*
X141997982Y-124296033D01*
X141997982Y-124296033D02*
X141831315Y-124296033D01*
X142664649Y-123596033D02*
X142731315Y-123596033D01*
X142731315Y-123596033D02*
X142797982Y-123629366D01*
X142797982Y-123629366D02*
X142831315Y-123662700D01*
X142831315Y-123662700D02*
X142864649Y-123729366D01*
X142864649Y-123729366D02*
X142897982Y-123862700D01*
X142897982Y-123862700D02*
X142897982Y-124029366D01*
X142897982Y-124029366D02*
X142864649Y-124162700D01*
X142864649Y-124162700D02*
X142831315Y-124229366D01*
X142831315Y-124229366D02*
X142797982Y-124262700D01*
X142797982Y-124262700D02*
X142731315Y-124296033D01*
X142731315Y-124296033D02*
X142664649Y-124296033D01*
X142664649Y-124296033D02*
X142597982Y-124262700D01*
X142597982Y-124262700D02*
X142564649Y-124229366D01*
X142564649Y-124229366D02*
X142531315Y-124162700D01*
X142531315Y-124162700D02*
X142497982Y-124029366D01*
X142497982Y-124029366D02*
X142497982Y-123862700D01*
X142497982Y-123862700D02*
X142531315Y-123729366D01*
X142531315Y-123729366D02*
X142564649Y-123662700D01*
X142564649Y-123662700D02*
X142597982Y-123629366D01*
X142597982Y-123629366D02*
X142664649Y-123596033D01*
X141631315Y-126769366D02*
X141597982Y-126802700D01*
X141597982Y-126802700D02*
X141497982Y-126836033D01*
X141497982Y-126836033D02*
X141431315Y-126836033D01*
X141431315Y-126836033D02*
X141331315Y-126802700D01*
X141331315Y-126802700D02*
X141264649Y-126736033D01*
X141264649Y-126736033D02*
X141231315Y-126669366D01*
X141231315Y-126669366D02*
X141197982Y-126536033D01*
X141197982Y-126536033D02*
X141197982Y-126436033D01*
X141197982Y-126436033D02*
X141231315Y-126302700D01*
X141231315Y-126302700D02*
X141264649Y-126236033D01*
X141264649Y-126236033D02*
X141331315Y-126169366D01*
X141331315Y-126169366D02*
X141431315Y-126136033D01*
X141431315Y-126136033D02*
X141497982Y-126136033D01*
X141497982Y-126136033D02*
X141597982Y-126169366D01*
X141597982Y-126169366D02*
X141631315Y-126202700D01*
X142264649Y-126836033D02*
X141931315Y-126836033D01*
X141931315Y-126836033D02*
X141931315Y-126136033D01*
X142497982Y-126836033D02*
X142497982Y-126136033D01*
X142897982Y-126836033D02*
X142597982Y-126436033D01*
X142897982Y-126136033D02*
X142497982Y-126536033D01*
X101666666Y-87264819D02*
X101666666Y-87979104D01*
X101666666Y-87979104D02*
X101619047Y-88121961D01*
X101619047Y-88121961D02*
X101523809Y-88217200D01*
X101523809Y-88217200D02*
X101380952Y-88264819D01*
X101380952Y-88264819D02*
X101285714Y-88264819D01*
X102047619Y-87264819D02*
X102666666Y-87264819D01*
X102666666Y-87264819D02*
X102333333Y-87645771D01*
X102333333Y-87645771D02*
X102476190Y-87645771D01*
X102476190Y-87645771D02*
X102571428Y-87693390D01*
X102571428Y-87693390D02*
X102619047Y-87741009D01*
X102619047Y-87741009D02*
X102666666Y-87836247D01*
X102666666Y-87836247D02*
X102666666Y-88074342D01*
X102666666Y-88074342D02*
X102619047Y-88169580D01*
X102619047Y-88169580D02*
X102571428Y-88217200D01*
X102571428Y-88217200D02*
X102476190Y-88264819D01*
X102476190Y-88264819D02*
X102190476Y-88264819D01*
X102190476Y-88264819D02*
X102095238Y-88217200D01*
X102095238Y-88217200D02*
X102047619Y-88169580D01*
X148190476Y-106151379D02*
X148190476Y-106865664D01*
X148190476Y-106865664D02*
X148142857Y-107008521D01*
X148142857Y-107008521D02*
X148047619Y-107103760D01*
X148047619Y-107103760D02*
X147904762Y-107151379D01*
X147904762Y-107151379D02*
X147809524Y-107151379D01*
X149190476Y-107151379D02*
X148619048Y-107151379D01*
X148904762Y-107151379D02*
X148904762Y-106151379D01*
X148904762Y-106151379D02*
X148809524Y-106294236D01*
X148809524Y-106294236D02*
X148714286Y-106389474D01*
X148714286Y-106389474D02*
X148619048Y-106437093D01*
X150142857Y-107151379D02*
X149571429Y-107151379D01*
X149857143Y-107151379D02*
X149857143Y-106151379D01*
X149857143Y-106151379D02*
X149761905Y-106294236D01*
X149761905Y-106294236D02*
X149666667Y-106389474D01*
X149666667Y-106389474D02*
X149571429Y-106437093D01*
X154166666Y-92954819D02*
X154166666Y-93669104D01*
X154166666Y-93669104D02*
X154119047Y-93811961D01*
X154119047Y-93811961D02*
X154023809Y-93907200D01*
X154023809Y-93907200D02*
X153880952Y-93954819D01*
X153880952Y-93954819D02*
X153785714Y-93954819D01*
X155071428Y-93288152D02*
X155071428Y-93954819D01*
X154833333Y-92907200D02*
X154595238Y-93621485D01*
X154595238Y-93621485D02*
X155214285Y-93621485D01*
X109454819Y-121166666D02*
X108978628Y-121499999D01*
X109454819Y-121738094D02*
X108454819Y-121738094D01*
X108454819Y-121738094D02*
X108454819Y-121357142D01*
X108454819Y-121357142D02*
X108502438Y-121261904D01*
X108502438Y-121261904D02*
X108550057Y-121214285D01*
X108550057Y-121214285D02*
X108645295Y-121166666D01*
X108645295Y-121166666D02*
X108788152Y-121166666D01*
X108788152Y-121166666D02*
X108883390Y-121214285D01*
X108883390Y-121214285D02*
X108931009Y-121261904D01*
X108931009Y-121261904D02*
X108978628Y-121357142D01*
X108978628Y-121357142D02*
X108978628Y-121738094D01*
X108454819Y-120833332D02*
X108454819Y-120214285D01*
X108454819Y-120214285D02*
X108835771Y-120547618D01*
X108835771Y-120547618D02*
X108835771Y-120404761D01*
X108835771Y-120404761D02*
X108883390Y-120309523D01*
X108883390Y-120309523D02*
X108931009Y-120261904D01*
X108931009Y-120261904D02*
X109026247Y-120214285D01*
X109026247Y-120214285D02*
X109264342Y-120214285D01*
X109264342Y-120214285D02*
X109359580Y-120261904D01*
X109359580Y-120261904D02*
X109407200Y-120309523D01*
X109407200Y-120309523D02*
X109454819Y-120404761D01*
X109454819Y-120404761D02*
X109454819Y-120690475D01*
X109454819Y-120690475D02*
X109407200Y-120785713D01*
X109407200Y-120785713D02*
X109359580Y-120833332D01*
X105494819Y-113243094D02*
X104494819Y-113243094D01*
X104494819Y-113243094D02*
X104494819Y-113004999D01*
X104494819Y-113004999D02*
X104542438Y-112862142D01*
X104542438Y-112862142D02*
X104637676Y-112766904D01*
X104637676Y-112766904D02*
X104732914Y-112719285D01*
X104732914Y-112719285D02*
X104923390Y-112671666D01*
X104923390Y-112671666D02*
X105066247Y-112671666D01*
X105066247Y-112671666D02*
X105256723Y-112719285D01*
X105256723Y-112719285D02*
X105351961Y-112766904D01*
X105351961Y-112766904D02*
X105447200Y-112862142D01*
X105447200Y-112862142D02*
X105494819Y-113004999D01*
X105494819Y-113004999D02*
X105494819Y-113243094D01*
X104494819Y-112338332D02*
X104494819Y-111719285D01*
X104494819Y-111719285D02*
X104875771Y-112052618D01*
X104875771Y-112052618D02*
X104875771Y-111909761D01*
X104875771Y-111909761D02*
X104923390Y-111814523D01*
X104923390Y-111814523D02*
X104971009Y-111766904D01*
X104971009Y-111766904D02*
X105066247Y-111719285D01*
X105066247Y-111719285D02*
X105304342Y-111719285D01*
X105304342Y-111719285D02*
X105399580Y-111766904D01*
X105399580Y-111766904D02*
X105447200Y-111814523D01*
X105447200Y-111814523D02*
X105494819Y-111909761D01*
X105494819Y-111909761D02*
X105494819Y-112195475D01*
X105494819Y-112195475D02*
X105447200Y-112290713D01*
X105447200Y-112290713D02*
X105399580Y-112338332D01*
X109424819Y-94738094D02*
X108424819Y-94738094D01*
X108424819Y-94738094D02*
X108424819Y-94499999D01*
X108424819Y-94499999D02*
X108472438Y-94357142D01*
X108472438Y-94357142D02*
X108567676Y-94261904D01*
X108567676Y-94261904D02*
X108662914Y-94214285D01*
X108662914Y-94214285D02*
X108853390Y-94166666D01*
X108853390Y-94166666D02*
X108996247Y-94166666D01*
X108996247Y-94166666D02*
X109186723Y-94214285D01*
X109186723Y-94214285D02*
X109281961Y-94261904D01*
X109281961Y-94261904D02*
X109377200Y-94357142D01*
X109377200Y-94357142D02*
X109424819Y-94499999D01*
X109424819Y-94499999D02*
X109424819Y-94738094D01*
X108520057Y-93785713D02*
X108472438Y-93738094D01*
X108472438Y-93738094D02*
X108424819Y-93642856D01*
X108424819Y-93642856D02*
X108424819Y-93404761D01*
X108424819Y-93404761D02*
X108472438Y-93309523D01*
X108472438Y-93309523D02*
X108520057Y-93261904D01*
X108520057Y-93261904D02*
X108615295Y-93214285D01*
X108615295Y-93214285D02*
X108710533Y-93214285D01*
X108710533Y-93214285D02*
X108853390Y-93261904D01*
X108853390Y-93261904D02*
X109424819Y-93833332D01*
X109424819Y-93833332D02*
X109424819Y-93214285D01*
X109054819Y-90451904D02*
X108054819Y-90451904D01*
X109054819Y-89880476D02*
X108483390Y-90309047D01*
X108054819Y-89880476D02*
X108626247Y-90451904D01*
X106750057Y-72595238D02*
X106702438Y-72690476D01*
X106702438Y-72690476D02*
X106607200Y-72785714D01*
X106607200Y-72785714D02*
X106464342Y-72928571D01*
X106464342Y-72928571D02*
X106416723Y-73023809D01*
X106416723Y-73023809D02*
X106416723Y-73119047D01*
X106654819Y-73071428D02*
X106607200Y-73166666D01*
X106607200Y-73166666D02*
X106511961Y-73261904D01*
X106511961Y-73261904D02*
X106321485Y-73309523D01*
X106321485Y-73309523D02*
X105988152Y-73309523D01*
X105988152Y-73309523D02*
X105797676Y-73261904D01*
X105797676Y-73261904D02*
X105702438Y-73166666D01*
X105702438Y-73166666D02*
X105654819Y-73071428D01*
X105654819Y-73071428D02*
X105654819Y-72880952D01*
X105654819Y-72880952D02*
X105702438Y-72785714D01*
X105702438Y-72785714D02*
X105797676Y-72690476D01*
X105797676Y-72690476D02*
X105988152Y-72642857D01*
X105988152Y-72642857D02*
X106321485Y-72642857D01*
X106321485Y-72642857D02*
X106511961Y-72690476D01*
X106511961Y-72690476D02*
X106607200Y-72785714D01*
X106607200Y-72785714D02*
X106654819Y-72880952D01*
X106654819Y-72880952D02*
X106654819Y-73071428D01*
X106654819Y-71690476D02*
X106654819Y-72261904D01*
X106654819Y-71976190D02*
X105654819Y-71976190D01*
X105654819Y-71976190D02*
X105797676Y-72071428D01*
X105797676Y-72071428D02*
X105892914Y-72166666D01*
X105892914Y-72166666D02*
X105940533Y-72261904D01*
X153666666Y-100994819D02*
X153666666Y-101709104D01*
X153666666Y-101709104D02*
X153619047Y-101851961D01*
X153619047Y-101851961D02*
X153523809Y-101947200D01*
X153523809Y-101947200D02*
X153380952Y-101994819D01*
X153380952Y-101994819D02*
X153285714Y-101994819D01*
X154095238Y-101090057D02*
X154142857Y-101042438D01*
X154142857Y-101042438D02*
X154238095Y-100994819D01*
X154238095Y-100994819D02*
X154476190Y-100994819D01*
X154476190Y-100994819D02*
X154571428Y-101042438D01*
X154571428Y-101042438D02*
X154619047Y-101090057D01*
X154619047Y-101090057D02*
X154666666Y-101185295D01*
X154666666Y-101185295D02*
X154666666Y-101280533D01*
X154666666Y-101280533D02*
X154619047Y-101423390D01*
X154619047Y-101423390D02*
X154047619Y-101994819D01*
X154047619Y-101994819D02*
X154666666Y-101994819D01*
X93548095Y-99324819D02*
X93548095Y-100134342D01*
X93548095Y-100134342D02*
X93595714Y-100229580D01*
X93595714Y-100229580D02*
X93643333Y-100277200D01*
X93643333Y-100277200D02*
X93738571Y-100324819D01*
X93738571Y-100324819D02*
X93929047Y-100324819D01*
X93929047Y-100324819D02*
X94024285Y-100277200D01*
X94024285Y-100277200D02*
X94071904Y-100229580D01*
X94071904Y-100229580D02*
X94119523Y-100134342D01*
X94119523Y-100134342D02*
X94119523Y-99324819D01*
X95119523Y-100324819D02*
X94548095Y-100324819D01*
X94833809Y-100324819D02*
X94833809Y-99324819D01*
X94833809Y-99324819D02*
X94738571Y-99467676D01*
X94738571Y-99467676D02*
X94643333Y-99562914D01*
X94643333Y-99562914D02*
X94548095Y-99610533D01*
X160718575Y-99959580D02*
X160670956Y-100007200D01*
X160670956Y-100007200D02*
X160528099Y-100054819D01*
X160528099Y-100054819D02*
X160432861Y-100054819D01*
X160432861Y-100054819D02*
X160290004Y-100007200D01*
X160290004Y-100007200D02*
X160194766Y-99911961D01*
X160194766Y-99911961D02*
X160147147Y-99816723D01*
X160147147Y-99816723D02*
X160099528Y-99626247D01*
X160099528Y-99626247D02*
X160099528Y-99483390D01*
X160099528Y-99483390D02*
X160147147Y-99292914D01*
X160147147Y-99292914D02*
X160194766Y-99197676D01*
X160194766Y-99197676D02*
X160290004Y-99102438D01*
X160290004Y-99102438D02*
X160432861Y-99054819D01*
X160432861Y-99054819D02*
X160528099Y-99054819D01*
X160528099Y-99054819D02*
X160670956Y-99102438D01*
X160670956Y-99102438D02*
X160718575Y-99150057D01*
X161099528Y-99150057D02*
X161147147Y-99102438D01*
X161147147Y-99102438D02*
X161242385Y-99054819D01*
X161242385Y-99054819D02*
X161480480Y-99054819D01*
X161480480Y-99054819D02*
X161575718Y-99102438D01*
X161575718Y-99102438D02*
X161623337Y-99150057D01*
X161623337Y-99150057D02*
X161670956Y-99245295D01*
X161670956Y-99245295D02*
X161670956Y-99340533D01*
X161670956Y-99340533D02*
X161623337Y-99483390D01*
X161623337Y-99483390D02*
X161051909Y-100054819D01*
X161051909Y-100054819D02*
X161670956Y-100054819D01*
X160968575Y-111359580D02*
X160920956Y-111407200D01*
X160920956Y-111407200D02*
X160778099Y-111454819D01*
X160778099Y-111454819D02*
X160682861Y-111454819D01*
X160682861Y-111454819D02*
X160540004Y-111407200D01*
X160540004Y-111407200D02*
X160444766Y-111311961D01*
X160444766Y-111311961D02*
X160397147Y-111216723D01*
X160397147Y-111216723D02*
X160349528Y-111026247D01*
X160349528Y-111026247D02*
X160349528Y-110883390D01*
X160349528Y-110883390D02*
X160397147Y-110692914D01*
X160397147Y-110692914D02*
X160444766Y-110597676D01*
X160444766Y-110597676D02*
X160540004Y-110502438D01*
X160540004Y-110502438D02*
X160682861Y-110454819D01*
X160682861Y-110454819D02*
X160778099Y-110454819D01*
X160778099Y-110454819D02*
X160920956Y-110502438D01*
X160920956Y-110502438D02*
X160968575Y-110550057D01*
X161920956Y-111454819D02*
X161349528Y-111454819D01*
X161635242Y-111454819D02*
X161635242Y-110454819D01*
X161635242Y-110454819D02*
X161540004Y-110597676D01*
X161540004Y-110597676D02*
X161444766Y-110692914D01*
X161444766Y-110692914D02*
X161349528Y-110740533D01*
X81805932Y-98109580D02*
X81758313Y-98157200D01*
X81758313Y-98157200D02*
X81615456Y-98204819D01*
X81615456Y-98204819D02*
X81520218Y-98204819D01*
X81520218Y-98204819D02*
X81377361Y-98157200D01*
X81377361Y-98157200D02*
X81282123Y-98061961D01*
X81282123Y-98061961D02*
X81234504Y-97966723D01*
X81234504Y-97966723D02*
X81186885Y-97776247D01*
X81186885Y-97776247D02*
X81186885Y-97633390D01*
X81186885Y-97633390D02*
X81234504Y-97442914D01*
X81234504Y-97442914D02*
X81282123Y-97347676D01*
X81282123Y-97347676D02*
X81377361Y-97252438D01*
X81377361Y-97252438D02*
X81520218Y-97204819D01*
X81520218Y-97204819D02*
X81615456Y-97204819D01*
X81615456Y-97204819D02*
X81758313Y-97252438D01*
X81758313Y-97252438D02*
X81805932Y-97300057D01*
X82139266Y-97204819D02*
X82758313Y-97204819D01*
X82758313Y-97204819D02*
X82424980Y-97585771D01*
X82424980Y-97585771D02*
X82567837Y-97585771D01*
X82567837Y-97585771D02*
X82663075Y-97633390D01*
X82663075Y-97633390D02*
X82710694Y-97681009D01*
X82710694Y-97681009D02*
X82758313Y-97776247D01*
X82758313Y-97776247D02*
X82758313Y-98014342D01*
X82758313Y-98014342D02*
X82710694Y-98109580D01*
X82710694Y-98109580D02*
X82663075Y-98157200D01*
X82663075Y-98157200D02*
X82567837Y-98204819D01*
X82567837Y-98204819D02*
X82282123Y-98204819D01*
X82282123Y-98204819D02*
X82186885Y-98157200D01*
X82186885Y-98157200D02*
X82139266Y-98109580D01*
X83833333Y-87859580D02*
X83785714Y-87907200D01*
X83785714Y-87907200D02*
X83642857Y-87954819D01*
X83642857Y-87954819D02*
X83547619Y-87954819D01*
X83547619Y-87954819D02*
X83404762Y-87907200D01*
X83404762Y-87907200D02*
X83309524Y-87811961D01*
X83309524Y-87811961D02*
X83261905Y-87716723D01*
X83261905Y-87716723D02*
X83214286Y-87526247D01*
X83214286Y-87526247D02*
X83214286Y-87383390D01*
X83214286Y-87383390D02*
X83261905Y-87192914D01*
X83261905Y-87192914D02*
X83309524Y-87097676D01*
X83309524Y-87097676D02*
X83404762Y-87002438D01*
X83404762Y-87002438D02*
X83547619Y-86954819D01*
X83547619Y-86954819D02*
X83642857Y-86954819D01*
X83642857Y-86954819D02*
X83785714Y-87002438D01*
X83785714Y-87002438D02*
X83833333Y-87050057D01*
X84690476Y-87288152D02*
X84690476Y-87954819D01*
X84452381Y-86907200D02*
X84214286Y-87621485D01*
X84214286Y-87621485D02*
X84833333Y-87621485D01*
X83833333Y-96534819D02*
X83500000Y-96058628D01*
X83261905Y-96534819D02*
X83261905Y-95534819D01*
X83261905Y-95534819D02*
X83642857Y-95534819D01*
X83642857Y-95534819D02*
X83738095Y-95582438D01*
X83738095Y-95582438D02*
X83785714Y-95630057D01*
X83785714Y-95630057D02*
X83833333Y-95725295D01*
X83833333Y-95725295D02*
X83833333Y-95868152D01*
X83833333Y-95868152D02*
X83785714Y-95963390D01*
X83785714Y-95963390D02*
X83738095Y-96011009D01*
X83738095Y-96011009D02*
X83642857Y-96058628D01*
X83642857Y-96058628D02*
X83261905Y-96058628D01*
X84214286Y-95630057D02*
X84261905Y-95582438D01*
X84261905Y-95582438D02*
X84357143Y-95534819D01*
X84357143Y-95534819D02*
X84595238Y-95534819D01*
X84595238Y-95534819D02*
X84690476Y-95582438D01*
X84690476Y-95582438D02*
X84738095Y-95630057D01*
X84738095Y-95630057D02*
X84785714Y-95725295D01*
X84785714Y-95725295D02*
X84785714Y-95820533D01*
X84785714Y-95820533D02*
X84738095Y-95963390D01*
X84738095Y-95963390D02*
X84166667Y-96534819D01*
X84166667Y-96534819D02*
X84785714Y-96534819D01*
X93904819Y-114983333D02*
X94619104Y-114983333D01*
X94619104Y-114983333D02*
X94761961Y-115030952D01*
X94761961Y-115030952D02*
X94857200Y-115126190D01*
X94857200Y-115126190D02*
X94904819Y-115269047D01*
X94904819Y-115269047D02*
X94904819Y-115364285D01*
X93904819Y-114030952D02*
X93904819Y-114507142D01*
X93904819Y-114507142D02*
X94381009Y-114554761D01*
X94381009Y-114554761D02*
X94333390Y-114507142D01*
X94333390Y-114507142D02*
X94285771Y-114411904D01*
X94285771Y-114411904D02*
X94285771Y-114173809D01*
X94285771Y-114173809D02*
X94333390Y-114078571D01*
X94333390Y-114078571D02*
X94381009Y-114030952D01*
X94381009Y-114030952D02*
X94476247Y-113983333D01*
X94476247Y-113983333D02*
X94714342Y-113983333D01*
X94714342Y-113983333D02*
X94809580Y-114030952D01*
X94809580Y-114030952D02*
X94857200Y-114078571D01*
X94857200Y-114078571D02*
X94904819Y-114173809D01*
X94904819Y-114173809D02*
X94904819Y-114411904D01*
X94904819Y-114411904D02*
X94857200Y-114507142D01*
X94857200Y-114507142D02*
X94809580Y-114554761D01*
X96306666Y-65144819D02*
X96306666Y-65859104D01*
X96306666Y-65859104D02*
X96259047Y-66001961D01*
X96259047Y-66001961D02*
X96163809Y-66097200D01*
X96163809Y-66097200D02*
X96020952Y-66144819D01*
X96020952Y-66144819D02*
X95925714Y-66144819D01*
X97211428Y-65144819D02*
X97020952Y-65144819D01*
X97020952Y-65144819D02*
X96925714Y-65192438D01*
X96925714Y-65192438D02*
X96878095Y-65240057D01*
X96878095Y-65240057D02*
X96782857Y-65382914D01*
X96782857Y-65382914D02*
X96735238Y-65573390D01*
X96735238Y-65573390D02*
X96735238Y-65954342D01*
X96735238Y-65954342D02*
X96782857Y-66049580D01*
X96782857Y-66049580D02*
X96830476Y-66097200D01*
X96830476Y-66097200D02*
X96925714Y-66144819D01*
X96925714Y-66144819D02*
X97116190Y-66144819D01*
X97116190Y-66144819D02*
X97211428Y-66097200D01*
X97211428Y-66097200D02*
X97259047Y-66049580D01*
X97259047Y-66049580D02*
X97306666Y-65954342D01*
X97306666Y-65954342D02*
X97306666Y-65716247D01*
X97306666Y-65716247D02*
X97259047Y-65621009D01*
X97259047Y-65621009D02*
X97211428Y-65573390D01*
X97211428Y-65573390D02*
X97116190Y-65525771D01*
X97116190Y-65525771D02*
X96925714Y-65525771D01*
X96925714Y-65525771D02*
X96830476Y-65573390D01*
X96830476Y-65573390D02*
X96782857Y-65621009D01*
X96782857Y-65621009D02*
X96735238Y-65716247D01*
X114166666Y-82644819D02*
X114166666Y-83359104D01*
X114166666Y-83359104D02*
X114119047Y-83501961D01*
X114119047Y-83501961D02*
X114023809Y-83597200D01*
X114023809Y-83597200D02*
X113880952Y-83644819D01*
X113880952Y-83644819D02*
X113785714Y-83644819D01*
X114690476Y-83644819D02*
X114880952Y-83644819D01*
X114880952Y-83644819D02*
X114976190Y-83597200D01*
X114976190Y-83597200D02*
X115023809Y-83549580D01*
X115023809Y-83549580D02*
X115119047Y-83406723D01*
X115119047Y-83406723D02*
X115166666Y-83216247D01*
X115166666Y-83216247D02*
X115166666Y-82835295D01*
X115166666Y-82835295D02*
X115119047Y-82740057D01*
X115119047Y-82740057D02*
X115071428Y-82692438D01*
X115071428Y-82692438D02*
X114976190Y-82644819D01*
X114976190Y-82644819D02*
X114785714Y-82644819D01*
X114785714Y-82644819D02*
X114690476Y-82692438D01*
X114690476Y-82692438D02*
X114642857Y-82740057D01*
X114642857Y-82740057D02*
X114595238Y-82835295D01*
X114595238Y-82835295D02*
X114595238Y-83073390D01*
X114595238Y-83073390D02*
X114642857Y-83168628D01*
X114642857Y-83168628D02*
X114690476Y-83216247D01*
X114690476Y-83216247D02*
X114785714Y-83263866D01*
X114785714Y-83263866D02*
X114976190Y-83263866D01*
X114976190Y-83263866D02*
X115071428Y-83216247D01*
X115071428Y-83216247D02*
X115119047Y-83168628D01*
X115119047Y-83168628D02*
X115166666Y-83073390D01*
X113690476Y-112841379D02*
X113690476Y-113555664D01*
X113690476Y-113555664D02*
X113642857Y-113698521D01*
X113642857Y-113698521D02*
X113547619Y-113793760D01*
X113547619Y-113793760D02*
X113404762Y-113841379D01*
X113404762Y-113841379D02*
X113309524Y-113841379D01*
X114690476Y-113841379D02*
X114119048Y-113841379D01*
X114404762Y-113841379D02*
X114404762Y-112841379D01*
X114404762Y-112841379D02*
X114309524Y-112984236D01*
X114309524Y-112984236D02*
X114214286Y-113079474D01*
X114214286Y-113079474D02*
X114119048Y-113127093D01*
X115309524Y-112841379D02*
X115404762Y-112841379D01*
X115404762Y-112841379D02*
X115500000Y-112888998D01*
X115500000Y-112888998D02*
X115547619Y-112936617D01*
X115547619Y-112936617D02*
X115595238Y-113031855D01*
X115595238Y-113031855D02*
X115642857Y-113222331D01*
X115642857Y-113222331D02*
X115642857Y-113460426D01*
X115642857Y-113460426D02*
X115595238Y-113650902D01*
X115595238Y-113650902D02*
X115547619Y-113746140D01*
X115547619Y-113746140D02*
X115500000Y-113793760D01*
X115500000Y-113793760D02*
X115404762Y-113841379D01*
X115404762Y-113841379D02*
X115309524Y-113841379D01*
X115309524Y-113841379D02*
X115214286Y-113793760D01*
X115214286Y-113793760D02*
X115166667Y-113746140D01*
X115166667Y-113746140D02*
X115119048Y-113650902D01*
X115119048Y-113650902D02*
X115071429Y-113460426D01*
X115071429Y-113460426D02*
X115071429Y-113222331D01*
X115071429Y-113222331D02*
X115119048Y-113031855D01*
X115119048Y-113031855D02*
X115166667Y-112936617D01*
X115166667Y-112936617D02*
X115214286Y-112888998D01*
X115214286Y-112888998D02*
X115309524Y-112841379D01*
%TO.C,J7*%
D11*
X147670000Y-98866560D02*
X147670000Y-98986560D01*
X147670000Y-98986560D02*
X150330000Y-98986560D01*
X149000000Y-96326560D02*
X150330000Y-96326560D01*
X150330000Y-96326560D02*
X150330000Y-97656560D01*
X150330000Y-98866560D02*
X150330000Y-98986560D01*
%TO.C,R1*%
X109940000Y-74000000D02*
X110890000Y-74000000D01*
X115680000Y-74000000D02*
X114730000Y-74000000D01*
X110890000Y-73080000D02*
X114730000Y-73080000D01*
X114730000Y-74920000D01*
X110890000Y-74920000D01*
X110890000Y-73080000D01*
%TO.C,J8*%
X147670000Y-112346560D02*
X147670000Y-120026560D01*
X147670000Y-112346560D02*
X150330000Y-112346560D01*
X147670000Y-120026560D02*
X150330000Y-120026560D01*
X149000000Y-109746560D02*
X150330000Y-109746560D01*
X150330000Y-109746560D02*
X150330000Y-111076560D01*
X150330000Y-112346560D02*
X150330000Y-120026560D01*
%TO.C,D1*%
X97370000Y-78500000D02*
X98020000Y-78500000D01*
X101420000Y-79620000D02*
X101420000Y-77380000D01*
X101540000Y-79620000D02*
X101540000Y-77380000D01*
X101660000Y-79620000D02*
X101660000Y-77380000D01*
X102910000Y-78500000D02*
X102260000Y-78500000D01*
X98020000Y-77380000D02*
X102260000Y-77380000D01*
X102260000Y-79620000D01*
X98020000Y-79620000D01*
X98020000Y-77380000D01*
%TO.C,J1*%
X147670000Y-84366560D02*
X147670000Y-84486560D01*
X147670000Y-84486560D02*
X150330000Y-84486560D01*
X149000000Y-81826560D02*
X150330000Y-81826560D01*
X150330000Y-81826560D02*
X150330000Y-83156560D01*
X150330000Y-84366560D02*
X150330000Y-84486560D01*
%TO.C,U2*%
X117500000Y-127620000D02*
X145899999Y-127620000D01*
X117500001Y-79700000D02*
X117500000Y-127620000D01*
X122730120Y-73786880D02*
X140713320Y-73786880D01*
X122730120Y-79679680D02*
X122730120Y-73786880D01*
X140713320Y-73786880D02*
X140713320Y-79679680D01*
X145899999Y-127620000D02*
X145900000Y-79700000D01*
X145900000Y-79700000D02*
X117500001Y-79700000D01*
%TO.C,J3*%
X100620000Y-88810000D02*
X102000000Y-88810000D01*
X100620000Y-90190000D02*
X100620000Y-88810000D01*
X100620000Y-91460000D02*
X100620000Y-99190000D01*
X100620000Y-91460000D02*
X103380000Y-91460000D01*
X100620000Y-99190000D02*
X103380000Y-99190000D01*
X103380000Y-91460000D02*
X103380000Y-99190000D01*
%TO.C,J11*%
X147670000Y-102656560D02*
X147670000Y-100056560D01*
X147670000Y-105256560D02*
X147670000Y-103926560D01*
X149000000Y-105256560D02*
X147670000Y-105256560D01*
X150330000Y-100056560D02*
X147670000Y-100056560D01*
X150330000Y-102656560D02*
X147670000Y-102656560D01*
X150330000Y-102656560D02*
X150330000Y-100056560D01*
%TO.C,J4*%
X153120000Y-89850000D02*
X153120000Y-79580000D01*
X155880000Y-79580000D02*
X153120000Y-79580000D01*
X155880000Y-89850000D02*
X153120000Y-89850000D01*
X155880000Y-89850000D02*
X155880000Y-79580000D01*
X155880000Y-91120000D02*
X155880000Y-92500000D01*
X155880000Y-92500000D02*
X154500000Y-92500000D01*
%TO.C,R3*%
X109000000Y-118130000D02*
X109000000Y-119080000D01*
X109000000Y-123870000D02*
X109000000Y-122920000D01*
X108080000Y-119080000D02*
X109920000Y-119080000D01*
X109920000Y-122920000D01*
X108080000Y-122920000D01*
X108080000Y-119080000D01*
%TO.C,D3*%
X107455000Y-115065000D02*
X110545000Y-115065000D01*
X107455170Y-115065000D02*
G75*
G02*
X109000000Y-109515000I1544830J2560000D01*
G01*
X109000000Y-109515000D02*
G75*
G02*
X110544830Y-115065000I0J-2990000D01*
G01*
X111500000Y-112505000D02*
G75*
G02*
X106500000Y-112505000I-2500000J0D01*
G01*
X106500000Y-112505000D02*
G75*
G02*
X111500000Y-112505000I2500000J0D01*
G01*
%TO.C,D2*%
X105030000Y-91280000D02*
X105030000Y-96720000D01*
X105030000Y-96720000D02*
X105160000Y-96720000D01*
X105160000Y-91280000D02*
X105030000Y-91280000D01*
X107840000Y-91280000D02*
X107970000Y-91280000D01*
X107970000Y-91280000D02*
X107970000Y-96720000D01*
X107970000Y-92060000D02*
X105030000Y-92060000D01*
X107970000Y-92180000D02*
X105030000Y-92180000D01*
X107970000Y-92300000D02*
X105030000Y-92300000D01*
X107970000Y-96720000D02*
X107840000Y-96720000D01*
%TO.C,Q1*%
X100790000Y-70700000D02*
X100790000Y-74300000D01*
X100801522Y-70661522D02*
G75*
G02*
X105240001Y-72500000I1838478J-1838478D01*
G01*
X105240000Y-72500000D02*
G75*
G02*
X100801522Y-74338478I-2600000J0D01*
G01*
%TO.C,J2*%
X152620000Y-102540000D02*
X154000000Y-102540000D01*
X152620000Y-103920000D02*
X152620000Y-102540000D01*
X152620000Y-105190000D02*
X152620000Y-112920000D01*
X152620000Y-105190000D02*
X155380000Y-105190000D01*
X152620000Y-112920000D02*
X155380000Y-112920000D01*
X155380000Y-105190000D02*
X155380000Y-112920000D01*
%TO.C,U1*%
X91660000Y-88590000D02*
X91660000Y-98870000D01*
X91660000Y-98870000D02*
X93310000Y-98870000D01*
X95310000Y-98870000D02*
X96960000Y-98870000D01*
X96960000Y-88590000D02*
X91660000Y-88590000D01*
X96960000Y-98870000D02*
X96960000Y-88590000D01*
X93310000Y-98870000D02*
G75*
G02*
X95310000Y-98870000I1000000J0D01*
G01*
%TO.C,C2*%
X157385001Y-102161000D02*
X158015001Y-102161000D01*
X157700001Y-101846000D02*
X157700001Y-102476000D01*
X160885242Y-100770000D02*
X160885242Y-107230000D01*
X160925242Y-100770000D02*
X160925242Y-107230000D01*
X160965242Y-100771000D02*
X160965242Y-107229000D01*
X161005242Y-100772000D02*
X161005242Y-107228000D01*
X161045242Y-100774000D02*
X161045242Y-107226000D01*
X161085242Y-100776000D02*
X161085242Y-107224000D01*
X161125242Y-100779000D02*
X161125242Y-102960000D01*
X161125242Y-105040000D02*
X161125242Y-107221000D01*
X161165242Y-100782000D02*
X161165242Y-102960000D01*
X161165242Y-105040000D02*
X161165242Y-107218000D01*
X161205242Y-100786000D02*
X161205242Y-102960000D01*
X161205242Y-105040000D02*
X161205242Y-107214000D01*
X161245242Y-100790000D02*
X161245242Y-102960000D01*
X161245242Y-105040000D02*
X161245242Y-107210000D01*
X161285242Y-100795000D02*
X161285242Y-102960000D01*
X161285242Y-105040000D02*
X161285242Y-107205000D01*
X161325242Y-100800000D02*
X161325242Y-102960000D01*
X161325242Y-105040000D02*
X161325242Y-107200000D01*
X161365242Y-100805000D02*
X161365242Y-102960000D01*
X161365242Y-105040000D02*
X161365242Y-107195000D01*
X161405242Y-100812000D02*
X161405242Y-102960000D01*
X161405242Y-105040000D02*
X161405242Y-107188000D01*
X161445242Y-100818000D02*
X161445242Y-102960000D01*
X161445242Y-105040000D02*
X161445242Y-107182000D01*
X161485242Y-100826000D02*
X161485242Y-102960000D01*
X161485242Y-105040000D02*
X161485242Y-107174000D01*
X161525242Y-100833000D02*
X161525242Y-102960000D01*
X161525242Y-105040000D02*
X161525242Y-107167000D01*
X161565242Y-100841000D02*
X161565242Y-102960000D01*
X161565242Y-105040000D02*
X161565242Y-107159000D01*
X161605242Y-100850000D02*
X161605242Y-102960000D01*
X161605242Y-105040000D02*
X161605242Y-107150000D01*
X161645242Y-100860000D02*
X161645242Y-102960000D01*
X161645242Y-105040000D02*
X161645242Y-107140000D01*
X161685242Y-100869000D02*
X161685242Y-102960000D01*
X161685242Y-105040000D02*
X161685242Y-107131000D01*
X161725242Y-100880000D02*
X161725242Y-102960000D01*
X161725242Y-105040000D02*
X161725242Y-107120000D01*
X161765242Y-100891000D02*
X161765242Y-102960000D01*
X161765242Y-105040000D02*
X161765242Y-107109000D01*
X161805242Y-100902000D02*
X161805242Y-102960000D01*
X161805242Y-105040000D02*
X161805242Y-107098000D01*
X161845242Y-100914000D02*
X161845242Y-102960000D01*
X161845242Y-105040000D02*
X161845242Y-107086000D01*
X161885242Y-100927000D02*
X161885242Y-102960000D01*
X161885242Y-105040000D02*
X161885242Y-107073000D01*
X161925242Y-100940000D02*
X161925242Y-102960000D01*
X161925242Y-105040000D02*
X161925242Y-107060000D01*
X161965242Y-100953000D02*
X161965242Y-102960000D01*
X161965242Y-105040000D02*
X161965242Y-107047000D01*
X162005242Y-100968000D02*
X162005242Y-102960000D01*
X162005242Y-105040000D02*
X162005242Y-107032000D01*
X162045242Y-100983000D02*
X162045242Y-102960000D01*
X162045242Y-105040000D02*
X162045242Y-107017000D01*
X162085242Y-100998000D02*
X162085242Y-102960000D01*
X162085242Y-105040000D02*
X162085242Y-107002000D01*
X162125242Y-101014000D02*
X162125242Y-102960000D01*
X162125242Y-105040000D02*
X162125242Y-106986000D01*
X162165242Y-101031000D02*
X162165242Y-102960000D01*
X162165242Y-105040000D02*
X162165242Y-106969000D01*
X162205242Y-101048000D02*
X162205242Y-102960000D01*
X162205242Y-105040000D02*
X162205242Y-106952000D01*
X162245242Y-101066000D02*
X162245242Y-102960000D01*
X162245242Y-105040000D02*
X162245242Y-106934000D01*
X162285242Y-101085000D02*
X162285242Y-102960000D01*
X162285242Y-105040000D02*
X162285242Y-106915000D01*
X162325242Y-101104000D02*
X162325242Y-102960000D01*
X162325242Y-105040000D02*
X162325242Y-106896000D01*
X162365242Y-101124000D02*
X162365242Y-102960000D01*
X162365242Y-105040000D02*
X162365242Y-106876000D01*
X162405242Y-101145000D02*
X162405242Y-102960000D01*
X162405242Y-105040000D02*
X162405242Y-106855000D01*
X162445242Y-101166000D02*
X162445242Y-102960000D01*
X162445242Y-105040000D02*
X162445242Y-106834000D01*
X162485242Y-101188000D02*
X162485242Y-102960000D01*
X162485242Y-105040000D02*
X162485242Y-106812000D01*
X162525242Y-101211000D02*
X162525242Y-102960000D01*
X162525242Y-105040000D02*
X162525242Y-106789000D01*
X162565242Y-101235000D02*
X162565242Y-102960000D01*
X162565242Y-105040000D02*
X162565242Y-106765000D01*
X162605242Y-101259000D02*
X162605242Y-102960000D01*
X162605242Y-105040000D02*
X162605242Y-106741000D01*
X162645242Y-101284000D02*
X162645242Y-102960000D01*
X162645242Y-105040000D02*
X162645242Y-106716000D01*
X162685242Y-101310000D02*
X162685242Y-102960000D01*
X162685242Y-105040000D02*
X162685242Y-106690000D01*
X162725242Y-101337000D02*
X162725242Y-102960000D01*
X162725242Y-105040000D02*
X162725242Y-106663000D01*
X162765242Y-101364000D02*
X162765242Y-102960000D01*
X162765242Y-105040000D02*
X162765242Y-106636000D01*
X162805242Y-101393000D02*
X162805242Y-102960000D01*
X162805242Y-105040000D02*
X162805242Y-106607000D01*
X162845242Y-101423000D02*
X162845242Y-102960000D01*
X162845242Y-105040000D02*
X162845242Y-106577000D01*
X162885242Y-101453000D02*
X162885242Y-102960000D01*
X162885242Y-105040000D02*
X162885242Y-106547000D01*
X162925242Y-101484000D02*
X162925242Y-102960000D01*
X162925242Y-105040000D02*
X162925242Y-106516000D01*
X162965242Y-101517000D02*
X162965242Y-102960000D01*
X162965242Y-105040000D02*
X162965242Y-106483000D01*
X163005242Y-101550000D02*
X163005242Y-102960000D01*
X163005242Y-105040000D02*
X163005242Y-106450000D01*
X163045242Y-101585000D02*
X163045242Y-102960000D01*
X163045242Y-105040000D02*
X163045242Y-106415000D01*
X163085242Y-101621000D02*
X163085242Y-102960000D01*
X163085242Y-105040000D02*
X163085242Y-106379000D01*
X163125242Y-101658000D02*
X163125242Y-102960000D01*
X163125242Y-105040000D02*
X163125242Y-106342000D01*
X163165242Y-101696000D02*
X163165242Y-102960000D01*
X163165242Y-105040000D02*
X163165242Y-106304000D01*
X163205242Y-101736000D02*
X163205242Y-106264000D01*
X163245242Y-101777000D02*
X163245242Y-106223000D01*
X163285242Y-101819000D02*
X163285242Y-106181000D01*
X163325242Y-101863000D02*
X163325242Y-106137000D01*
X163365242Y-101909000D02*
X163365242Y-106091000D01*
X163405242Y-101956000D02*
X163405242Y-106044000D01*
X163445242Y-102005000D02*
X163445242Y-105995000D01*
X163485242Y-102057000D02*
X163485242Y-105943000D01*
X163525242Y-102110000D02*
X163525242Y-105890000D01*
X163565242Y-102166000D02*
X163565242Y-105834000D01*
X163605242Y-102225000D02*
X163605242Y-105775000D01*
X163645242Y-102286000D02*
X163645242Y-105714000D01*
X163685242Y-102351000D02*
X163685242Y-105649000D01*
X163725242Y-102419000D02*
X163725242Y-105581000D01*
X163765242Y-102491000D02*
X163765242Y-105509000D01*
X163805242Y-102568000D02*
X163805242Y-105432000D01*
X163845242Y-102650000D02*
X163845242Y-105350000D01*
X163885242Y-102739000D02*
X163885242Y-105261000D01*
X163925242Y-102835000D02*
X163925242Y-105165000D01*
X163965242Y-102942000D02*
X163965242Y-105058000D01*
X164005242Y-103061000D02*
X164005242Y-104939000D01*
X164045242Y-103199000D02*
X164045242Y-104801000D01*
X164085242Y-103367000D02*
X164085242Y-104633000D01*
X164125242Y-103598000D02*
X164125242Y-104402000D01*
X164155242Y-104000000D02*
G75*
G02*
X157615242Y-104000000I-3270000J0D01*
G01*
X157615242Y-104000000D02*
G75*
G02*
X164155242Y-104000000I3270000J0D01*
G01*
%TO.C,C1*%
X157385001Y-109661000D02*
X158015001Y-109661000D01*
X157700001Y-109346000D02*
X157700001Y-109976000D01*
X160885242Y-108270000D02*
X160885242Y-114730000D01*
X160925242Y-108270000D02*
X160925242Y-114730000D01*
X160965242Y-108271000D02*
X160965242Y-114729000D01*
X161005242Y-108272000D02*
X161005242Y-114728000D01*
X161045242Y-108274000D02*
X161045242Y-114726000D01*
X161085242Y-108276000D02*
X161085242Y-114724000D01*
X161125242Y-108279000D02*
X161125242Y-110460000D01*
X161125242Y-112540000D02*
X161125242Y-114721000D01*
X161165242Y-108282000D02*
X161165242Y-110460000D01*
X161165242Y-112540000D02*
X161165242Y-114718000D01*
X161205242Y-108286000D02*
X161205242Y-110460000D01*
X161205242Y-112540000D02*
X161205242Y-114714000D01*
X161245242Y-108290000D02*
X161245242Y-110460000D01*
X161245242Y-112540000D02*
X161245242Y-114710000D01*
X161285242Y-108295000D02*
X161285242Y-110460000D01*
X161285242Y-112540000D02*
X161285242Y-114705000D01*
X161325242Y-108300000D02*
X161325242Y-110460000D01*
X161325242Y-112540000D02*
X161325242Y-114700000D01*
X161365242Y-108305000D02*
X161365242Y-110460000D01*
X161365242Y-112540000D02*
X161365242Y-114695000D01*
X161405242Y-108312000D02*
X161405242Y-110460000D01*
X161405242Y-112540000D02*
X161405242Y-114688000D01*
X161445242Y-108318000D02*
X161445242Y-110460000D01*
X161445242Y-112540000D02*
X161445242Y-114682000D01*
X161485242Y-108326000D02*
X161485242Y-110460000D01*
X161485242Y-112540000D02*
X161485242Y-114674000D01*
X161525242Y-108333000D02*
X161525242Y-110460000D01*
X161525242Y-112540000D02*
X161525242Y-114667000D01*
X161565242Y-108341000D02*
X161565242Y-110460000D01*
X161565242Y-112540000D02*
X161565242Y-114659000D01*
X161605242Y-108350000D02*
X161605242Y-110460000D01*
X161605242Y-112540000D02*
X161605242Y-114650000D01*
X161645242Y-108360000D02*
X161645242Y-110460000D01*
X161645242Y-112540000D02*
X161645242Y-114640000D01*
X161685242Y-108369000D02*
X161685242Y-110460000D01*
X161685242Y-112540000D02*
X161685242Y-114631000D01*
X161725242Y-108380000D02*
X161725242Y-110460000D01*
X161725242Y-112540000D02*
X161725242Y-114620000D01*
X161765242Y-108391000D02*
X161765242Y-110460000D01*
X161765242Y-112540000D02*
X161765242Y-114609000D01*
X161805242Y-108402000D02*
X161805242Y-110460000D01*
X161805242Y-112540000D02*
X161805242Y-114598000D01*
X161845242Y-108414000D02*
X161845242Y-110460000D01*
X161845242Y-112540000D02*
X161845242Y-114586000D01*
X161885242Y-108427000D02*
X161885242Y-110460000D01*
X161885242Y-112540000D02*
X161885242Y-114573000D01*
X161925242Y-108440000D02*
X161925242Y-110460000D01*
X161925242Y-112540000D02*
X161925242Y-114560000D01*
X161965242Y-108453000D02*
X161965242Y-110460000D01*
X161965242Y-112540000D02*
X161965242Y-114547000D01*
X162005242Y-108468000D02*
X162005242Y-110460000D01*
X162005242Y-112540000D02*
X162005242Y-114532000D01*
X162045242Y-108483000D02*
X162045242Y-110460000D01*
X162045242Y-112540000D02*
X162045242Y-114517000D01*
X162085242Y-108498000D02*
X162085242Y-110460000D01*
X162085242Y-112540000D02*
X162085242Y-114502000D01*
X162125242Y-108514000D02*
X162125242Y-110460000D01*
X162125242Y-112540000D02*
X162125242Y-114486000D01*
X162165242Y-108531000D02*
X162165242Y-110460000D01*
X162165242Y-112540000D02*
X162165242Y-114469000D01*
X162205242Y-108548000D02*
X162205242Y-110460000D01*
X162205242Y-112540000D02*
X162205242Y-114452000D01*
X162245242Y-108566000D02*
X162245242Y-110460000D01*
X162245242Y-112540000D02*
X162245242Y-114434000D01*
X162285242Y-108585000D02*
X162285242Y-110460000D01*
X162285242Y-112540000D02*
X162285242Y-114415000D01*
X162325242Y-108604000D02*
X162325242Y-110460000D01*
X162325242Y-112540000D02*
X162325242Y-114396000D01*
X162365242Y-108624000D02*
X162365242Y-110460000D01*
X162365242Y-112540000D02*
X162365242Y-114376000D01*
X162405242Y-108645000D02*
X162405242Y-110460000D01*
X162405242Y-112540000D02*
X162405242Y-114355000D01*
X162445242Y-108666000D02*
X162445242Y-110460000D01*
X162445242Y-112540000D02*
X162445242Y-114334000D01*
X162485242Y-108688000D02*
X162485242Y-110460000D01*
X162485242Y-112540000D02*
X162485242Y-114312000D01*
X162525242Y-108711000D02*
X162525242Y-110460000D01*
X162525242Y-112540000D02*
X162525242Y-114289000D01*
X162565242Y-108735000D02*
X162565242Y-110460000D01*
X162565242Y-112540000D02*
X162565242Y-114265000D01*
X162605242Y-108759000D02*
X162605242Y-110460000D01*
X162605242Y-112540000D02*
X162605242Y-114241000D01*
X162645242Y-108784000D02*
X162645242Y-110460000D01*
X162645242Y-112540000D02*
X162645242Y-114216000D01*
X162685242Y-108810000D02*
X162685242Y-110460000D01*
X162685242Y-112540000D02*
X162685242Y-114190000D01*
X162725242Y-108837000D02*
X162725242Y-110460000D01*
X162725242Y-112540000D02*
X162725242Y-114163000D01*
X162765242Y-108864000D02*
X162765242Y-110460000D01*
X162765242Y-112540000D02*
X162765242Y-114136000D01*
X162805242Y-108893000D02*
X162805242Y-110460000D01*
X162805242Y-112540000D02*
X162805242Y-114107000D01*
X162845242Y-108923000D02*
X162845242Y-110460000D01*
X162845242Y-112540000D02*
X162845242Y-114077000D01*
X162885242Y-108953000D02*
X162885242Y-110460000D01*
X162885242Y-112540000D02*
X162885242Y-114047000D01*
X162925242Y-108984000D02*
X162925242Y-110460000D01*
X162925242Y-112540000D02*
X162925242Y-114016000D01*
X162965242Y-109017000D02*
X162965242Y-110460000D01*
X162965242Y-112540000D02*
X162965242Y-113983000D01*
X163005242Y-109050000D02*
X163005242Y-110460000D01*
X163005242Y-112540000D02*
X163005242Y-113950000D01*
X163045242Y-109085000D02*
X163045242Y-110460000D01*
X163045242Y-112540000D02*
X163045242Y-113915000D01*
X163085242Y-109121000D02*
X163085242Y-110460000D01*
X163085242Y-112540000D02*
X163085242Y-113879000D01*
X163125242Y-109158000D02*
X163125242Y-110460000D01*
X163125242Y-112540000D02*
X163125242Y-113842000D01*
X163165242Y-109196000D02*
X163165242Y-110460000D01*
X163165242Y-112540000D02*
X163165242Y-113804000D01*
X163205242Y-109236000D02*
X163205242Y-113764000D01*
X163245242Y-109277000D02*
X163245242Y-113723000D01*
X163285242Y-109319000D02*
X163285242Y-113681000D01*
X163325242Y-109363000D02*
X163325242Y-113637000D01*
X163365242Y-109409000D02*
X163365242Y-113591000D01*
X163405242Y-109456000D02*
X163405242Y-113544000D01*
X163445242Y-109505000D02*
X163445242Y-113495000D01*
X163485242Y-109557000D02*
X163485242Y-113443000D01*
X163525242Y-109610000D02*
X163525242Y-113390000D01*
X163565242Y-109666000D02*
X163565242Y-113334000D01*
X163605242Y-109725000D02*
X163605242Y-113275000D01*
X163645242Y-109786000D02*
X163645242Y-113214000D01*
X163685242Y-109851000D02*
X163685242Y-113149000D01*
X163725242Y-109919000D02*
X163725242Y-113081000D01*
X163765242Y-109991000D02*
X163765242Y-113009000D01*
X163805242Y-110068000D02*
X163805242Y-112932000D01*
X163845242Y-110150000D02*
X163845242Y-112850000D01*
X163885242Y-110239000D02*
X163885242Y-112761000D01*
X163925242Y-110335000D02*
X163925242Y-112665000D01*
X163965242Y-110442000D02*
X163965242Y-112558000D01*
X164005242Y-110561000D02*
X164005242Y-112439000D01*
X164045242Y-110699000D02*
X164045242Y-112301000D01*
X164085242Y-110867000D02*
X164085242Y-112133000D01*
X164125242Y-111098000D02*
X164125242Y-111902000D01*
X164155242Y-111500000D02*
G75*
G02*
X157615242Y-111500000I-3270000J0D01*
G01*
X157615242Y-111500000D02*
G75*
G02*
X164155242Y-111500000I3270000J0D01*
G01*
%TO.C,C3*%
X79892599Y-94870000D02*
X79892599Y-94130000D01*
X79932599Y-95037000D02*
X79932599Y-93963000D01*
X79972599Y-95163000D02*
X79972599Y-93837000D01*
X80012599Y-95268000D02*
X80012599Y-93732000D01*
X80052599Y-95359000D02*
X80052599Y-93641000D01*
X80092599Y-95440000D02*
X80092599Y-93560000D01*
X80132599Y-95513000D02*
X80132599Y-93487000D01*
X80172599Y-93660000D02*
X80172599Y-93420000D01*
X80172599Y-95580000D02*
X80172599Y-95340000D01*
X80212599Y-93660000D02*
X80212599Y-93358000D01*
X80212599Y-95642000D02*
X80212599Y-95340000D01*
X80252599Y-93660000D02*
X80252599Y-93301000D01*
X80252599Y-95699000D02*
X80252599Y-95340000D01*
X80292599Y-93660000D02*
X80292599Y-93247000D01*
X80292599Y-95753000D02*
X80292599Y-95340000D01*
X80332599Y-93660000D02*
X80332599Y-93197000D01*
X80332599Y-95803000D02*
X80332599Y-95340000D01*
X80372599Y-93660000D02*
X80372599Y-93149000D01*
X80372599Y-95851000D02*
X80372599Y-95340000D01*
X80412599Y-93660000D02*
X80412599Y-93104000D01*
X80412599Y-95896000D02*
X80412599Y-95340000D01*
X80452599Y-93660000D02*
X80452599Y-93062000D01*
X80452599Y-95938000D02*
X80452599Y-95340000D01*
X80492599Y-93660000D02*
X80492599Y-93022000D01*
X80492599Y-95978000D02*
X80492599Y-95340000D01*
X80532599Y-93660000D02*
X80532599Y-92984000D01*
X80532599Y-96016000D02*
X80532599Y-95340000D01*
X80572599Y-93660000D02*
X80572599Y-92948000D01*
X80572599Y-96052000D02*
X80572599Y-95340000D01*
X80612599Y-93660000D02*
X80612599Y-92914000D01*
X80612599Y-96086000D02*
X80612599Y-95340000D01*
X80652599Y-93660000D02*
X80652599Y-92881000D01*
X80652599Y-96119000D02*
X80652599Y-95340000D01*
X80692599Y-93660000D02*
X80692599Y-92850000D01*
X80692599Y-96150000D02*
X80692599Y-95340000D01*
X80732599Y-93660000D02*
X80732599Y-92820000D01*
X80732599Y-96180000D02*
X80732599Y-95340000D01*
X80772599Y-93660000D02*
X80772599Y-92792000D01*
X80772599Y-96208000D02*
X80772599Y-95340000D01*
X80812599Y-93660000D02*
X80812599Y-92766000D01*
X80812599Y-96234000D02*
X80812599Y-95340000D01*
X80852599Y-93660000D02*
X80852599Y-92740000D01*
X80852599Y-96260000D02*
X80852599Y-95340000D01*
X80892599Y-93660000D02*
X80892599Y-92716000D01*
X80892599Y-96284000D02*
X80892599Y-95340000D01*
X80932599Y-93660000D02*
X80932599Y-92693000D01*
X80932599Y-96307000D02*
X80932599Y-95340000D01*
X80972599Y-93660000D02*
X80972599Y-92671000D01*
X80972599Y-96329000D02*
X80972599Y-95340000D01*
X81012599Y-93660000D02*
X81012599Y-92650000D01*
X81012599Y-96350000D02*
X81012599Y-95340000D01*
X81052599Y-93660000D02*
X81052599Y-92630000D01*
X81052599Y-96370000D02*
X81052599Y-95340000D01*
X81092599Y-93660000D02*
X81092599Y-92611000D01*
X81092599Y-96389000D02*
X81092599Y-95340000D01*
X81132599Y-93660000D02*
X81132599Y-92594000D01*
X81132599Y-96406000D02*
X81132599Y-95340000D01*
X81172599Y-93660000D02*
X81172599Y-92577000D01*
X81172599Y-96423000D02*
X81172599Y-95340000D01*
X81212599Y-93660000D02*
X81212599Y-92561000D01*
X81212599Y-96439000D02*
X81212599Y-95340000D01*
X81252599Y-93660000D02*
X81252599Y-92546000D01*
X81252599Y-96454000D02*
X81252599Y-95340000D01*
X81292599Y-93660000D02*
X81292599Y-92532000D01*
X81292599Y-96468000D02*
X81292599Y-95340000D01*
X81332599Y-93660000D02*
X81332599Y-92519000D01*
X81332599Y-96481000D02*
X81332599Y-95340000D01*
X81372599Y-93660000D02*
X81372599Y-92507000D01*
X81372599Y-96493000D02*
X81372599Y-95340000D01*
X81412599Y-93660000D02*
X81412599Y-92495000D01*
X81412599Y-96505000D02*
X81412599Y-95340000D01*
X81452599Y-93660000D02*
X81452599Y-92485000D01*
X81452599Y-96515000D02*
X81452599Y-95340000D01*
X81492599Y-93660000D02*
X81492599Y-92475000D01*
X81492599Y-96525000D02*
X81492599Y-95340000D01*
X81532599Y-93660000D02*
X81532599Y-92466000D01*
X81532599Y-96534000D02*
X81532599Y-95340000D01*
X81572599Y-93660000D02*
X81572599Y-92458000D01*
X81572599Y-96542000D02*
X81572599Y-95340000D01*
X81612599Y-93660000D02*
X81612599Y-92451000D01*
X81612599Y-96549000D02*
X81612599Y-95340000D01*
X81652599Y-93660000D02*
X81652599Y-92444000D01*
X81652599Y-96556000D02*
X81652599Y-95340000D01*
X81692599Y-93660000D02*
X81692599Y-92439000D01*
X81692599Y-96561000D02*
X81692599Y-95340000D01*
X81732599Y-93660000D02*
X81732599Y-92434000D01*
X81732599Y-96566000D02*
X81732599Y-95340000D01*
X81772599Y-93660000D02*
X81772599Y-92429000D01*
X81772599Y-96571000D02*
X81772599Y-95340000D01*
X81812599Y-96574000D02*
X81812599Y-92426000D01*
X81852599Y-96577000D02*
X81852599Y-92423000D01*
X81892599Y-96578000D02*
X81892599Y-92422000D01*
X81932599Y-96580000D02*
X81932599Y-92420000D01*
X81972599Y-96580000D02*
X81972599Y-92420000D01*
X84042400Y-95895000D02*
X84042400Y-95495000D01*
X84242400Y-95695000D02*
X83842400Y-95695000D01*
X84092599Y-94500000D02*
G75*
G02*
X79852599Y-94500000I-2120000J0D01*
G01*
X79852599Y-94500000D02*
G75*
G02*
X84092599Y-94500000I2120000J0D01*
G01*
%TO.C,C4*%
X79380000Y-88630000D02*
X88620000Y-88630000D01*
X79380000Y-91370000D02*
X79380000Y-88630000D01*
X88620000Y-88630000D02*
X88620000Y-91370000D01*
X88620000Y-91370000D02*
X79380000Y-91370000D01*
%TO.C,R2*%
X81130000Y-98000000D02*
X82080000Y-98000000D01*
X86870000Y-98000000D02*
X85920000Y-98000000D01*
X82080000Y-97080000D02*
X85920000Y-97080000D01*
X85920000Y-98920000D01*
X82080000Y-98920000D01*
X82080000Y-97080000D01*
%TO.C,J6*%
X95310000Y-69730000D02*
X95310000Y-74870000D01*
X95310000Y-69730000D02*
X97970000Y-69730000D01*
X95310000Y-74870000D02*
X97970000Y-74870000D01*
X96640000Y-67130000D02*
X97970000Y-67130000D01*
X97970000Y-67130000D02*
X97970000Y-68460000D01*
X97970000Y-69730000D02*
X97970000Y-74870000D01*
%TO.C,J9*%
X113170000Y-87230000D02*
X113170000Y-105070000D01*
X113170000Y-87230000D02*
X115830000Y-87230000D01*
X113170000Y-105070000D02*
X115830000Y-105070000D01*
X114500000Y-84630000D02*
X115830000Y-84630000D01*
X115830000Y-84630000D02*
X115830000Y-85960000D01*
X115830000Y-87230000D02*
X115830000Y-105070000D01*
%TO.C,J10*%
X113170000Y-117366560D02*
X113170000Y-117486560D01*
X113170000Y-117486560D02*
X115830000Y-117486560D01*
X114500000Y-114826560D02*
X115830000Y-114826560D01*
X115830000Y-114826560D02*
X115830000Y-116156560D01*
X115830000Y-117366560D02*
X115830000Y-117486560D01*
%TD*%
M02*
