%TF.GenerationSoftware,KiCad,Pcbnew,10.0.3*%
%TF.CreationDate,2026-05-31T00:11:12+02:00*%
%TF.ProjectId,wake_up,77616b65-5f75-4702-9e6b-696361645f70,rev?*%
%TF.SameCoordinates,Original*%
%TF.FileFunction,Copper,L2,Bot*%
%TF.FilePolarity,Positive*%
%FSLAX46Y46*%
G04 Gerber Fmt 4.6, Leading zero omitted, Abs format (unit mm)*
G04 Created by KiCad (PCBNEW 10.0.3) date 2026-05-31 00:11:12*
%MOMM*%
%LPD*%
G01*
G04 APERTURE LIST*
G04 Aperture macros list*
%AMRoundRect*
0 Rectangle with rounded corners*
0 $1 Rounding radius*
0 $2 $3 $4 $5 $6 $7 $8 $9 X,Y pos of 4 corners*
0 Add a 4 corners polygon primitive as box body*
4,1,4,$2,$3,$4,$5,$6,$7,$8,$9,$2,$3,0*
0 Add four circle primitives for the rounded corners*
1,1,$1+$1,$2,$3*
1,1,$1+$1,$4,$5*
1,1,$1+$1,$6,$7*
1,1,$1+$1,$8,$9*
0 Add four rect primitives between the rounded corners*
20,1,$1+$1,$2,$3,$4,$5,0*
20,1,$1+$1,$4,$5,$6,$7,0*
20,1,$1+$1,$6,$7,$8,$9,0*
20,1,$1+$1,$8,$9,$2,$3,0*%
G04 Aperture macros list end*
%TA.AperFunction,ComponentPad*%
%ADD10R,1.700000X1.700000*%
%TD*%
%TA.AperFunction,ComponentPad*%
%ADD11C,1.400000*%
%TD*%
%TA.AperFunction,ComponentPad*%
%ADD12C,1.700000*%
%TD*%
%TA.AperFunction,ComponentPad*%
%ADD13RoundRect,0.250000X0.550000X0.550000X-0.550000X0.550000X-0.550000X-0.550000X0.550000X-0.550000X0*%
%TD*%
%TA.AperFunction,ComponentPad*%
%ADD14C,1.600000*%
%TD*%
%TA.AperFunction,ComponentPad*%
%ADD15R,2.000000X1.200000*%
%TD*%
%TA.AperFunction,ComponentPad*%
%ADD16O,2.000000X1.200000*%
%TD*%
%TA.AperFunction,ComponentPad*%
%ADD17R,1.800000X1.800000*%
%TD*%
%TA.AperFunction,ComponentPad*%
%ADD18C,1.800000*%
%TD*%
%TA.AperFunction,ComponentPad*%
%ADD19RoundRect,0.249999X-0.850001X0.850001X-0.850001X-0.850001X0.850001X-0.850001X0.850001X0.850001X0*%
%TD*%
%TA.AperFunction,ComponentPad*%
%ADD20C,2.200000*%
%TD*%
%TA.AperFunction,ComponentPad*%
%ADD21R,1.500000X1.050000*%
%TD*%
%TA.AperFunction,ComponentPad*%
%ADD22O,1.500000X1.050000*%
%TD*%
%TA.AperFunction,ComponentPad*%
%ADD23RoundRect,0.250000X-0.550000X-0.550000X0.550000X-0.550000X0.550000X0.550000X-0.550000X0.550000X0*%
%TD*%
%TA.AperFunction,ComponentPad*%
%ADD24RoundRect,0.250000X0.350000X0.350000X-0.350000X0.350000X-0.350000X-0.350000X0.350000X-0.350000X0*%
%TD*%
%TA.AperFunction,ComponentPad*%
%ADD25C,1.200000*%
%TD*%
%TA.AperFunction,ComponentPad*%
%ADD26RoundRect,0.250000X0.600000X-0.600000X0.600000X0.600000X-0.600000X0.600000X-0.600000X-0.600000X0*%
%TD*%
G04 APERTURE END LIST*
D10*
%TO.P,J7,1,Pin_1_1*%
%TO.N,Net-(J7-Pin_1)*%
X149000000Y-97656560D03*
%TD*%
D11*
%TO.P,R1,1*%
%TO.N,Net-(Q1-B)*%
X109000000Y-74000000D03*
%TO.P,R1,2*%
%TO.N,Net-(U2-GPIO27)*%
X116620000Y-74000000D03*
%TD*%
D10*
%TO.P,J8,1,Pin_1_1*%
%TO.N,Net-(J8-Pin_1)*%
X149000000Y-111076560D03*
D12*
%TO.P,J8,2,Pin_2_2*%
%TO.N,Net-(J8-Pin_2)*%
X149000000Y-113616560D03*
%TO.P,J8,3,Pin_3_3*%
%TO.N,Net-(J8-Pin_3)*%
X149000000Y-116156560D03*
%TO.P,J8,4,Pin_4_4*%
%TO.N,Net-(J8-Pin_4)*%
X149000000Y-118696560D03*
%TD*%
D13*
%TO.P,D1,1,K_1*%
%TO.N,Net-(D1-K)*%
X103950000Y-78500000D03*
D14*
%TO.P,D1,2,A_2*%
%TO.N,Net-(D1-A)*%
X96330000Y-78500000D03*
%TD*%
D10*
%TO.P,J1,1,Pin_1_1*%
%TO.N,Net-(J1-Pin_1)*%
X149000000Y-83156560D03*
%TD*%
D15*
%TO.P,U2,1,5v_1*%
%TO.N,+3.3V*%
X119000000Y-80800000D03*
D16*
%TO.P,U2,2,GPIO11_2*%
%TO.N,GNDREF*%
X119000000Y-83340000D03*
%TO.P,U2,3,GPIO10_3*%
%TO.N,Net-(J9-Pin_1)*%
X119000000Y-85880000D03*
%TO.P,U2,4,GPIO9_4*%
%TO.N,Net-(J9-Pin_2)*%
X119000000Y-88420000D03*
%TO.P,U2,5,GPIO13_5*%
%TO.N,Net-(J9-Pin_3)*%
X119000000Y-90960000D03*
%TO.P,U2,6,GND_6*%
%TO.N,Net-(J9-Pin_4)*%
X119000000Y-93500000D03*
%TO.P,U2,7,GPIO12_7*%
%TO.N,Net-(J9-Pin_5)*%
X119000000Y-96040000D03*
%TO.P,U2,8,GPIO14_8*%
%TO.N,Net-(J9-Pin_6)*%
X119000000Y-98580000D03*
%TO.P,U2,9,GPIO27_9*%
%TO.N,Net-(J9-Pin_7)*%
X119000000Y-101120000D03*
%TO.P,U2,10,GPIO26_10*%
%TO.N,Net-(J9-Pin_8)*%
X119000000Y-103660000D03*
%TO.P,U2,11,GPIO25_11*%
%TO.N,Net-(U2-GPIO27)*%
X119000000Y-106200000D03*
%TO.P,U2,12,GPIO33_12*%
%TO.N,Net-(U1-Q)*%
X119000000Y-108740000D03*
%TO.P,U2,13,GPIO32_13*%
%TO.N,Net-(D3-A)*%
X119000000Y-111280000D03*
%TO.P,U2,14,GPIO35_14*%
%TO.N,GNDREF*%
X119000000Y-113820000D03*
%TO.P,U2,15,GPIO34_15*%
%TO.N,Net-(J10-Pin_1)*%
X119000000Y-116360000D03*
%TO.P,U2,16,GPIO39_16*%
%TO.N,unconnected-(U2-GPIO9-Pad4)*%
X119000000Y-118900000D03*
%TO.P,U2,17,GPIO36_17*%
%TO.N,unconnected-(U2-GPIO10-Pad3)*%
X119000000Y-121440000D03*
%TO.P,U2,18,EN_18*%
%TO.N,unconnected-(U2-GPIO11-Pad2)*%
X119000000Y-123980000D03*
%TO.P,U2,19,3.3v_19*%
%TO.N,+5V*%
X119000000Y-126520000D03*
%TO.P,U2,20,GPIO6_20*%
%TO.N,unconnected-(U2-GPIO6-Pad20)*%
X144396320Y-126517280D03*
%TO.P,U2,21,GPIO7_21*%
%TO.N,unconnected-(U2-GPIO7-Pad21)*%
X144396320Y-123977280D03*
%TO.P,U2,22,GPIO8_22*%
%TO.N,unconnected-(U2-GPIO8-Pad22)*%
X144400000Y-121440000D03*
%TO.P,U2,23,GPIO15_23*%
%TO.N,Net-(J8-Pin_4)*%
X144400000Y-118900000D03*
%TO.P,U2,24,GPIO2_24*%
%TO.N,Net-(J8-Pin_3)*%
X144400000Y-116360000D03*
%TO.P,U2,25,GPIO0_25*%
%TO.N,Net-(J8-Pin_2)*%
X144400000Y-113820000D03*
%TO.P,U2,26,GPIO4_26*%
%TO.N,Net-(J8-Pin_1)*%
X144400000Y-111280000D03*
%TO.P,U2,27,GPIO16_27*%
%TO.N,Net-(J2-Pin_3)*%
X144400000Y-108740000D03*
%TO.P,U2,28,GPIO17_28*%
%TO.N,Net-(J2-Pin_2)*%
X144400000Y-106200000D03*
%TO.P,U2,29,GPIO5_29*%
%TO.N,Net-(J11-Pin_1)*%
X144400000Y-103660000D03*
%TO.P,U2,30,GPIO18_30*%
%TO.N,Net-(J11-Pin_2)*%
X144400000Y-101120000D03*
%TO.P,U2,31,GPIO19_31*%
%TO.N,Net-(J7-Pin_1)*%
X144400000Y-98580000D03*
%TO.P,U2,32,GND_32*%
%TO.N,GNDREF*%
X144400000Y-96040000D03*
%TO.P,U2,33,GPIO21_33*%
%TO.N,Net-(J4-Pin_2)*%
X144400000Y-93500000D03*
%TO.P,U2,34,GPIO3_34*%
%TO.N,unconnected-(U2-GPIO3-Pad34)*%
X144400000Y-90960000D03*
%TO.P,U2,35,GPIO1_35*%
%TO.N,unconnected-(U2-GPIO1-Pad35)*%
X144400000Y-88420000D03*
%TO.P,U2,36,GPIO22_36*%
%TO.N,Net-(J4-Pin_3)*%
X144400000Y-85880000D03*
%TO.P,U2,37,GPIO23_37*%
%TO.N,Net-(J1-Pin_1)*%
X144400000Y-83340000D03*
%TO.P,U2,38,GND_38*%
%TO.N,GNDREF*%
X144400000Y-80800000D03*
%TD*%
D10*
%TO.P,J3,1,Pin_1_1*%
%TO.N,GNDREF*%
X102000000Y-90190000D03*
D12*
%TO.P,J3,2,Pin_2_2*%
%TO.N,+3.3V*%
X102000000Y-92730000D03*
%TO.P,J3,3,Pin_3_3*%
%TO.N,Net-(D2-K)*%
X102000000Y-95270000D03*
%TO.P,J3,4,Pin_4_4*%
%TO.N,Net-(D2-A)*%
X102000000Y-97810000D03*
%TD*%
D10*
%TO.P,J11,1,Pin_1_1*%
%TO.N,Net-(J11-Pin_1)*%
X149000000Y-103926560D03*
D12*
%TO.P,J11,2,Pin_2_2*%
%TO.N,Net-(J11-Pin_2)*%
X149000000Y-101386560D03*
%TD*%
D10*
%TO.P,J4,1,Pin_1_1*%
%TO.N,+3.3V*%
X154500000Y-91120000D03*
D12*
%TO.P,J4,2,Pin_2_2*%
%TO.N,Net-(J4-Pin_2)*%
X154500000Y-88580000D03*
%TO.P,J4,3,Pin_3_3*%
%TO.N,Net-(J4-Pin_3)*%
X154500000Y-86040000D03*
%TO.P,J4,4,Pin_4_4*%
%TO.N,unconnected-(J4-Pin_4-Pad4)*%
X154500000Y-83500000D03*
%TO.P,J4,5,Pin_5_5*%
%TO.N,GNDREF*%
X154500000Y-80960000D03*
%TD*%
D11*
%TO.P,R3,1*%
%TO.N,GNDREF*%
X109000000Y-124810000D03*
%TO.P,R3,2*%
%TO.N,Net-(D3-K)*%
X109000000Y-117190000D03*
%TD*%
D17*
%TO.P,D3,1,K_1*%
%TO.N,Net-(D3-K)*%
X109000000Y-113775000D03*
D18*
%TO.P,D3,2,A_2*%
%TO.N,Net-(D3-A)*%
X109000000Y-111235000D03*
%TD*%
D19*
%TO.P,D2,1,K_1*%
%TO.N,Net-(D2-K)*%
X106500000Y-90190000D03*
D20*
%TO.P,D2,2,A_2*%
%TO.N,Net-(D2-A)*%
X106500000Y-97810000D03*
%TD*%
D21*
%TO.P,Q1,1,E_1*%
%TO.N,GNDREF*%
X102640000Y-71230000D03*
D22*
%TO.P,Q1,2,B_2*%
%TO.N,Net-(Q1-B)*%
X102640000Y-72500000D03*
%TO.P,Q1,3,C_3*%
%TO.N,Net-(D1-K)*%
X102640000Y-73770000D03*
%TD*%
D10*
%TO.P,J2,1,Pin_1_1*%
%TO.N,+5V*%
X154000000Y-103920000D03*
D12*
%TO.P,J2,2,Pin_2_2*%
%TO.N,Net-(J2-Pin_2)*%
X154000000Y-106460000D03*
%TO.P,J2,3,Pin_3_3*%
%TO.N,Net-(J2-Pin_3)*%
X154000000Y-109000000D03*
%TO.P,J2,4,Pin_4_4*%
%TO.N,GNDREF*%
X154000000Y-111540000D03*
%TD*%
D13*
%TO.P,U1,1,GND_1*%
%TO.N,GNDREF*%
X98120000Y-97540000D03*
D14*
%TO.P,U1,2,TR_2*%
%TO.N,Net-(D2-A)*%
X98120000Y-95000000D03*
%TO.P,U1,3,Q_3*%
%TO.N,Net-(U1-Q)*%
X98120000Y-92460000D03*
%TO.P,U1,4,R_4*%
%TO.N,+3.3V*%
X98120000Y-89920000D03*
%TO.P,U1,5,CV_5*%
%TO.N,Net-(U1-CV)*%
X90500000Y-89920000D03*
%TO.P,U1,6,THR_6*%
%TO.N,Net-(U1-THR)*%
X90500000Y-92460000D03*
%TO.P,U1,7,DIS_7*%
%TO.N,Net-(U1-DIS)*%
X90500000Y-95000000D03*
%TO.P,U1,8,VCC_8*%
%TO.N,+3.3V*%
X90500000Y-97540000D03*
%TD*%
D23*
%TO.P,C2,1*%
%TO.N,+5V*%
X159635242Y-104000000D03*
D14*
%TO.P,C2,2*%
%TO.N,GNDREF*%
X162135242Y-104000000D03*
%TD*%
D23*
%TO.P,C1,1*%
%TO.N,+5V*%
X159635242Y-111500000D03*
D14*
%TO.P,C1,2*%
%TO.N,GNDREF*%
X162135242Y-111500000D03*
%TD*%
D24*
%TO.P,C3,1*%
%TO.N,GNDREF*%
X82972599Y-94500000D03*
D25*
%TO.P,C3,2*%
%TO.N,Net-(U1-THR)*%
X80972599Y-94500000D03*
%TD*%
D14*
%TO.P,C4,1*%
%TO.N,GNDREF*%
X81500000Y-90000000D03*
%TO.P,C4,2*%
%TO.N,Net-(U1-CV)*%
X86500000Y-90000000D03*
%TD*%
D11*
%TO.P,R2,1*%
%TO.N,Net-(U1-DIS)*%
X80190000Y-98000000D03*
%TO.P,R2,2*%
%TO.N,+3.3V*%
X87810000Y-98000000D03*
%TD*%
D26*
%TO.P,J5,1,Pin_1_1*%
%TO.N,GNDREF*%
X96500000Y-116500000D03*
D12*
%TO.P,J5,2,Pin_2_2*%
%TO.N,+5V*%
X96500000Y-112800000D03*
%TD*%
D10*
%TO.P,J6,1,Pin_1_1*%
%TO.N,+5V*%
X96640000Y-68460000D03*
D12*
%TO.P,J6,2,Pin_2_2*%
%TO.N,GNDREF*%
X96640000Y-71000000D03*
%TO.P,J6,3,Pin_3_3*%
%TO.N,Net-(D1-A)*%
X96640000Y-73540000D03*
%TD*%
D10*
%TO.P,J9,1,Pin_1_1*%
%TO.N,Net-(J9-Pin_1)*%
X114500000Y-85960000D03*
D12*
%TO.P,J9,2,Pin_2_2*%
%TO.N,Net-(J9-Pin_2)*%
X114500000Y-88500000D03*
%TO.P,J9,3,Pin_3_3*%
%TO.N,Net-(J9-Pin_3)*%
X114500000Y-91040000D03*
%TO.P,J9,4,Pin_4_4*%
%TO.N,Net-(J9-Pin_4)*%
X114500000Y-93580000D03*
%TO.P,J9,5,Pin_5_5*%
%TO.N,Net-(J9-Pin_5)*%
X114500000Y-96120000D03*
%TO.P,J9,6,Pin_6_6*%
%TO.N,Net-(J9-Pin_6)*%
X114500000Y-98660000D03*
%TO.P,J9,7,Pin_7_7*%
%TO.N,Net-(J9-Pin_7)*%
X114500000Y-101200000D03*
%TO.P,J9,8,Pin_8_8*%
%TO.N,Net-(J9-Pin_8)*%
X114500000Y-103740000D03*
%TD*%
D10*
%TO.P,J10,1,Pin_1_1*%
%TO.N,Net-(J10-Pin_1)*%
X114500000Y-116156560D03*
%TD*%
M02*
